<?xml version="1.0" encoding="utf-8" standalone="no"?>
<!DOCTYPE svg PUBLIC "-//W3C//DTD SVG 1.1//EN"
  "http://www.w3.org/Graphics/SVG/1.1/DTD/svg11.dtd">
<svg xmlns:xlink="http://www.w3.org/1999/xlink" width="657.451832pt" height="574.942128pt" viewBox="0 0 657.451832 574.942128" xmlns="http://www.w3.org/2000/svg" version="1.1">
 <metadata>
  <rdf:RDF xmlns:dc="http://purl.org/dc/elements/1.1/" xmlns:cc="http://creativecommons.org/ns#" xmlns:rdf="http://www.w3.org/1999/02/22-rdf-syntax-ns#">
   <cc:Work>
    <dc:type rdf:resource="http://purl.org/dc/dcmitype/StillImage"/>
    <dc:date>2026-07-16T19:38:29.636854</dc:date>
    <dc:format>image/svg+xml</dc:format>
    <dc:creator>
     <cc:Agent>
      <dc:title>Matplotlib v3.11.0, https://matplotlib.org/</dc:title>
     </cc:Agent>
    </dc:creator>
   </cc:Work>
  </rdf:RDF>
 </metadata>
 <defs>
  <style type="text/css">*{stroke-linejoin: round; stroke-linecap: butt}</style>
 </defs>
 <g id="figure_1">
  <g id="patch_1">
   <path d="M 0 574.942128 
L 657.451832 574.942128 
L 657.451832 0 
L 0 0 
z
" style="fill: #ffffff"/>
  </g>
  <g id="axes_1">
   <g id="patch_2">
    <path d="M 167.304119 549.969094 
L 489.864119 549.969094 
L 489.864119 31.569094 
L 167.304119 31.569094 
z
" style="fill: #ffffff"/>
   </g>
   <g id="line2d_1">
    <path d="M 328.584119 549.969094 
L 328.584119 31.569094 
" clip-path="url(#pdce25b7cea)" style="fill: none; stroke: #000000; stroke-width: 0.75; stroke-linecap: square"/>
   </g>
   <g id="line2d_2">
    <path d="M 333.471392 34.890169 
L 475.202301 34.890169 
" clip-path="url(#pdce25b7cea)" style="fill: none; stroke: #808080; stroke-width: 0.5; stroke-linecap: square"/>
   </g>
   <g id="line2d_3">
    <path d="M 323.696847 37.615154 
L 181.965937 37.615154 
" clip-path="url(#pdce25b7cea)" style="fill: none; stroke: #808080; stroke-width: 0.5; stroke-linecap: square"/>
   </g>
   <g id="line2d_4">
    <path d="M 333.471392 63.019962 
L 475.202301 63.019962 
" clip-path="url(#pdce25b7cea)" style="fill: none; stroke: #808080; stroke-width: 0.5; stroke-linecap: square"/>
   </g>
   <g id="line2d_5">
    <path d="M 333.471392 107.10227 
L 475.202301 107.10227 
" clip-path="url(#pdce25b7cea)" style="fill: none; stroke: #808080; stroke-width: 0.5; stroke-linecap: square"/>
   </g>
   <g id="line2d_6">
    <path d="M 323.696847 128.306059 
L 289.485938 128.306059 
" clip-path="url(#pdce25b7cea)" style="fill: none; stroke: #808080; stroke-width: 0.5; stroke-linecap: square"/>
   </g>
   <g id="line2d_7">
    <path d="M 323.696847 141.845828 
L 181.965937 141.845828 
" clip-path="url(#pdce25b7cea)" style="fill: none; stroke: #808080; stroke-width: 0.5; stroke-linecap: square"/>
   </g>
   <g id="line2d_8">
    <path d="M 333.471392 142.527074 
L 426.329574 142.527074 
" clip-path="url(#pdce25b7cea)" style="fill: none; stroke: #808080; stroke-width: 0.5; stroke-linecap: square"/>
   </g>
   <g id="line2d_9">
    <path d="M 333.471392 157.173868 
L 357.907756 157.173868 
" clip-path="url(#pdce25b7cea)" style="fill: none; stroke: #808080; stroke-width: 0.5; stroke-linecap: square"/>
   </g>
   <g id="line2d_10">
    <path d="M 323.696847 164.46888 
L 181.965937 164.46888 
" clip-path="url(#pdce25b7cea)" style="fill: none; stroke: #808080; stroke-width: 0.5; stroke-linecap: square"/>
   </g>
   <g id="line2d_11">
    <path d="M 333.471392 175.794599 
L 475.202301 175.794599 
" clip-path="url(#pdce25b7cea)" style="fill: none; stroke: #808080; stroke-width: 0.5; stroke-linecap: square"/>
   </g>
   <g id="line2d_12">
    <path d="M 333.471392 190.64009 
L 367.682301 190.64009 
" clip-path="url(#pdce25b7cea)" style="fill: none; stroke: #808080; stroke-width: 0.5; stroke-linecap: square"/>
   </g>
   <g id="line2d_13">
    <path d="M 323.696847 191.378107 
L 289.485938 191.378107 
" clip-path="url(#pdce25b7cea)" style="fill: none; stroke: #808080; stroke-width: 0.5; stroke-linecap: square"/>
   </g>
   <g id="line2d_14">
    <path d="M 323.696847 196.544224 
L 181.965937 196.544224 
" clip-path="url(#pdce25b7cea)" style="fill: none; stroke: #808080; stroke-width: 0.5; stroke-linecap: square"/>
   </g>
   <g id="line2d_15">
    <path d="M 333.471392 213.859232 
L 475.202301 213.859232 
" clip-path="url(#pdce25b7cea)" style="fill: none; stroke: #808080; stroke-width: 0.5; stroke-linecap: square"/>
   </g>
   <g id="line2d_16">
    <path d="M 323.696847 344.005649 
L 181.965937 344.005649 
" clip-path="url(#pdce25b7cea)" style="fill: none; stroke: #808080; stroke-width: 0.5; stroke-linecap: square"/>
   </g>
   <g id="line2d_17">
    <path d="M 333.471392 358.311819 
L 475.202301 358.311819 
" clip-path="url(#pdce25b7cea)" style="fill: none; stroke: #808080; stroke-width: 0.5; stroke-linecap: square"/>
   </g>
   <g id="line2d_18">
    <path d="M 333.471392 436.484825 
L 475.202301 436.484825 
" clip-path="url(#pdce25b7cea)" style="fill: none; stroke: #808080; stroke-width: 0.5; stroke-linecap: square"/>
   </g>
   <g id="line2d_19">
    <path d="M 323.696847 456.666745 
L 181.965937 456.666745 
" clip-path="url(#pdce25b7cea)" style="fill: none; stroke: #808080; stroke-width: 0.5; stroke-linecap: square"/>
   </g>
   <g id="line2d_20">
    <path d="M 333.471392 458.568557 
L 475.202301 458.568557 
" clip-path="url(#pdce25b7cea)" style="fill: none; stroke: #808080; stroke-width: 0.5; stroke-linecap: square"/>
   </g>
   <g id="line2d_21">
    <path d="M 323.696847 464.046912 
L 289.485938 464.046912 
" clip-path="url(#pdce25b7cea)" style="fill: none; stroke: #808080; stroke-width: 0.5; stroke-linecap: square"/>
   </g>
   <g id="line2d_22">
    <path d="M 333.471392 499.131093 
L 475.202301 499.131093 
" clip-path="url(#pdce25b7cea)" style="fill: none; stroke: #808080; stroke-width: 0.5; stroke-linecap: square"/>
   </g>
   <g id="line2d_23">
    <path d="M 333.471392 534.953291 
L 475.202301 534.953291 
" clip-path="url(#pdce25b7cea)" style="fill: none; stroke: #808080; stroke-width: 0.5; stroke-linecap: square"/>
   </g>
   <g id="line2d_24">
    <path d="M 323.696847 554.539121 
L 181.965937 554.539121 
" clip-path="url(#pdce25b7cea)" style="fill: none; stroke: #808080; stroke-width: 0.5; stroke-linecap: square"/>
   </g>
   <g id="text_1">
    <g id="patch_3">
     <path d="M 310.626619 41.029094 
L 346.541619 41.029094 
L 346.541619 22.109094 
L 310.626619 22.109094 
z
" style="fill: #ffffff; stroke: #ffffff; stroke-linejoin: miter"/>
    </g>
    <!-- 1960 -->
    <g transform="translate(314.586619 34.426516) scale(0.11 -0.11)">
     <defs>
      <path id="DejaVuSans-14" d="M 794 531 
L 1825 531 
L 1825 4091 
L 703 3866 
L 703 4441 
L 1819 4666 
L 2450 4666 
L 2450 531 
L 3481 531 
L 3481 0 
L 794 0 
L 794 531 
z
" transform="scale(0.015625)"/>
      <path id="DejaVuSans-1c" d="M 703 97 
L 703 672 
Q 941 559 1184 500 
Q 1428 441 1663 441 
Q 2288 441 2617 861 
Q 2947 1281 2994 2138 
Q 2813 1869 2534 1725 
Q 2256 1581 1919 1581 
Q 1219 1581 811 2004 
Q 403 2428 403 3163 
Q 403 3881 828 4315 
Q 1253 4750 1959 4750 
Q 2769 4750 3195 4129 
Q 3622 3509 3622 2328 
Q 3622 1225 3098 567 
Q 2575 -91 1691 -91 
Q 1453 -91 1209 -44 
Q 966 3 703 97 
z
M 1959 2075 
Q 2384 2075 2632 2365 
Q 2881 2656 2881 3163 
Q 2881 3666 2632 3958 
Q 2384 4250 1959 4250 
Q 1534 4250 1286 3958 
Q 1038 3666 1038 3163 
Q 1038 2656 1286 2365 
Q 1534 2075 1959 2075 
z
" transform="scale(0.015625)"/>
      <path id="DejaVuSans-19" d="M 2113 2584 
Q 1688 2584 1439 2293 
Q 1191 2003 1191 1497 
Q 1191 994 1439 701 
Q 1688 409 2113 409 
Q 2538 409 2786 701 
Q 3034 994 3034 1497 
Q 3034 2003 2786 2293 
Q 2538 2584 2113 2584 
z
M 3366 4563 
L 3366 3988 
Q 3128 4100 2886 4159 
Q 2644 4219 2406 4219 
Q 1781 4219 1451 3797 
Q 1122 3375 1075 2522 
Q 1259 2794 1537 2939 
Q 1816 3084 2150 3084 
Q 2853 3084 3261 2657 
Q 3669 2231 3669 1497 
Q 3669 778 3244 343 
Q 2819 -91 2113 -91 
Q 1303 -91 875 529 
Q 447 1150 447 2328 
Q 447 3434 972 4092 
Q 1497 4750 2381 4750 
Q 2619 4750 2861 4703 
Q 3103 4656 3366 4563 
z
" transform="scale(0.015625)"/>
      <path id="DejaVuSans-13" d="M 2034 4250 
Q 1547 4250 1301 3770 
Q 1056 3291 1056 2328 
Q 1056 1369 1301 889 
Q 1547 409 2034 409 
Q 2525 409 2770 889 
Q 3016 1369 3016 2328 
Q 3016 3291 2770 3770 
Q 2525 4250 2034 4250 
z
M 2034 4750 
Q 2819 4750 3233 4129 
Q 3647 3509 3647 2328 
Q 3647 1150 3233 529 
Q 2819 -91 2034 -91 
Q 1250 -91 836 529 
Q 422 1150 422 2328 
Q 422 3509 836 4129 
Q 1250 4750 2034 4750 
z
" transform="scale(0.015625)"/>
     </defs>
     <use xlink:href="#DejaVuSans-14"/>
     <use xlink:href="#DejaVuSans-1c" transform="translate(63.625 0)"/>
     <use xlink:href="#DejaVuSans-19" transform="translate(127.25 0)"/>
     <use xlink:href="#DejaVuSans-13" transform="translate(190.875 0)"/>
    </g>
   </g>
   <g id="text_2">
    <g id="patch_4">
     <path d="M 310.626619 92.888963 
L 346.541619 92.888963 
L 346.541619 73.968963 
L 310.626619 73.968963 
z
" style="fill: #ffffff; stroke: #ffffff; stroke-linejoin: miter"/>
    </g>
    <!-- 1965 -->
    <g transform="translate(314.586619 86.286385) scale(0.11 -0.11)">
     <defs>
      <path id="DejaVuSans-18" d="M 691 4666 
L 3169 4666 
L 3169 4134 
L 1269 4134 
L 1269 2991 
Q 1406 3038 1543 3061 
Q 1681 3084 1819 3084 
Q 2600 3084 3056 2656 
Q 3513 2228 3513 1497 
Q 3513 744 3044 326 
Q 2575 -91 1722 -91 
Q 1428 -91 1123 -41 
Q 819 9 494 109 
L 494 744 
Q 775 591 1075 516 
Q 1375 441 1709 441 
Q 2250 441 2565 725 
Q 2881 1009 2881 1497 
Q 2881 1984 2565 2268 
Q 2250 2553 1709 2553 
Q 1456 2553 1204 2497 
Q 953 2441 691 2322 
L 691 4666 
z
" transform="scale(0.015625)"/>
     </defs>
     <use xlink:href="#DejaVuSans-14"/>
     <use xlink:href="#DejaVuSans-1c" transform="translate(63.625 0)"/>
     <use xlink:href="#DejaVuSans-19" transform="translate(127.25 0)"/>
     <use xlink:href="#DejaVuSans-18" transform="translate(190.875 0)"/>
    </g>
   </g>
   <g id="text_3">
    <g id="patch_5">
     <path d="M 310.626619 144.720448 
L 346.541619 144.720448 
L 346.541619 125.800448 
L 310.626619 125.800448 
z
" style="fill: #ffffff; stroke: #ffffff; stroke-linejoin: miter"/>
    </g>
    <!-- 1970 -->
    <g transform="translate(314.586619 138.11787) scale(0.11 -0.11)">
     <defs>
      <path id="DejaVuSans-1a" d="M 525 4666 
L 3525 4666 
L 3525 4397 
L 1831 0 
L 1172 0 
L 2766 4134 
L 525 4134 
L 525 4666 
z
" transform="scale(0.015625)"/>
     </defs>
     <use xlink:href="#DejaVuSans-14"/>
     <use xlink:href="#DejaVuSans-1c" transform="translate(63.625 0)"/>
     <use xlink:href="#DejaVuSans-1a" transform="translate(127.25 0)"/>
     <use xlink:href="#DejaVuSans-13" transform="translate(190.875 0)"/>
    </g>
   </g>
   <g id="text_4">
    <g id="patch_6">
     <path d="M 310.626619 196.551932 
L 346.541619 196.551932 
L 346.541619 177.631932 
L 310.626619 177.631932 
z
" style="fill: #ffffff; stroke: #ffffff; stroke-linejoin: miter"/>
    </g>
    <!-- 1975 -->
    <g transform="translate(314.586619 189.949354) scale(0.11 -0.11)">
     <use xlink:href="#DejaVuSans-14"/>
     <use xlink:href="#DejaVuSans-1c" transform="translate(63.625 0)"/>
     <use xlink:href="#DejaVuSans-1a" transform="translate(127.25 0)"/>
     <use xlink:href="#DejaVuSans-18" transform="translate(190.875 0)"/>
    </g>
   </g>
   <g id="text_5">
    <g id="patch_7">
     <path d="M 310.626619 248.383417 
L 346.541619 248.383417 
L 346.541619 229.463417 
L 310.626619 229.463417 
z
" style="fill: #ffffff; stroke: #ffffff; stroke-linejoin: miter"/>
    </g>
    <!-- 1980 -->
    <g transform="translate(314.586619 241.780839) scale(0.11 -0.11)">
     <defs>
      <path id="DejaVuSans-1b" d="M 2034 2216 
Q 1584 2216 1326 1975 
Q 1069 1734 1069 1313 
Q 1069 891 1326 650 
Q 1584 409 2034 409 
Q 2484 409 2743 651 
Q 3003 894 3003 1313 
Q 3003 1734 2745 1975 
Q 2488 2216 2034 2216 
z
M 1403 2484 
Q 997 2584 770 2862 
Q 544 3141 544 3541 
Q 544 4100 942 4425 
Q 1341 4750 2034 4750 
Q 2731 4750 3128 4425 
Q 3525 4100 3525 3541 
Q 3525 3141 3298 2862 
Q 3072 2584 2669 2484 
Q 3125 2378 3379 2068 
Q 3634 1759 3634 1313 
Q 3634 634 3220 271 
Q 2806 -91 2034 -91 
Q 1263 -91 848 271 
Q 434 634 434 1313 
Q 434 1759 690 2068 
Q 947 2378 1403 2484 
z
M 1172 3481 
Q 1172 3119 1398 2916 
Q 1625 2713 2034 2713 
Q 2441 2713 2670 2916 
Q 2900 3119 2900 3481 
Q 2900 3844 2670 4047 
Q 2441 4250 2034 4250 
Q 1625 4250 1398 4047 
Q 1172 3844 1172 3481 
z
" transform="scale(0.015625)"/>
     </defs>
     <use xlink:href="#DejaVuSans-14"/>
     <use xlink:href="#DejaVuSans-1c" transform="translate(63.625 0)"/>
     <use xlink:href="#DejaVuSans-1b" transform="translate(127.25 0)"/>
     <use xlink:href="#DejaVuSans-13" transform="translate(190.875 0)"/>
    </g>
   </g>
   <g id="text_6">
    <g id="patch_8">
     <path d="M 310.626619 300.243286 
L 346.541619 300.243286 
L 346.541619 281.323286 
L 310.626619 281.323286 
z
" style="fill: #ffffff; stroke: #ffffff; stroke-linejoin: miter"/>
    </g>
    <!-- 1985 -->
    <g transform="translate(314.586619 293.640708) scale(0.11 -0.11)">
     <use xlink:href="#DejaVuSans-14"/>
     <use xlink:href="#DejaVuSans-1c" transform="translate(63.625 0)"/>
     <use xlink:href="#DejaVuSans-1b" transform="translate(127.25 0)"/>
     <use xlink:href="#DejaVuSans-18" transform="translate(190.875 0)"/>
    </g>
   </g>
   <g id="text_7">
    <g id="patch_9">
     <path d="M 310.626619 352.074771 
L 346.541619 352.074771 
L 346.541619 333.154771 
L 310.626619 333.154771 
z
" style="fill: #ffffff; stroke: #ffffff; stroke-linejoin: miter"/>
    </g>
    <!-- 1990 -->
    <g transform="translate(314.586619 345.472193) scale(0.11 -0.11)">
     <use xlink:href="#DejaVuSans-14"/>
     <use xlink:href="#DejaVuSans-1c" transform="translate(63.625 0)"/>
     <use xlink:href="#DejaVuSans-1c" transform="translate(127.25 0)"/>
     <use xlink:href="#DejaVuSans-13" transform="translate(190.875 0)"/>
    </g>
   </g>
   <g id="text_8">
    <g id="patch_10">
     <path d="M 310.626619 403.906255 
L 346.541619 403.906255 
L 346.541619 384.986255 
L 310.626619 384.986255 
z
" style="fill: #ffffff; stroke: #ffffff; stroke-linejoin: miter"/>
    </g>
    <!-- 1995 -->
    <g transform="translate(314.586619 397.303677) scale(0.11 -0.11)">
     <use xlink:href="#DejaVuSans-14"/>
     <use xlink:href="#DejaVuSans-1c" transform="translate(63.625 0)"/>
     <use xlink:href="#DejaVuSans-1c" transform="translate(127.25 0)"/>
     <use xlink:href="#DejaVuSans-18" transform="translate(190.875 0)"/>
    </g>
   </g>
   <g id="text_9">
    <g id="patch_11">
     <path d="M 310.626619 455.73774 
L 346.541619 455.73774 
L 346.541619 436.81774 
L 310.626619 436.81774 
z
" style="fill: #ffffff; stroke: #ffffff; stroke-linejoin: miter"/>
    </g>
    <!-- 2000 -->
    <g transform="translate(314.586619 449.135162) scale(0.11 -0.11)">
     <defs>
      <path id="DejaVuSans-15" d="M 1228 531 
L 3431 531 
L 3431 0 
L 469 0 
L 469 531 
Q 828 903 1448 1529 
Q 2069 2156 2228 2338 
Q 2531 2678 2651 2914 
Q 2772 3150 2772 3378 
Q 2772 3750 2511 3984 
Q 2250 4219 1831 4219 
Q 1534 4219 1204 4116 
Q 875 4013 500 3803 
L 500 4441 
Q 881 4594 1212 4672 
Q 1544 4750 1819 4750 
Q 2544 4750 2975 4387 
Q 3406 4025 3406 3419 
Q 3406 3131 3298 2873 
Q 3191 2616 2906 2266 
Q 2828 2175 2409 1742 
Q 1991 1309 1228 531 
z
" transform="scale(0.015625)"/>
     </defs>
     <use xlink:href="#DejaVuSans-15"/>
     <use xlink:href="#DejaVuSans-13" transform="translate(63.625 0)"/>
     <use xlink:href="#DejaVuSans-13" transform="translate(127.25 0)"/>
     <use xlink:href="#DejaVuSans-13" transform="translate(190.875 0)"/>
    </g>
   </g>
   <g id="text_10">
    <g id="patch_12">
     <path d="M 310.626619 507.597609 
L 346.541619 507.597609 
L 346.541619 488.677609 
L 310.626619 488.677609 
z
" style="fill: #ffffff; stroke: #ffffff; stroke-linejoin: miter"/>
    </g>
    <!-- 2005 -->
    <g transform="translate(314.586619 500.995031) scale(0.11 -0.11)">
     <use xlink:href="#DejaVuSans-15"/>
     <use xlink:href="#DejaVuSans-13" transform="translate(63.625 0)"/>
     <use xlink:href="#DejaVuSans-13" transform="translate(127.25 0)"/>
     <use xlink:href="#DejaVuSans-18" transform="translate(190.875 0)"/>
    </g>
   </g>
   <g id="text_11">
    <g id="patch_13">
     <path d="M 310.626619 559.429094 
L 346.541619 559.429094 
L 346.541619 540.509094 
L 310.626619 540.509094 
z
" style="fill: #ffffff; stroke: #ffffff; stroke-linejoin: miter"/>
    </g>
    <!-- 2010 -->
    <g transform="translate(314.586619 552.826516) scale(0.11 -0.11)">
     <use xlink:href="#DejaVuSans-15"/>
     <use xlink:href="#DejaVuSans-13" transform="translate(63.625 0)"/>
     <use xlink:href="#DejaVuSans-14" transform="translate(127.25 0)"/>
     <use xlink:href="#DejaVuSans-13" transform="translate(190.875 0)"/>
    </g>
   </g>
   <g id="text_12">
    <!-- Benin -->
    <g transform="translate(170.789682 17.837813) scale(0.14 -0.14)">
     <defs>
      <path id="DejaVuSans-Bold-25" d="M 2456 2859 
Q 2741 2859 2887 2984 
Q 3034 3109 3034 3353 
Q 3034 3594 2887 3720 
Q 2741 3847 2456 3847 
L 1791 3847 
L 1791 2859 
L 2456 2859 
z
M 2497 819 
Q 2859 819 3042 972 
Q 3225 1125 3225 1434 
Q 3225 1738 3044 1889 
Q 2863 2041 2497 2041 
L 1791 2041 
L 1791 819 
L 2497 819 
z
M 3616 2497 
Q 4003 2384 4215 2081 
Q 4428 1778 4428 1338 
Q 4428 663 3972 331 
Q 3516 0 2584 0 
L 588 0 
L 588 4666 
L 2394 4666 
Q 3366 4666 3802 4372 
Q 4238 4078 4238 3431 
Q 4238 3091 4078 2852 
Q 3919 2613 3616 2497 
z
" transform="scale(0.015625)"/>
      <path id="DejaVuSans-Bold-48" d="M 4031 1759 
L 4031 1441 
L 1416 1441 
Q 1456 1047 1700 850 
Q 1944 653 2381 653 
Q 2734 653 3104 758 
Q 3475 863 3866 1075 
L 3866 213 
Q 3469 63 3072 -14 
Q 2675 -91 2278 -91 
Q 1328 -91 801 392 
Q 275 875 275 1747 
Q 275 2603 792 3093 
Q 1309 3584 2216 3584 
Q 3041 3584 3536 3087 
Q 4031 2591 4031 1759 
z
M 2881 2131 
Q 2881 2450 2695 2645 
Q 2509 2841 2209 2841 
Q 1884 2841 1681 2658 
Q 1478 2475 1428 2131 
L 2881 2131 
z
" transform="scale(0.015625)"/>
      <path id="DejaVuSans-Bold-51" d="M 4056 2131 
L 4056 0 
L 2931 0 
L 2931 347 
L 2931 1631 
Q 2931 2084 2911 2256 
Q 2891 2428 2841 2509 
Q 2775 2619 2662 2680 
Q 2550 2741 2406 2741 
Q 2056 2741 1856 2470 
Q 1656 2200 1656 1722 
L 1656 0 
L 538 0 
L 538 3500 
L 1656 3500 
L 1656 2988 
Q 1909 3294 2193 3439 
Q 2478 3584 2822 3584 
Q 3428 3584 3742 3212 
Q 4056 2841 4056 2131 
z
" transform="scale(0.015625)"/>
      <path id="DejaVuSans-Bold-4c" d="M 538 3500 
L 1656 3500 
L 1656 0 
L 538 0 
L 538 3500 
z
M 538 4863 
L 1656 4863 
L 1656 3950 
L 538 3950 
L 538 4863 
z
" transform="scale(0.015625)"/>
     </defs>
     <use xlink:href="#DejaVuSans-Bold-25"/>
     <use xlink:href="#DejaVuSans-Bold-48" transform="translate(76.21875 0)"/>
     <use xlink:href="#DejaVuSans-Bold-51" transform="translate(144.046875 0)"/>
     <use xlink:href="#DejaVuSans-Bold-4c" transform="translate(215.234375 0)"/>
     <use xlink:href="#DejaVuSans-Bold-51" transform="translate(249.515625 0)"/>
    </g>
   </g>
   <g id="text_13">
    <!-- Togo -->
    <g transform="translate(441.480119 17.837813) scale(0.14 -0.14)">
     <defs>
      <path id="DejaVuSans-Bold-37" d="M 31 4666 
L 4331 4666 
L 4331 3756 
L 2784 3756 
L 2784 0 
L 1581 0 
L 1581 3756 
L 31 3756 
L 31 4666 
z
" transform="scale(0.015625)"/>
      <path id="DejaVuSans-Bold-52" d="M 2203 2784 
Q 1831 2784 1636 2517 
Q 1441 2250 1441 1747 
Q 1441 1244 1636 976 
Q 1831 709 2203 709 
Q 2569 709 2762 976 
Q 2956 1244 2956 1747 
Q 2956 2250 2762 2517 
Q 2569 2784 2203 2784 
z
M 2203 3584 
Q 3106 3584 3614 3096 
Q 4122 2609 4122 1747 
Q 4122 884 3614 396 
Q 3106 -91 2203 -91 
Q 1297 -91 786 396 
Q 275 884 275 1747 
Q 275 2609 786 3096 
Q 1297 3584 2203 3584 
z
" transform="scale(0.015625)"/>
      <path id="DejaVuSans-Bold-4a" d="M 2919 594 
Q 2688 288 2409 144 
Q 2131 0 1766 0 
Q 1125 0 706 504 
Q 288 1009 288 1791 
Q 288 2575 706 3076 
Q 1125 3578 1766 3578 
Q 2131 3578 2409 3434 
Q 2688 3291 2919 2981 
L 2919 3500 
L 4044 3500 
L 4044 353 
Q 4044 -491 3511 -936 
Q 2978 -1381 1966 -1381 
Q 1638 -1381 1331 -1331 
Q 1025 -1281 716 -1178 
L 716 -306 
Q 1009 -475 1290 -558 
Q 1572 -641 1856 -641 
Q 2406 -641 2662 -400 
Q 2919 -159 2919 353 
L 2919 594 
z
M 2181 2772 
Q 1834 2772 1640 2515 
Q 1447 2259 1447 1791 
Q 1447 1309 1634 1061 
Q 1822 813 2181 813 
Q 2531 813 2725 1069 
Q 2919 1325 2919 1791 
Q 2919 2259 2725 2515 
Q 2531 2772 2181 2772 
z
" transform="scale(0.015625)"/>
     </defs>
     <use xlink:href="#DejaVuSans-Bold-37"/>
     <use xlink:href="#DejaVuSans-Bold-52" transform="translate(54.9375 0)"/>
     <use xlink:href="#DejaVuSans-Bold-4a" transform="translate(123.640625 0)"/>
     <use xlink:href="#DejaVuSans-Bold-52" transform="translate(195.21875 0)"/>
    </g>
   </g>
   <g id="text_14">
    <g id="patch_14">
     <path d="M 475.202301 43.690599 
L 596.322614 43.690599 
Q 599.622614 43.690599 599.622614 40.390599 
L 599.622614 29.389739 
Q 599.622614 26.089739 596.322614 26.089739 
L 475.202301 26.089739 
Q 471.902301 26.089739 471.902301 29.389739 
L 471.902301 40.390599 
Q 471.902301 43.690599 475.202301 43.690599 
z
" style="fill: #ffffff; stroke: #000000; stroke-width: 0.5; stroke-linejoin: miter"/>
    </g>
    <!-- Independence of Togo -->
    <g transform="translate(475.202301 37.748021) scale(0.11 -0.11)">
     <defs>
      <path id="DejaVuSans-2c" d="M 628 4666 
L 1259 4666 
L 1259 0 
L 628 0 
L 628 4666 
z
" transform="scale(0.015625)"/>
      <path id="DejaVuSans-51" d="M 3513 2113 
L 3513 0 
L 2938 0 
L 2938 2094 
Q 2938 2591 2744 2837 
Q 2550 3084 2163 3084 
Q 1697 3084 1428 2787 
Q 1159 2491 1159 1978 
L 1159 0 
L 581 0 
L 581 3500 
L 1159 3500 
L 1159 2956 
Q 1366 3272 1645 3428 
Q 1925 3584 2291 3584 
Q 2894 3584 3203 3211 
Q 3513 2838 3513 2113 
z
" transform="scale(0.015625)"/>
      <path id="DejaVuSans-47" d="M 2906 2969 
L 2906 4863 
L 3481 4863 
L 3481 0 
L 2906 0 
L 2906 525 
Q 2725 213 2448 61 
Q 2172 -91 1784 -91 
Q 1150 -91 751 415 
Q 353 922 353 1747 
Q 353 2572 751 3078 
Q 1150 3584 1784 3584 
Q 2172 3584 2448 3432 
Q 2725 3281 2906 2969 
z
M 947 1747 
Q 947 1113 1208 752 
Q 1469 391 1925 391 
Q 2381 391 2643 752 
Q 2906 1113 2906 1747 
Q 2906 2381 2643 2742 
Q 2381 3103 1925 3103 
Q 1469 3103 1208 2742 
Q 947 2381 947 1747 
z
" transform="scale(0.015625)"/>
      <path id="DejaVuSans-48" d="M 3597 1894 
L 3597 1613 
L 953 1613 
Q 991 1019 1311 708 
Q 1631 397 2203 397 
Q 2534 397 2845 478 
Q 3156 559 3463 722 
L 3463 178 
Q 3153 47 2828 -22 
Q 2503 -91 2169 -91 
Q 1331 -91 842 396 
Q 353 884 353 1716 
Q 353 2575 817 3079 
Q 1281 3584 2069 3584 
Q 2775 3584 3186 3129 
Q 3597 2675 3597 1894 
z
M 3022 2063 
Q 3016 2534 2758 2815 
Q 2500 3097 2075 3097 
Q 1594 3097 1305 2825 
Q 1016 2553 972 2059 
L 3022 2063 
z
" transform="scale(0.015625)"/>
      <path id="DejaVuSans-53" d="M 1159 525 
L 1159 -1331 
L 581 -1331 
L 581 3500 
L 1159 3500 
L 1159 2969 
Q 1341 3281 1617 3432 
Q 1894 3584 2278 3584 
Q 2916 3584 3314 3078 
Q 3713 2572 3713 1747 
Q 3713 922 3314 415 
Q 2916 -91 2278 -91 
Q 1894 -91 1617 61 
Q 1341 213 1159 525 
z
M 3116 1747 
Q 3116 2381 2855 2742 
Q 2594 3103 2138 3103 
Q 1681 3103 1420 2742 
Q 1159 2381 1159 1747 
Q 1159 1113 1420 752 
Q 1681 391 2138 391 
Q 2594 391 2855 752 
Q 3116 1113 3116 1747 
z
" transform="scale(0.015625)"/>
      <path id="DejaVuSans-46" d="M 3122 3366 
L 3122 2828 
Q 2878 2963 2633 3030 
Q 2388 3097 2138 3097 
Q 1578 3097 1268 2742 
Q 959 2388 959 1747 
Q 959 1106 1268 751 
Q 1578 397 2138 397 
Q 2388 397 2633 464 
Q 2878 531 3122 666 
L 3122 134 
Q 2881 22 2623 -34 
Q 2366 -91 2075 -91 
Q 1284 -91 818 406 
Q 353 903 353 1747 
Q 353 2603 823 3093 
Q 1294 3584 2113 3584 
Q 2378 3584 2631 3529 
Q 2884 3475 3122 3366 
z
" transform="scale(0.015625)"/>
      <path id="DejaVuSans-3" transform="scale(0.015625)"/>
      <path id="DejaVuSans-52" d="M 1959 3097 
Q 1497 3097 1228 2736 
Q 959 2375 959 1747 
Q 959 1119 1226 758 
Q 1494 397 1959 397 
Q 2419 397 2687 759 
Q 2956 1122 2956 1747 
Q 2956 2369 2687 2733 
Q 2419 3097 1959 3097 
z
M 1959 3584 
Q 2709 3584 3137 3096 
Q 3566 2609 3566 1747 
Q 3566 888 3137 398 
Q 2709 -91 1959 -91 
Q 1206 -91 779 398 
Q 353 888 353 1747 
Q 353 2609 779 3096 
Q 1206 3584 1959 3584 
z
" transform="scale(0.015625)"/>
      <path id="DejaVuSans-49" d="M 2375 4863 
L 2375 4384 
L 1825 4384 
Q 1516 4384 1395 4259 
Q 1275 4134 1275 3809 
L 1275 3500 
L 2222 3500 
L 2222 3053 
L 1275 3053 
L 1275 0 
L 697 0 
L 697 3053 
L 147 3053 
L 147 3500 
L 697 3500 
L 697 3744 
Q 697 4328 969 4595 
Q 1241 4863 1831 4863 
L 2375 4863 
z
" transform="scale(0.015625)"/>
      <path id="DejaVuSans-37" d="M -19 4666 
L 3928 4666 
L 3928 4134 
L 2272 4134 
L 2272 0 
L 1638 0 
L 1638 4134 
L -19 4134 
L -19 4666 
z
" transform="scale(0.015625)"/>
      <path id="DejaVuSans-4a" d="M 2906 1791 
Q 2906 2416 2648 2759 
Q 2391 3103 1925 3103 
Q 1463 3103 1205 2759 
Q 947 2416 947 1791 
Q 947 1169 1205 825 
Q 1463 481 1925 481 
Q 2391 481 2648 825 
Q 2906 1169 2906 1791 
z
M 3481 434 
Q 3481 -459 3084 -895 
Q 2688 -1331 1869 -1331 
Q 1566 -1331 1297 -1286 
Q 1028 -1241 775 -1147 
L 775 -588 
Q 1028 -725 1275 -790 
Q 1522 -856 1778 -856 
Q 2344 -856 2625 -561 
Q 2906 -266 2906 331 
L 2906 616 
Q 2728 306 2450 153 
Q 2172 0 1784 0 
Q 1141 0 747 490 
Q 353 981 353 1791 
Q 353 2603 747 3093 
Q 1141 3584 1784 3584 
Q 2172 3584 2450 3431 
Q 2728 3278 2906 2969 
L 2906 3500 
L 3481 3500 
L 3481 434 
z
" transform="scale(0.015625)"/>
     </defs>
     <use xlink:href="#DejaVuSans-2c"/>
     <use xlink:href="#DejaVuSans-51" transform="translate(29.5 0)"/>
     <use xlink:href="#DejaVuSans-47" transform="translate(92.875 0)"/>
     <use xlink:href="#DejaVuSans-48" transform="translate(156.359375 0)"/>
     <use xlink:href="#DejaVuSans-53" transform="translate(217.890625 0)"/>
     <use xlink:href="#DejaVuSans-48" transform="translate(281.375 0)"/>
     <use xlink:href="#DejaVuSans-51" transform="translate(342.90625 0)"/>
     <use xlink:href="#DejaVuSans-47" transform="translate(406.28125 0)"/>
     <use xlink:href="#DejaVuSans-48" transform="translate(469.765625 0)"/>
     <use xlink:href="#DejaVuSans-51" transform="translate(531.296875 0)"/>
     <use xlink:href="#DejaVuSans-46" transform="translate(594.671875 0)"/>
     <use xlink:href="#DejaVuSans-48" transform="translate(649.65625 0)"/>
     <use xlink:href="#DejaVuSans-3" transform="translate(711.1875 0)"/>
     <use xlink:href="#DejaVuSans-52" transform="translate(742.96875 0)"/>
     <use xlink:href="#DejaVuSans-49" transform="translate(804.15625 0)"/>
     <use xlink:href="#DejaVuSans-3" transform="translate(839.359375 0)"/>
     <use xlink:href="#DejaVuSans-37" transform="translate(871.140625 0)"/>
     <use xlink:href="#DejaVuSans-52" transform="translate(915.234375 0)"/>
     <use xlink:href="#DejaVuSans-4a" transform="translate(976.421875 0)"/>
     <use xlink:href="#DejaVuSans-52" transform="translate(1039.90625 0)"/>
    </g>
   </g>
   <g id="text_15">
    <g id="patch_15">
     <path d="M 54.826562 46.415584 
L 181.965937 46.415584 
Q 185.265937 46.415584 185.265937 43.115584 
L 185.265937 32.114724 
Q 185.265937 28.814724 181.965937 28.814724 
L 54.826562 28.814724 
Q 51.526562 28.814724 51.526562 32.114724 
L 51.526562 43.115584 
Q 51.526562 46.415584 54.826562 46.415584 
z
" style="fill: #ffffff; stroke: #000000; stroke-width: 0.5; stroke-linejoin: miter"/>
    </g>
    <!-- Independence of Benin -->
    <g transform="translate(54.826562 40.473006) scale(0.11 -0.11)">
     <defs>
      <path id="DejaVuSans-25" d="M 1259 2228 
L 1259 519 
L 2272 519 
Q 2781 519 3026 730 
Q 3272 941 3272 1375 
Q 3272 1813 3026 2020 
Q 2781 2228 2272 2228 
L 1259 2228 
z
M 1259 4147 
L 1259 2741 
L 2194 2741 
Q 2656 2741 2882 2914 
Q 3109 3088 3109 3444 
Q 3109 3797 2882 3972 
Q 2656 4147 2194 4147 
L 1259 4147 
z
M 628 4666 
L 2241 4666 
Q 2963 4666 3353 4366 
Q 3744 4066 3744 3513 
Q 3744 3084 3544 2831 
Q 3344 2578 2956 2516 
Q 3422 2416 3680 2098 
Q 3938 1781 3938 1306 
Q 3938 681 3513 340 
Q 3088 0 2303 0 
L 628 0 
L 628 4666 
z
" transform="scale(0.015625)"/>
      <path id="DejaVuSans-4c" d="M 603 3500 
L 1178 3500 
L 1178 0 
L 603 0 
L 603 3500 
z
M 603 4863 
L 1178 4863 
L 1178 4134 
L 603 4134 
L 603 4863 
z
" transform="scale(0.015625)"/>
     </defs>
     <use xlink:href="#DejaVuSans-2c"/>
     <use xlink:href="#DejaVuSans-51" transform="translate(29.5 0)"/>
     <use xlink:href="#DejaVuSans-47" transform="translate(92.875 0)"/>
     <use xlink:href="#DejaVuSans-48" transform="translate(156.359375 0)"/>
     <use xlink:href="#DejaVuSans-53" transform="translate(217.890625 0)"/>
     <use xlink:href="#DejaVuSans-48" transform="translate(281.375 0)"/>
     <use xlink:href="#DejaVuSans-51" transform="translate(342.90625 0)"/>
     <use xlink:href="#DejaVuSans-47" transform="translate(406.28125 0)"/>
     <use xlink:href="#DejaVuSans-48" transform="translate(469.765625 0)"/>
     <use xlink:href="#DejaVuSans-51" transform="translate(531.296875 0)"/>
     <use xlink:href="#DejaVuSans-46" transform="translate(594.671875 0)"/>
     <use xlink:href="#DejaVuSans-48" transform="translate(649.65625 0)"/>
     <use xlink:href="#DejaVuSans-3" transform="translate(711.1875 0)"/>
     <use xlink:href="#DejaVuSans-52" transform="translate(742.96875 0)"/>
     <use xlink:href="#DejaVuSans-49" transform="translate(804.15625 0)"/>
     <use xlink:href="#DejaVuSans-3" transform="translate(839.359375 0)"/>
     <use xlink:href="#DejaVuSans-25" transform="translate(871.140625 0)"/>
     <use xlink:href="#DejaVuSans-48" transform="translate(939.75 0)"/>
     <use xlink:href="#DejaVuSans-51" transform="translate(1001.28125 0)"/>
     <use xlink:href="#DejaVuSans-4c" transform="translate(1064.65625 0)"/>
     <use xlink:href="#DejaVuSans-51" transform="translate(1092.4375 0)"/>
    </g>
   </g>
   <g id="text_16">
    <g id="patch_16">
     <path d="M 475.202301 71.820391 
L 568.178082 71.820391 
Q 571.478082 71.820391 571.478082 68.520391 
L 571.478082 57.519532 
Q 571.478082 54.219532 568.178082 54.219532 
L 475.202301 54.219532 
Q 471.902301 54.219532 471.902301 57.519532 
L 471.902301 68.520391 
Q 471.902301 71.820391 475.202301 71.820391 
z
" style="fill: #ffffff; stroke: #000000; stroke-width: 0.5; stroke-linejoin: miter"/>
    </g>
    <!-- Coup d'Etat Togo -->
    <g transform="translate(475.202301 65.877813) scale(0.11 -0.11)">
     <defs>
      <path id="DejaVuSans-26" d="M 4122 4306 
L 4122 3641 
Q 3803 3938 3442 4084 
Q 3081 4231 2675 4231 
Q 1875 4231 1450 3742 
Q 1025 3253 1025 2328 
Q 1025 1406 1450 917 
Q 1875 428 2675 428 
Q 3081 428 3442 575 
Q 3803 722 4122 1019 
L 4122 359 
Q 3791 134 3420 21 
Q 3050 -91 2638 -91 
Q 1578 -91 968 557 
Q 359 1206 359 2328 
Q 359 3453 968 4101 
Q 1578 4750 2638 4750 
Q 3056 4750 3426 4639 
Q 3797 4528 4122 4306 
z
" transform="scale(0.015625)"/>
      <path id="DejaVuSans-58" d="M 544 1381 
L 544 3500 
L 1119 3500 
L 1119 1403 
Q 1119 906 1312 657 
Q 1506 409 1894 409 
Q 2359 409 2629 706 
Q 2900 1003 2900 1516 
L 2900 3500 
L 3475 3500 
L 3475 0 
L 2900 0 
L 2900 538 
Q 2691 219 2414 64 
Q 2138 -91 1772 -91 
Q 1169 -91 856 284 
Q 544 659 544 1381 
z
M 1991 3584 
L 1991 3584 
z
" transform="scale(0.015625)"/>
      <path id="DejaVuSans-a" d="M 1147 4666 
L 1147 2931 
L 616 2931 
L 616 4666 
L 1147 4666 
z
" transform="scale(0.015625)"/>
      <path id="DejaVuSans-28" d="M 628 4666 
L 3578 4666 
L 3578 4134 
L 1259 4134 
L 1259 2753 
L 3481 2753 
L 3481 2222 
L 1259 2222 
L 1259 531 
L 3634 531 
L 3634 0 
L 628 0 
L 628 4666 
z
" transform="scale(0.015625)"/>
      <path id="DejaVuSans-57" d="M 1172 4494 
L 1172 3500 
L 2356 3500 
L 2356 3053 
L 1172 3053 
L 1172 1153 
Q 1172 725 1289 603 
Q 1406 481 1766 481 
L 2356 481 
L 2356 0 
L 1766 0 
Q 1100 0 847 248 
Q 594 497 594 1153 
L 594 3053 
L 172 3053 
L 172 3500 
L 594 3500 
L 594 4494 
L 1172 4494 
z
" transform="scale(0.015625)"/>
      <path id="DejaVuSans-44" d="M 2194 1759 
Q 1497 1759 1228 1600 
Q 959 1441 959 1056 
Q 959 750 1161 570 
Q 1363 391 1709 391 
Q 2188 391 2477 730 
Q 2766 1069 2766 1631 
L 2766 1759 
L 2194 1759 
z
M 3341 1997 
L 3341 0 
L 2766 0 
L 2766 531 
Q 2569 213 2275 61 
Q 1981 -91 1556 -91 
Q 1019 -91 701 211 
Q 384 513 384 1019 
Q 384 1609 779 1909 
Q 1175 2209 1959 2209 
L 2766 2209 
L 2766 2266 
Q 2766 2663 2505 2880 
Q 2244 3097 1772 3097 
Q 1472 3097 1187 3025 
Q 903 2953 641 2809 
L 641 3341 
Q 956 3463 1253 3523 
Q 1550 3584 1831 3584 
Q 2591 3584 2966 3190 
Q 3341 2797 3341 1997 
z
" transform="scale(0.015625)"/>
     </defs>
     <use xlink:href="#DejaVuSans-26"/>
     <use xlink:href="#DejaVuSans-52" transform="translate(69.828125 0)"/>
     <use xlink:href="#DejaVuSans-58" transform="translate(131.015625 0)"/>
     <use xlink:href="#DejaVuSans-53" transform="translate(194.390625 0)"/>
     <use xlink:href="#DejaVuSans-3" transform="translate(257.875 0)"/>
     <use xlink:href="#DejaVuSans-47" transform="translate(289.65625 0)"/>
     <use xlink:href="#DejaVuSans-a" transform="translate(353.140625 0)"/>
     <use xlink:href="#DejaVuSans-28" transform="translate(380.625 0)"/>
     <use xlink:href="#DejaVuSans-57" transform="translate(443.8125 0)"/>
     <use xlink:href="#DejaVuSans-44" transform="translate(483.015625 0)"/>
     <use xlink:href="#DejaVuSans-57" transform="translate(544.296875 0)"/>
     <use xlink:href="#DejaVuSans-3" transform="translate(583.5 0)"/>
     <use xlink:href="#DejaVuSans-37" transform="translate(615.28125 0)"/>
     <use xlink:href="#DejaVuSans-52" transform="translate(659.375 0)"/>
     <use xlink:href="#DejaVuSans-4a" transform="translate(720.5625 0)"/>
     <use xlink:href="#DejaVuSans-52" transform="translate(784.046875 0)"/>
    </g>
   </g>
   <g id="text_17">
    <g id="patch_17">
     <path d="M 475.202301 123.825278 
L 594.566051 123.825278 
Q 597.866051 123.825278 597.866051 120.525278 
L 597.866051 93.679262 
Q 597.866051 90.379262 594.566051 90.379262 
L 475.202301 90.379262 
Q 471.902301 90.379262 471.902301 93.679262 
L 471.902301 120.525278 
Q 471.902301 123.825278 475.202301 123.825278 
z
" style="fill: #ffffff; stroke: #000000; stroke-width: 0.5; stroke-linejoin: miter"/>
    </g>
    <!-- Gnassingbé Eyadéma -->
    <g transform="translate(475.202301 103.578618) scale(0.11 -0.11)">
     <defs>
      <path id="DejaVuSans-2a" d="M 3809 666 
L 3809 1919 
L 2778 1919 
L 2778 2438 
L 4434 2438 
L 4434 434 
Q 4069 175 3628 42 
Q 3188 -91 2688 -91 
Q 1594 -91 976 548 
Q 359 1188 359 2328 
Q 359 3472 976 4111 
Q 1594 4750 2688 4750 
Q 3144 4750 3555 4637 
Q 3966 4525 4313 4306 
L 4313 3634 
Q 3963 3931 3569 4081 
Q 3175 4231 2741 4231 
Q 1884 4231 1454 3753 
Q 1025 3275 1025 2328 
Q 1025 1384 1454 906 
Q 1884 428 2741 428 
Q 3075 428 3337 486 
Q 3600 544 3809 666 
z
" transform="scale(0.015625)"/>
      <path id="DejaVuSans-56" d="M 2834 3397 
L 2834 2853 
Q 2591 2978 2328 3040 
Q 2066 3103 1784 3103 
Q 1356 3103 1142 2972 
Q 928 2841 928 2578 
Q 928 2378 1081 2264 
Q 1234 2150 1697 2047 
L 1894 2003 
Q 2506 1872 2764 1633 
Q 3022 1394 3022 966 
Q 3022 478 2636 193 
Q 2250 -91 1575 -91 
Q 1294 -91 989 -36 
Q 684 19 347 128 
L 347 722 
Q 666 556 975 473 
Q 1284 391 1588 391 
Q 1994 391 2212 530 
Q 2431 669 2431 922 
Q 2431 1156 2273 1281 
Q 2116 1406 1581 1522 
L 1381 1569 
Q 847 1681 609 1914 
Q 372 2147 372 2553 
Q 372 3047 722 3315 
Q 1072 3584 1716 3584 
Q 2034 3584 2315 3537 
Q 2597 3491 2834 3397 
z
" transform="scale(0.015625)"/>
      <path id="DejaVuSans-45" d="M 3116 1747 
Q 3116 2381 2855 2742 
Q 2594 3103 2138 3103 
Q 1681 3103 1420 2742 
Q 1159 2381 1159 1747 
Q 1159 1113 1420 752 
Q 1681 391 2138 391 
Q 2594 391 2855 752 
Q 3116 1113 3116 1747 
z
M 1159 2969 
Q 1341 3281 1617 3432 
Q 1894 3584 2278 3584 
Q 2916 3584 3314 3078 
Q 3713 2572 3713 1747 
Q 3713 922 3314 415 
Q 2916 -91 2278 -91 
Q 1894 -91 1617 61 
Q 1341 213 1159 525 
L 1159 0 
L 581 0 
L 581 4863 
L 1159 4863 
L 1159 2969 
z
" transform="scale(0.015625)"/>
      <path id="DejaVuSans-ab" d="M 3597 1894 
L 3597 1613 
L 953 1613 
Q 991 1019 1311 708 
Q 1631 397 2203 397 
Q 2534 397 2845 478 
Q 3156 559 3463 722 
L 3463 178 
Q 3153 47 2828 -22 
Q 2503 -91 2169 -91 
Q 1331 -91 842 396 
Q 353 884 353 1716 
Q 353 2575 817 3079 
Q 1281 3584 2069 3584 
Q 2775 3584 3186 3129 
Q 3597 2675 3597 1894 
z
M 3022 2063 
Q 3016 2534 2758 2815 
Q 2500 3097 2075 3097 
Q 1594 3097 1305 2825 
Q 1016 2553 972 2059 
L 3022 2063 
z
M 2468 5119 
L 3090 5119 
L 2072 3944 
L 1593 3944 
L 2468 5119 
z
" transform="scale(0.015625)"/>
      <path id="DejaVuSans-5c" d="M 2059 -325 
Q 1816 -950 1584 -1140 
Q 1353 -1331 966 -1331 
L 506 -1331 
L 506 -850 
L 844 -850 
Q 1081 -850 1212 -737 
Q 1344 -625 1503 -206 
L 1606 56 
L 191 3500 
L 800 3500 
L 1894 763 
L 2988 3500 
L 3597 3500 
L 2059 -325 
z
" transform="scale(0.015625)"/>
      <path id="DejaVuSans-50" d="M 3328 2828 
Q 3544 3216 3844 3400 
Q 4144 3584 4550 3584 
Q 5097 3584 5394 3201 
Q 5691 2819 5691 2113 
L 5691 0 
L 5113 0 
L 5113 2094 
Q 5113 2597 4934 2840 
Q 4756 3084 4391 3084 
Q 3944 3084 3684 2787 
Q 3425 2491 3425 1978 
L 3425 0 
L 2847 0 
L 2847 2094 
Q 2847 2600 2669 2842 
Q 2491 3084 2119 3084 
Q 1678 3084 1418 2786 
Q 1159 2488 1159 1978 
L 1159 0 
L 581 0 
L 581 3500 
L 1159 3500 
L 1159 2956 
Q 1356 3278 1631 3431 
Q 1906 3584 2284 3584 
Q 2666 3584 2933 3390 
Q 3200 3197 3328 2828 
z
" transform="scale(0.015625)"/>
     </defs>
     <use xlink:href="#DejaVuSans-2a"/>
     <use xlink:href="#DejaVuSans-51" transform="translate(77.484375 0)"/>
     <use xlink:href="#DejaVuSans-44" transform="translate(140.859375 0)"/>
     <use xlink:href="#DejaVuSans-56" transform="translate(202.140625 0)"/>
     <use xlink:href="#DejaVuSans-56" transform="translate(254.234375 0)"/>
     <use xlink:href="#DejaVuSans-4c" transform="translate(306.328125 0)"/>
     <use xlink:href="#DejaVuSans-51" transform="translate(334.109375 0)"/>
     <use xlink:href="#DejaVuSans-4a" transform="translate(397.484375 0)"/>
     <use xlink:href="#DejaVuSans-45" transform="translate(460.96875 0)"/>
     <use xlink:href="#DejaVuSans-ab" transform="translate(524.453125 0)"/>
     <use xlink:href="#DejaVuSans-3" transform="translate(585.984375 0)"/>
     <use xlink:href="#DejaVuSans-28" transform="translate(617.765625 0)"/>
     <use xlink:href="#DejaVuSans-5c" transform="translate(680.953125 0)"/>
     <use xlink:href="#DejaVuSans-44" transform="translate(740.140625 0)"/>
     <use xlink:href="#DejaVuSans-47" transform="translate(801.421875 0)"/>
     <use xlink:href="#DejaVuSans-ab" transform="translate(864.90625 0)"/>
     <use xlink:href="#DejaVuSans-50" transform="translate(926.4375 0)"/>
     <use xlink:href="#DejaVuSans-44" transform="translate(1023.84375 0)"/>
    </g>
    <!-- seizes power -->
    <g transform="translate(475.202301 116.781626) scale(0.11 -0.11)">
     <defs>
      <path id="DejaVuSans-5d" d="M 353 3500 
L 3084 3500 
L 3084 2975 
L 922 459 
L 3084 459 
L 3084 0 
L 275 0 
L 275 525 
L 2438 3041 
L 353 3041 
L 353 3500 
z
" transform="scale(0.015625)"/>
      <path id="DejaVuSans-5a" d="M 269 3500 
L 844 3500 
L 1563 769 
L 2278 3500 
L 2956 3500 
L 3675 769 
L 4391 3500 
L 4966 3500 
L 4050 0 
L 3372 0 
L 2619 2869 
L 1863 0 
L 1184 0 
L 269 3500 
z
" transform="scale(0.015625)"/>
      <path id="DejaVuSans-55" d="M 2631 2963 
Q 2534 3019 2420 3045 
Q 2306 3072 2169 3072 
Q 1681 3072 1420 2755 
Q 1159 2438 1159 1844 
L 1159 0 
L 581 0 
L 581 3500 
L 1159 3500 
L 1159 2956 
Q 1341 3275 1631 3429 
Q 1922 3584 2338 3584 
Q 2397 3584 2469 3576 
Q 2541 3569 2628 3553 
L 2631 2963 
z
" transform="scale(0.015625)"/>
     </defs>
     <use xlink:href="#DejaVuSans-56"/>
     <use xlink:href="#DejaVuSans-48" transform="translate(52.09375 0)"/>
     <use xlink:href="#DejaVuSans-4c" transform="translate(113.625 0)"/>
     <use xlink:href="#DejaVuSans-5d" transform="translate(141.40625 0)"/>
     <use xlink:href="#DejaVuSans-48" transform="translate(193.890625 0)"/>
     <use xlink:href="#DejaVuSans-56" transform="translate(255.421875 0)"/>
     <use xlink:href="#DejaVuSans-3" transform="translate(307.515625 0)"/>
     <use xlink:href="#DejaVuSans-53" transform="translate(339.296875 0)"/>
     <use xlink:href="#DejaVuSans-52" transform="translate(402.78125 0)"/>
     <use xlink:href="#DejaVuSans-5a" transform="translate(463.96875 0)"/>
     <use xlink:href="#DejaVuSans-48" transform="translate(545.75 0)"/>
     <use xlink:href="#DejaVuSans-55" transform="translate(607.28125 0)"/>
    </g>
   </g>
   <g id="text_18">
    <g id="patch_18">
     <path d="M 203.139375 137.106489 
L 289.485938 137.106489 
Q 292.785938 137.106489 292.785938 133.806489 
L 292.785938 122.80563 
Q 292.785938 119.50563 289.485938 119.50563 
L 203.139375 119.50563 
Q 199.839375 119.50563 199.839375 122.80563 
L 199.839375 133.806489 
Q 199.839375 137.106489 203.139375 137.106489 
z
" style="fill: #ffffff; stroke: #000000; stroke-width: 0.5; stroke-linejoin: miter"/>
    </g>
    <!-- Dahomean May -->
    <g transform="translate(203.139375 131.163911) scale(0.11 -0.11)">
     <defs>
      <path id="DejaVuSans-27" d="M 1259 4147 
L 1259 519 
L 2022 519 
Q 2988 519 3436 956 
Q 3884 1394 3884 2338 
Q 3884 3275 3436 3711 
Q 2988 4147 2022 4147 
L 1259 4147 
z
M 628 4666 
L 1925 4666 
Q 3281 4666 3915 4102 
Q 4550 3538 4550 2338 
Q 4550 1131 3912 565 
Q 3275 0 1925 0 
L 628 0 
L 628 4666 
z
" transform="scale(0.015625)"/>
      <path id="DejaVuSans-4b" d="M 3513 2113 
L 3513 0 
L 2938 0 
L 2938 2094 
Q 2938 2591 2744 2837 
Q 2550 3084 2163 3084 
Q 1697 3084 1428 2787 
Q 1159 2491 1159 1978 
L 1159 0 
L 581 0 
L 581 4863 
L 1159 4863 
L 1159 2956 
Q 1366 3272 1645 3428 
Q 1925 3584 2291 3584 
Q 2894 3584 3203 3211 
Q 3513 2838 3513 2113 
z
" transform="scale(0.015625)"/>
      <path id="DejaVuSans-30" d="M 628 4666 
L 1569 4666 
L 2759 1491 
L 3956 4666 
L 4897 4666 
L 4897 0 
L 4281 0 
L 4281 4097 
L 3078 897 
L 2444 897 
L 1241 4097 
L 1241 0 
L 628 0 
L 628 4666 
z
" transform="scale(0.015625)"/>
     </defs>
     <use xlink:href="#DejaVuSans-27"/>
     <use xlink:href="#DejaVuSans-44" transform="translate(77 0)"/>
     <use xlink:href="#DejaVuSans-4b" transform="translate(138.28125 0)"/>
     <use xlink:href="#DejaVuSans-52" transform="translate(201.65625 0)"/>
     <use xlink:href="#DejaVuSans-50" transform="translate(262.84375 0)"/>
     <use xlink:href="#DejaVuSans-48" transform="translate(360.25 0)"/>
     <use xlink:href="#DejaVuSans-44" transform="translate(421.78125 0)"/>
     <use xlink:href="#DejaVuSans-51" transform="translate(483.0625 0)"/>
     <use xlink:href="#DejaVuSans-3" transform="translate(546.4375 0)"/>
     <use xlink:href="#DejaVuSans-30" transform="translate(578.21875 0)"/>
     <use xlink:href="#DejaVuSans-44" transform="translate(664.5 0)"/>
     <use xlink:href="#DejaVuSans-5c" transform="translate(725.78125 0)"/>
    </g>
   </g>
   <g id="text_19">
    <g id="patch_19">
     <path d="M 7.2 150.646258 
L 181.965937 150.646258 
Q 185.265937 150.646258 185.265937 147.346258 
L 185.265937 136.345398 
Q 185.265937 133.045398 181.965937 133.045398 
L 7.2 133.045398 
Q 3.9 133.045398 3.9 136.345398 
L 3.9 147.346258 
Q 3.9 150.646258 7.2 150.646258 
z
" style="fill: #ffffff; stroke: #000000; stroke-width: 0.5; stroke-linejoin: miter"/>
    </g>
    <!-- University of Dahomey founded -->
    <g transform="translate(7.2 144.70368) scale(0.11 -0.11)">
     <defs>
      <path id="DejaVuSans-38" d="M 556 4666 
L 1191 4666 
L 1191 1831 
Q 1191 1081 1462 751 
Q 1734 422 2344 422 
Q 2950 422 3222 751 
Q 3494 1081 3494 1831 
L 3494 4666 
L 4128 4666 
L 4128 1753 
Q 4128 841 3676 375 
Q 3225 -91 2344 -91 
Q 1459 -91 1007 375 
Q 556 841 556 1753 
L 556 4666 
z
" transform="scale(0.015625)"/>
      <path id="DejaVuSans-59" d="M 191 3500 
L 800 3500 
L 1894 563 
L 2988 3500 
L 3597 3500 
L 2284 0 
L 1503 0 
L 191 3500 
z
" transform="scale(0.015625)"/>
     </defs>
     <use xlink:href="#DejaVuSans-38"/>
     <use xlink:href="#DejaVuSans-51" transform="translate(73.1875 0)"/>
     <use xlink:href="#DejaVuSans-4c" transform="translate(136.5625 0)"/>
     <use xlink:href="#DejaVuSans-59" transform="translate(164.34375 0)"/>
     <use xlink:href="#DejaVuSans-48" transform="translate(223.53125 0)"/>
     <use xlink:href="#DejaVuSans-55" transform="translate(285.0625 0)"/>
     <use xlink:href="#DejaVuSans-56" transform="translate(326.171875 0)"/>
     <use xlink:href="#DejaVuSans-4c" transform="translate(378.265625 0)"/>
     <use xlink:href="#DejaVuSans-57" transform="translate(406.046875 0)"/>
     <use xlink:href="#DejaVuSans-5c" transform="translate(445.25 0)"/>
     <use xlink:href="#DejaVuSans-3" transform="translate(504.4375 0)"/>
     <use xlink:href="#DejaVuSans-52" transform="translate(536.21875 0)"/>
     <use xlink:href="#DejaVuSans-49" transform="translate(597.40625 0)"/>
     <use xlink:href="#DejaVuSans-3" transform="translate(632.609375 0)"/>
     <use xlink:href="#DejaVuSans-27" transform="translate(664.390625 0)"/>
     <use xlink:href="#DejaVuSans-44" transform="translate(741.390625 0)"/>
     <use xlink:href="#DejaVuSans-4b" transform="translate(802.671875 0)"/>
     <use xlink:href="#DejaVuSans-52" transform="translate(866.046875 0)"/>
     <use xlink:href="#DejaVuSans-50" transform="translate(927.234375 0)"/>
     <use xlink:href="#DejaVuSans-48" transform="translate(1024.640625 0)"/>
     <use xlink:href="#DejaVuSans-5c" transform="translate(1086.171875 0)"/>
     <use xlink:href="#DejaVuSans-3" transform="translate(1145.359375 0)"/>
     <use xlink:href="#DejaVuSans-49" transform="translate(1177.140625 0)"/>
     <use xlink:href="#DejaVuSans-52" transform="translate(1212.34375 0)"/>
     <use xlink:href="#DejaVuSans-58" transform="translate(1273.53125 0)"/>
     <use xlink:href="#DejaVuSans-51" transform="translate(1336.90625 0)"/>
     <use xlink:href="#DejaVuSans-47" transform="translate(1400.28125 0)"/>
     <use xlink:href="#DejaVuSans-48" transform="translate(1463.765625 0)"/>
     <use xlink:href="#DejaVuSans-47" transform="translate(1525.296875 0)"/>
    </g>
   </g>
   <g id="text_20">
    <g id="patch_20">
     <path d="M 426.329574 151.327504 
L 579.502855 151.327504 
Q 582.802855 151.327504 582.802855 148.027504 
L 582.802855 137.026645 
Q 582.802855 133.726645 579.502855 133.726645 
L 426.329574 133.726645 
Q 423.029574 133.726645 423.029574 137.026645 
L 423.029574 148.027504 
Q 423.029574 151.327504 426.329574 151.327504 
z
" style="fill: #ffffff; stroke: #000000; stroke-width: 0.5; stroke-linejoin: miter"/>
    </g>
    <!-- University of Benin founded -->
    <g transform="translate(426.329574 145.384926) scale(0.11 -0.11)">
     <use xlink:href="#DejaVuSans-38"/>
     <use xlink:href="#DejaVuSans-51" transform="translate(73.1875 0)"/>
     <use xlink:href="#DejaVuSans-4c" transform="translate(136.5625 0)"/>
     <use xlink:href="#DejaVuSans-59" transform="translate(164.34375 0)"/>
     <use xlink:href="#DejaVuSans-48" transform="translate(223.53125 0)"/>
     <use xlink:href="#DejaVuSans-55" transform="translate(285.0625 0)"/>
     <use xlink:href="#DejaVuSans-56" transform="translate(326.171875 0)"/>
     <use xlink:href="#DejaVuSans-4c" transform="translate(378.265625 0)"/>
     <use xlink:href="#DejaVuSans-57" transform="translate(406.046875 0)"/>
     <use xlink:href="#DejaVuSans-5c" transform="translate(445.25 0)"/>
     <use xlink:href="#DejaVuSans-3" transform="translate(504.4375 0)"/>
     <use xlink:href="#DejaVuSans-52" transform="translate(536.21875 0)"/>
     <use xlink:href="#DejaVuSans-49" transform="translate(597.40625 0)"/>
     <use xlink:href="#DejaVuSans-3" transform="translate(632.609375 0)"/>
     <use xlink:href="#DejaVuSans-25" transform="translate(664.390625 0)"/>
     <use xlink:href="#DejaVuSans-48" transform="translate(733 0)"/>
     <use xlink:href="#DejaVuSans-51" transform="translate(794.53125 0)"/>
     <use xlink:href="#DejaVuSans-4c" transform="translate(857.90625 0)"/>
     <use xlink:href="#DejaVuSans-51" transform="translate(885.6875 0)"/>
     <use xlink:href="#DejaVuSans-3" transform="translate(949.0625 0)"/>
     <use xlink:href="#DejaVuSans-49" transform="translate(980.84375 0)"/>
     <use xlink:href="#DejaVuSans-52" transform="translate(1016.046875 0)"/>
     <use xlink:href="#DejaVuSans-58" transform="translate(1077.234375 0)"/>
     <use xlink:href="#DejaVuSans-51" transform="translate(1140.609375 0)"/>
     <use xlink:href="#DejaVuSans-47" transform="translate(1203.984375 0)"/>
     <use xlink:href="#DejaVuSans-48" transform="translate(1267.46875 0)"/>
     <use xlink:href="#DejaVuSans-47" transform="translate(1329 0)"/>
    </g>
   </g>
   <g id="text_21">
    <g id="patch_21">
     <path d="M 357.907756 165.974298 
L 504.139006 165.974298 
Q 507.439006 165.974298 507.439006 162.674298 
L 507.439006 151.673439 
Q 507.439006 148.373439 504.139006 148.373439 
L 357.907756 148.373439 
Q 354.607756 148.373439 354.607756 151.673439 
L 354.607756 162.674298 
Q 354.607756 165.974298 357.907756 165.974298 
z
" style="fill: #ffffff; stroke: #000000; stroke-width: 0.5; stroke-linejoin: miter"/>
    </g>
    <!-- Youth associations banned -->
    <g transform="translate(357.907756 160.03172) scale(0.11 -0.11)">
     <defs>
      <path id="DejaVuSans-3c" d="M -13 4666 
L 666 4666 
L 1959 2747 
L 3244 4666 
L 3922 4666 
L 2272 2222 
L 2272 0 
L 1638 0 
L 1638 2222 
L -13 4666 
z
" transform="scale(0.015625)"/>
     </defs>
     <use xlink:href="#DejaVuSans-3c"/>
     <use xlink:href="#DejaVuSans-52" transform="translate(47.796875 0)"/>
     <use xlink:href="#DejaVuSans-58" transform="translate(108.984375 0)"/>
     <use xlink:href="#DejaVuSans-57" transform="translate(172.359375 0)"/>
     <use xlink:href="#DejaVuSans-4b" transform="translate(211.5625 0)"/>
     <use xlink:href="#DejaVuSans-3" transform="translate(274.9375 0)"/>
     <use xlink:href="#DejaVuSans-44" transform="translate(306.71875 0)"/>
     <use xlink:href="#DejaVuSans-56" transform="translate(368 0)"/>
     <use xlink:href="#DejaVuSans-56" transform="translate(420.09375 0)"/>
     <use xlink:href="#DejaVuSans-52" transform="translate(472.1875 0)"/>
     <use xlink:href="#DejaVuSans-46" transform="translate(533.375 0)"/>
     <use xlink:href="#DejaVuSans-4c" transform="translate(588.359375 0)"/>
     <use xlink:href="#DejaVuSans-44" transform="translate(616.140625 0)"/>
     <use xlink:href="#DejaVuSans-57" transform="translate(677.421875 0)"/>
     <use xlink:href="#DejaVuSans-4c" transform="translate(716.625 0)"/>
     <use xlink:href="#DejaVuSans-52" transform="translate(744.40625 0)"/>
     <use xlink:href="#DejaVuSans-51" transform="translate(805.59375 0)"/>
     <use xlink:href="#DejaVuSans-56" transform="translate(868.96875 0)"/>
     <use xlink:href="#DejaVuSans-3" transform="translate(921.0625 0)"/>
     <use xlink:href="#DejaVuSans-45" transform="translate(952.84375 0)"/>
     <use xlink:href="#DejaVuSans-44" transform="translate(1016.328125 0)"/>
     <use xlink:href="#DejaVuSans-51" transform="translate(1077.609375 0)"/>
     <use xlink:href="#DejaVuSans-51" transform="translate(1140.984375 0)"/>
     <use xlink:href="#DejaVuSans-48" transform="translate(1204.359375 0)"/>
     <use xlink:href="#DejaVuSans-47" transform="translate(1265.890625 0)"/>
    </g>
   </g>
   <g id="text_22">
    <g id="patch_22">
     <path d="M 15.178438 173.48931 
L 181.965937 173.48931 
Q 185.265937 173.48931 185.265937 170.18931 
L 185.265937 158.748451 
Q 185.265937 155.448451 181.965937 155.448451 
L 15.178438 155.448451 
Q 11.878438 155.448451 11.878438 158.748451 
L 11.878438 170.18931 
Q 11.878438 173.48931 15.178438 173.48931 
z
" style="fill: #ffffff; stroke: #000000; stroke-width: 0.5; stroke-linejoin: miter"/>
    </g>
    <!-- Mathieu Kérékou seizes power -->
    <g transform="translate(15.178438 167.546732) scale(0.11 -0.11)">
     <defs>
      <path id="DejaVuSans-2e" d="M 628 4666 
L 1259 4666 
L 1259 2694 
L 3353 4666 
L 4166 4666 
L 1850 2491 
L 4331 0 
L 3500 0 
L 1259 2247 
L 1259 0 
L 628 0 
L 628 4666 
z
" transform="scale(0.015625)"/>
      <path id="DejaVuSans-4e" d="M 581 4863 
L 1159 4863 
L 1159 1991 
L 2875 3500 
L 3609 3500 
L 1753 1863 
L 3688 0 
L 2938 0 
L 1159 1709 
L 1159 0 
L 581 0 
L 581 4863 
z
" transform="scale(0.015625)"/>
     </defs>
     <use xlink:href="#DejaVuSans-30"/>
     <use xlink:href="#DejaVuSans-44" transform="translate(86.28125 0)"/>
     <use xlink:href="#DejaVuSans-57" transform="translate(147.5625 0)"/>
     <use xlink:href="#DejaVuSans-4b" transform="translate(186.765625 0)"/>
     <use xlink:href="#DejaVuSans-4c" transform="translate(250.140625 0)"/>
     <use xlink:href="#DejaVuSans-48" transform="translate(277.921875 0)"/>
     <use xlink:href="#DejaVuSans-58" transform="translate(339.453125 0)"/>
     <use xlink:href="#DejaVuSans-3" transform="translate(402.828125 0)"/>
     <use xlink:href="#DejaVuSans-2e" transform="translate(434.609375 0)"/>
     <use xlink:href="#DejaVuSans-ab" transform="translate(495.203125 0)"/>
     <use xlink:href="#DejaVuSans-55" transform="translate(556.734375 0)"/>
     <use xlink:href="#DejaVuSans-ab" transform="translate(595.640625 0)"/>
     <use xlink:href="#DejaVuSans-4e" transform="translate(657.171875 0)"/>
     <use xlink:href="#DejaVuSans-52" transform="translate(711.515625 0)"/>
     <use xlink:href="#DejaVuSans-58" transform="translate(772.703125 0)"/>
     <use xlink:href="#DejaVuSans-3" transform="translate(836.078125 0)"/>
     <use xlink:href="#DejaVuSans-56" transform="translate(867.859375 0)"/>
     <use xlink:href="#DejaVuSans-48" transform="translate(919.953125 0)"/>
     <use xlink:href="#DejaVuSans-4c" transform="translate(981.484375 0)"/>
     <use xlink:href="#DejaVuSans-5d" transform="translate(1009.265625 0)"/>
     <use xlink:href="#DejaVuSans-48" transform="translate(1061.75 0)"/>
     <use xlink:href="#DejaVuSans-56" transform="translate(1123.28125 0)"/>
     <use xlink:href="#DejaVuSans-3" transform="translate(1175.375 0)"/>
     <use xlink:href="#DejaVuSans-53" transform="translate(1207.15625 0)"/>
     <use xlink:href="#DejaVuSans-52" transform="translate(1270.640625 0)"/>
     <use xlink:href="#DejaVuSans-5a" transform="translate(1331.828125 0)"/>
     <use xlink:href="#DejaVuSans-48" transform="translate(1413.609375 0)"/>
     <use xlink:href="#DejaVuSans-55" transform="translate(1475.140625 0)"/>
    </g>
   </g>
   <g id="text_23">
    <g id="patch_23">
     <path d="M 475.202301 184.595029 
L 620.113551 184.595029 
Q 623.413551 184.595029 623.413551 181.295029 
L 623.413551 170.294169 
Q 623.413551 166.994169 620.113551 166.994169 
L 475.202301 166.994169 
Q 471.902301 166.994169 471.902301 170.294169 
L 471.902301 181.295029 
Q 471.902301 184.595029 475.202301 184.595029 
z
" style="fill: #ffffff; stroke: #000000; stroke-width: 0.5; stroke-linejoin: miter"/>
    </g>
    <!-- Official inauguration of UB -->
    <g transform="translate(475.202301 178.65245) scale(0.11 -0.11)">
     <defs>
      <path id="DejaVuSans-32" d="M 2522 4238 
Q 1834 4238 1429 3725 
Q 1025 3213 1025 2328 
Q 1025 1447 1429 934 
Q 1834 422 2522 422 
Q 3209 422 3611 934 
Q 4013 1447 4013 2328 
Q 4013 3213 3611 3725 
Q 3209 4238 2522 4238 
z
M 2522 4750 
Q 3503 4750 4090 4092 
Q 4678 3434 4678 2328 
Q 4678 1225 4090 567 
Q 3503 -91 2522 -91 
Q 1538 -91 948 565 
Q 359 1222 359 2328 
Q 359 3434 948 4092 
Q 1538 4750 2522 4750 
z
" transform="scale(0.015625)"/>
      <path id="DejaVuSans-13b1" d="M 2375 4863 
L 2375 4384 
L 1825 4384 
Q 1516 4384 1394 4259 
Q 1275 4134 1275 3809 
L 1275 3500 
L 2853 3500 
L 2853 3744 
Q 2853 4328 3125 4594 
Q 3213 4681 3334 4741 
Q 3578 4863 3988 4863 
L 4531 4863 
L 4531 4384 
L 3981 4384 
Q 3672 4384 3551 4259 
Q 3431 4134 3431 3809 
L 3431 3500 
L 5588 3500 
L 5588 0 
L 5009 0 
L 5009 3053 
L 3431 3053 
L 3431 0 
L 2853 0 
L 2853 3053 
L 1275 3053 
L 1275 0 
L 697 0 
L 697 3053 
L 147 3053 
L 147 3500 
L 697 3500 
L 697 3744 
Q 697 4328 969 4595 
Q 1241 4863 1831 4863 
L 2375 4863 
z
M 5009 4856 
L 5588 4856 
L 5588 4128 
L 5009 4128 
L 5009 4856 
z
" transform="scale(0.015625)"/>
      <path id="DejaVuSans-4f" d="M 603 4863 
L 1178 4863 
L 1178 0 
L 603 0 
L 603 4863 
z
" transform="scale(0.015625)"/>
     </defs>
     <use xlink:href="#DejaVuSans-32"/>
     <use xlink:href="#DejaVuSans-13b1" transform="translate(78.71875 0)"/>
     <use xlink:href="#DejaVuSans-46" transform="translate(175.40625 0)"/>
     <use xlink:href="#DejaVuSans-4c" transform="translate(230.390625 0)"/>
     <use xlink:href="#DejaVuSans-44" transform="translate(258.171875 0)"/>
     <use xlink:href="#DejaVuSans-4f" transform="translate(319.453125 0)"/>
     <use xlink:href="#DejaVuSans-3" transform="translate(347.234375 0)"/>
     <use xlink:href="#DejaVuSans-4c" transform="translate(379.015625 0)"/>
     <use xlink:href="#DejaVuSans-51" transform="translate(406.796875 0)"/>
     <use xlink:href="#DejaVuSans-44" transform="translate(470.171875 0)"/>
     <use xlink:href="#DejaVuSans-58" transform="translate(531.453125 0)"/>
     <use xlink:href="#DejaVuSans-4a" transform="translate(594.828125 0)"/>
     <use xlink:href="#DejaVuSans-58" transform="translate(658.3125 0)"/>
     <use xlink:href="#DejaVuSans-55" transform="translate(721.6875 0)"/>
     <use xlink:href="#DejaVuSans-44" transform="translate(762.796875 0)"/>
     <use xlink:href="#DejaVuSans-57" transform="translate(824.078125 0)"/>
     <use xlink:href="#DejaVuSans-4c" transform="translate(863.28125 0)"/>
     <use xlink:href="#DejaVuSans-52" transform="translate(891.0625 0)"/>
     <use xlink:href="#DejaVuSans-51" transform="translate(952.25 0)"/>
     <use xlink:href="#DejaVuSans-3" transform="translate(1015.625 0)"/>
     <use xlink:href="#DejaVuSans-52" transform="translate(1047.40625 0)"/>
     <use xlink:href="#DejaVuSans-49" transform="translate(1108.59375 0)"/>
     <use xlink:href="#DejaVuSans-3" transform="translate(1143.796875 0)"/>
     <use xlink:href="#DejaVuSans-38" transform="translate(1175.578125 0)"/>
     <use xlink:href="#DejaVuSans-25" transform="translate(1248.765625 0)"/>
    </g>
   </g>
   <g id="text_24">
    <g id="patch_24">
     <path d="M 367.682301 208.064348 
L 448.82277 208.064348 
Q 452.12277 208.064348 452.12277 204.764348 
L 452.12277 176.515832 
Q 452.12277 173.215832 448.82277 173.215832 
L 367.682301 173.215832 
Q 364.382301 173.215832 364.382301 176.515832 
L 364.382301 204.764348 
Q 364.382301 208.064348 367.682301 208.064348 
z
" style="fill: #ffffff; stroke: #000000; stroke-width: 0.5; stroke-linejoin: miter"/>
    </g>
    <!-- École Nouvelle -->
    <g transform="translate(367.682301 187.817687) scale(0.11 -0.11)">
     <defs>
      <path id="DejaVuSans-8b" d="M 628 4666 
L 3578 4666 
L 3578 4134 
L 1259 4134 
L 1259 2753 
L 3481 2753 
L 3481 2222 
L 1259 2222 
L 1259 531 
L 3634 531 
L 3634 0 
L 628 0 
L 628 4666 
z
M 2266 5935 
L 2844 5935 
L 2131 5110 
L 1653 5110 
L 2266 5935 
z
" transform="scale(0.015625)"/>
      <path id="DejaVuSans-31" d="M 628 4666 
L 1478 4666 
L 3547 763 
L 3547 4666 
L 4159 4666 
L 4159 0 
L 3309 0 
L 1241 3903 
L 1241 0 
L 628 0 
L 628 4666 
z
" transform="scale(0.015625)"/>
     </defs>
     <use xlink:href="#DejaVuSans-8b"/>
     <use xlink:href="#DejaVuSans-46" transform="translate(63.1875 0)"/>
     <use xlink:href="#DejaVuSans-52" transform="translate(118.171875 0)"/>
     <use xlink:href="#DejaVuSans-4f" transform="translate(179.359375 0)"/>
     <use xlink:href="#DejaVuSans-48" transform="translate(207.140625 0)"/>
     <use xlink:href="#DejaVuSans-3" transform="translate(268.671875 0)"/>
     <use xlink:href="#DejaVuSans-31" transform="translate(300.453125 0)"/>
     <use xlink:href="#DejaVuSans-52" transform="translate(375.265625 0)"/>
     <use xlink:href="#DejaVuSans-58" transform="translate(436.453125 0)"/>
     <use xlink:href="#DejaVuSans-59" transform="translate(499.828125 0)"/>
     <use xlink:href="#DejaVuSans-48" transform="translate(559.015625 0)"/>
     <use xlink:href="#DejaVuSans-4f" transform="translate(620.546875 0)"/>
     <use xlink:href="#DejaVuSans-4f" transform="translate(648.328125 0)"/>
     <use xlink:href="#DejaVuSans-48" transform="translate(676.109375 0)"/>
    </g>
    <!-- reform -->
    <g transform="translate(367.682301 201.020695) scale(0.11 -0.11)">
     <use xlink:href="#DejaVuSans-55"/>
     <use xlink:href="#DejaVuSans-48" transform="translate(38.90625 0)"/>
     <use xlink:href="#DejaVuSans-49" transform="translate(100.4375 0)"/>
     <use xlink:href="#DejaVuSans-52" transform="translate(135.640625 0)"/>
     <use xlink:href="#DejaVuSans-55" transform="translate(196.828125 0)"/>
     <use xlink:href="#DejaVuSans-50" transform="translate(236.1875 0)"/>
    </g>
   </g>
   <g id="text_25">
    <g id="patch_25">
     <path d="M 208.345469 208.802364 
L 289.485938 208.802364 
Q 292.785938 208.802364 292.785938 205.502364 
L 292.785938 177.253849 
Q 292.785938 173.953849 289.485938 173.953849 
L 208.345469 173.953849 
Q 205.045469 173.953849 205.045469 177.253849 
L 205.045469 205.502364 
Q 205.045469 208.802364 208.345469 208.802364 
z
" style="fill: #ffffff; stroke: #000000; stroke-width: 0.5; stroke-linejoin: miter"/>
    </g>
    <!-- École Nouvelle -->
    <g transform="translate(208.345469 188.555704) scale(0.11 -0.11)">
     <use xlink:href="#DejaVuSans-8b"/>
     <use xlink:href="#DejaVuSans-46" transform="translate(63.1875 0)"/>
     <use xlink:href="#DejaVuSans-52" transform="translate(118.171875 0)"/>
     <use xlink:href="#DejaVuSans-4f" transform="translate(179.359375 0)"/>
     <use xlink:href="#DejaVuSans-48" transform="translate(207.140625 0)"/>
     <use xlink:href="#DejaVuSans-3" transform="translate(268.671875 0)"/>
     <use xlink:href="#DejaVuSans-31" transform="translate(300.453125 0)"/>
     <use xlink:href="#DejaVuSans-52" transform="translate(375.265625 0)"/>
     <use xlink:href="#DejaVuSans-58" transform="translate(436.453125 0)"/>
     <use xlink:href="#DejaVuSans-59" transform="translate(499.828125 0)"/>
     <use xlink:href="#DejaVuSans-48" transform="translate(559.015625 0)"/>
     <use xlink:href="#DejaVuSans-4f" transform="translate(620.546875 0)"/>
     <use xlink:href="#DejaVuSans-4f" transform="translate(648.328125 0)"/>
     <use xlink:href="#DejaVuSans-48" transform="translate(676.109375 0)"/>
    </g>
    <!-- reform -->
    <g transform="translate(252.790625 201.758712) scale(0.11 -0.11)">
     <use xlink:href="#DejaVuSans-55"/>
     <use xlink:href="#DejaVuSans-48" transform="translate(38.90625 0)"/>
     <use xlink:href="#DejaVuSans-49" transform="translate(100.4375 0)"/>
     <use xlink:href="#DejaVuSans-52" transform="translate(135.640625 0)"/>
     <use xlink:href="#DejaVuSans-55" transform="translate(196.828125 0)"/>
     <use xlink:href="#DejaVuSans-50" transform="translate(236.1875 0)"/>
    </g>
   </g>
   <g id="text_26">
    <g id="patch_26">
     <path d="M 77.569063 219.648736 
L 181.965937 219.648736 
Q 185.265938 219.648736 185.265938 216.348736 
L 185.265938 176.739712 
Q 185.265938 173.439712 181.965937 173.439712 
L 77.569063 173.439712 
Q 74.269063 173.439712 74.269063 176.739712 
L 74.269063 216.348736 
Q 74.269063 219.648736 77.569063 219.648736 
z
" style="fill: #ffffff; stroke: #000000; stroke-width: 0.5; stroke-linejoin: miter"/>
    </g>
    <!-- UDahomey -->
    <g transform="translate(121.00875 186.199068) scale(0.11 -0.11)">
     <use xlink:href="#DejaVuSans-38"/>
     <use xlink:href="#DejaVuSans-27" transform="translate(73.1875 0)"/>
     <use xlink:href="#DejaVuSans-44" transform="translate(150.1875 0)"/>
     <use xlink:href="#DejaVuSans-4b" transform="translate(211.46875 0)"/>
     <use xlink:href="#DejaVuSans-52" transform="translate(274.84375 0)"/>
     <use xlink:href="#DejaVuSans-50" transform="translate(336.03125 0)"/>
     <use xlink:href="#DejaVuSans-48" transform="translate(433.4375 0)"/>
     <use xlink:href="#DejaVuSans-5c" transform="translate(494.96875 0)"/>
    </g>
    <!-- renamed National -->
    <g transform="translate(83.405937 199.402075) scale(0.11 -0.11)">
     <use xlink:href="#DejaVuSans-55"/>
     <use xlink:href="#DejaVuSans-48" transform="translate(38.90625 0)"/>
     <use xlink:href="#DejaVuSans-51" transform="translate(100.4375 0)"/>
     <use xlink:href="#DejaVuSans-44" transform="translate(163.8125 0)"/>
     <use xlink:href="#DejaVuSans-50" transform="translate(225.09375 0)"/>
     <use xlink:href="#DejaVuSans-48" transform="translate(322.5 0)"/>
     <use xlink:href="#DejaVuSans-47" transform="translate(384.03125 0)"/>
     <use xlink:href="#DejaVuSans-3" transform="translate(447.515625 0)"/>
     <use xlink:href="#DejaVuSans-31" transform="translate(479.296875 0)"/>
     <use xlink:href="#DejaVuSans-44" transform="translate(554.109375 0)"/>
     <use xlink:href="#DejaVuSans-57" transform="translate(615.390625 0)"/>
     <use xlink:href="#DejaVuSans-4c" transform="translate(654.59375 0)"/>
     <use xlink:href="#DejaVuSans-52" transform="translate(682.375 0)"/>
     <use xlink:href="#DejaVuSans-51" transform="translate(743.5625 0)"/>
     <use xlink:href="#DejaVuSans-44" transform="translate(806.9375 0)"/>
     <use xlink:href="#DejaVuSans-4f" transform="translate(868.21875 0)"/>
    </g>
    <!-- University of Benin -->
    <g transform="translate(77.569063 212.605083) scale(0.11 -0.11)">
     <use xlink:href="#DejaVuSans-38"/>
     <use xlink:href="#DejaVuSans-51" transform="translate(73.1875 0)"/>
     <use xlink:href="#DejaVuSans-4c" transform="translate(136.5625 0)"/>
     <use xlink:href="#DejaVuSans-59" transform="translate(164.34375 0)"/>
     <use xlink:href="#DejaVuSans-48" transform="translate(223.53125 0)"/>
     <use xlink:href="#DejaVuSans-55" transform="translate(285.0625 0)"/>
     <use xlink:href="#DejaVuSans-56" transform="translate(326.171875 0)"/>
     <use xlink:href="#DejaVuSans-4c" transform="translate(378.265625 0)"/>
     <use xlink:href="#DejaVuSans-57" transform="translate(406.046875 0)"/>
     <use xlink:href="#DejaVuSans-5c" transform="translate(445.25 0)"/>
     <use xlink:href="#DejaVuSans-3" transform="translate(504.4375 0)"/>
     <use xlink:href="#DejaVuSans-52" transform="translate(536.21875 0)"/>
     <use xlink:href="#DejaVuSans-49" transform="translate(597.40625 0)"/>
     <use xlink:href="#DejaVuSans-3" transform="translate(632.609375 0)"/>
     <use xlink:href="#DejaVuSans-25" transform="translate(664.390625 0)"/>
     <use xlink:href="#DejaVuSans-48" transform="translate(733 0)"/>
     <use xlink:href="#DejaVuSans-51" transform="translate(794.53125 0)"/>
     <use xlink:href="#DejaVuSans-4c" transform="translate(857.90625 0)"/>
     <use xlink:href="#DejaVuSans-51" transform="translate(885.6875 0)"/>
    </g>
   </g>
   <g id="text_27">
    <g id="patch_27">
     <path d="M 475.202301 222.659662 
L 579.669645 222.659662 
Q 582.969645 222.659662 582.969645 219.359662 
L 582.969645 208.358803 
Q 582.969645 205.058803 579.669645 205.058803 
L 475.202301 205.058803 
Q 471.902301 205.058803 471.902301 208.358803 
L 471.902301 219.359662 
Q 471.902301 222.659662 475.202301 222.659662 
z
" style="fill: #ffffff; stroke: #000000; stroke-width: 0.5; stroke-linejoin: miter"/>
    </g>
    <!-- MONESTO founded -->
    <g transform="translate(475.202301 216.717084) scale(0.11 -0.11)">
     <defs>
      <path id="DejaVuSans-36" d="M 3425 4513 
L 3425 3897 
Q 3066 4069 2747 4153 
Q 2428 4238 2131 4238 
Q 1616 4238 1336 4038 
Q 1056 3838 1056 3469 
Q 1056 3159 1242 3001 
Q 1428 2844 1947 2747 
L 2328 2669 
Q 3034 2534 3370 2195 
Q 3706 1856 3706 1288 
Q 3706 609 3251 259 
Q 2797 -91 1919 -91 
Q 1588 -91 1214 -16 
Q 841 59 441 206 
L 441 856 
Q 825 641 1194 531 
Q 1563 422 1919 422 
Q 2459 422 2753 634 
Q 3047 847 3047 1241 
Q 3047 1584 2836 1778 
Q 2625 1972 2144 2069 
L 1759 2144 
Q 1053 2284 737 2584 
Q 422 2884 422 3419 
Q 422 4038 858 4394 
Q 1294 4750 2059 4750 
Q 2388 4750 2728 4690 
Q 3069 4631 3425 4513 
z
" transform="scale(0.015625)"/>
     </defs>
     <use xlink:href="#DejaVuSans-30"/>
     <use xlink:href="#DejaVuSans-32" transform="translate(86.28125 0)"/>
     <use xlink:href="#DejaVuSans-31" transform="translate(165 0)"/>
     <use xlink:href="#DejaVuSans-28" transform="translate(239.8125 0)"/>
     <use xlink:href="#DejaVuSans-36" transform="translate(303 0)"/>
     <use xlink:href="#DejaVuSans-37" transform="translate(366.484375 0)"/>
     <use xlink:href="#DejaVuSans-32" transform="translate(427.5625 0)"/>
     <use xlink:href="#DejaVuSans-3" transform="translate(506.28125 0)"/>
     <use xlink:href="#DejaVuSans-49" transform="translate(538.0625 0)"/>
     <use xlink:href="#DejaVuSans-52" transform="translate(573.265625 0)"/>
     <use xlink:href="#DejaVuSans-58" transform="translate(634.453125 0)"/>
     <use xlink:href="#DejaVuSans-51" transform="translate(697.828125 0)"/>
     <use xlink:href="#DejaVuSans-47" transform="translate(761.203125 0)"/>
     <use xlink:href="#DejaVuSans-48" transform="translate(824.6875 0)"/>
     <use xlink:href="#DejaVuSans-47" transform="translate(886.21875 0)"/>
    </g>
   </g>
   <g id="text_28">
    <g id="patch_28">
     <path d="M 119.106094 360.508656 
L 181.965937 360.508656 
Q 185.265938 360.508656 185.265938 357.208656 
L 185.265938 330.802641 
Q 185.265938 327.502641 181.965937 327.502641 
L 119.106094 327.502641 
Q 115.806094 327.502641 115.806094 330.802641 
L 115.806094 357.208656 
Q 115.806094 360.508656 119.106094 360.508656 
z
" style="fill: #ffffff; stroke: #000000; stroke-width: 0.5; stroke-linejoin: miter"/>
    </g>
    <!-- National -->
    <g transform="translate(136.128594 340.261996) scale(0.11 -0.11)">
     <use xlink:href="#DejaVuSans-31"/>
     <use xlink:href="#DejaVuSans-44" transform="translate(74.8125 0)"/>
     <use xlink:href="#DejaVuSans-57" transform="translate(136.09375 0)"/>
     <use xlink:href="#DejaVuSans-4c" transform="translate(175.296875 0)"/>
     <use xlink:href="#DejaVuSans-52" transform="translate(203.078125 0)"/>
     <use xlink:href="#DejaVuSans-51" transform="translate(264.265625 0)"/>
     <use xlink:href="#DejaVuSans-44" transform="translate(327.640625 0)"/>
     <use xlink:href="#DejaVuSans-4f" transform="translate(388.921875 0)"/>
    </g>
    <!-- Conference -->
    <g transform="translate(119.106094 353.465004) scale(0.11 -0.11)">
     <use xlink:href="#DejaVuSans-26"/>
     <use xlink:href="#DejaVuSans-52" transform="translate(69.828125 0)"/>
     <use xlink:href="#DejaVuSans-51" transform="translate(131.015625 0)"/>
     <use xlink:href="#DejaVuSans-49" transform="translate(194.390625 0)"/>
     <use xlink:href="#DejaVuSans-48" transform="translate(229.59375 0)"/>
     <use xlink:href="#DejaVuSans-55" transform="translate(291.125 0)"/>
     <use xlink:href="#DejaVuSans-48" transform="translate(330.03125 0)"/>
     <use xlink:href="#DejaVuSans-51" transform="translate(391.5625 0)"/>
     <use xlink:href="#DejaVuSans-46" transform="translate(454.9375 0)"/>
     <use xlink:href="#DejaVuSans-48" transform="translate(509.921875 0)"/>
    </g>
   </g>
   <g id="text_29">
    <g id="patch_29">
     <path d="M 475.202301 374.814827 
L 538.062145 374.814827 
Q 541.362145 374.814827 541.362145 371.514827 
L 541.362145 345.108812 
Q 541.362145 341.808812 538.062145 341.808812 
L 475.202301 341.808812 
Q 471.902301 341.808812 471.902301 345.108812 
L 471.902301 371.514827 
Q 471.902301 374.814827 475.202301 374.814827 
z
" style="fill: #ffffff; stroke: #000000; stroke-width: 0.5; stroke-linejoin: miter"/>
    </g>
    <!-- National -->
    <g transform="translate(475.202301 354.568167) scale(0.11 -0.11)">
     <use xlink:href="#DejaVuSans-31"/>
     <use xlink:href="#DejaVuSans-44" transform="translate(74.8125 0)"/>
     <use xlink:href="#DejaVuSans-57" transform="translate(136.09375 0)"/>
     <use xlink:href="#DejaVuSans-4c" transform="translate(175.296875 0)"/>
     <use xlink:href="#DejaVuSans-52" transform="translate(203.078125 0)"/>
     <use xlink:href="#DejaVuSans-51" transform="translate(264.265625 0)"/>
     <use xlink:href="#DejaVuSans-44" transform="translate(327.640625 0)"/>
     <use xlink:href="#DejaVuSans-4f" transform="translate(388.921875 0)"/>
    </g>
    <!-- Conference -->
    <g transform="translate(475.202301 367.771175) scale(0.11 -0.11)">
     <use xlink:href="#DejaVuSans-26"/>
     <use xlink:href="#DejaVuSans-52" transform="translate(69.828125 0)"/>
     <use xlink:href="#DejaVuSans-51" transform="translate(131.015625 0)"/>
     <use xlink:href="#DejaVuSans-49" transform="translate(194.390625 0)"/>
     <use xlink:href="#DejaVuSans-48" transform="translate(229.59375 0)"/>
     <use xlink:href="#DejaVuSans-55" transform="translate(291.125 0)"/>
     <use xlink:href="#DejaVuSans-48" transform="translate(330.03125 0)"/>
     <use xlink:href="#DejaVuSans-51" transform="translate(391.5625 0)"/>
     <use xlink:href="#DejaVuSans-46" transform="translate(454.9375 0)"/>
     <use xlink:href="#DejaVuSans-48" transform="translate(509.921875 0)"/>
    </g>
   </g>
   <g id="text_30">
    <g id="patch_30">
     <path d="M 475.202301 445.285255 
L 622.086676 445.285255 
Q 625.386676 445.285255 625.386676 441.985255 
L 625.386676 430.984395 
Q 625.386676 427.684395 622.086676 427.684395 
L 475.202301 427.684395 
Q 471.902301 427.684395 471.902301 430.984395 
L 471.902301 441.985255 
Q 471.902301 445.285255 475.202301 445.285255 
z
" style="fill: #ffffff; stroke: #000000; stroke-width: 0.5; stroke-linejoin: miter"/>
    </g>
    <!-- University of Kara founded -->
    <g transform="translate(475.202301 439.342677) scale(0.11 -0.11)">
     <use xlink:href="#DejaVuSans-38"/>
     <use xlink:href="#DejaVuSans-51" transform="translate(73.1875 0)"/>
     <use xlink:href="#DejaVuSans-4c" transform="translate(136.5625 0)"/>
     <use xlink:href="#DejaVuSans-59" transform="translate(164.34375 0)"/>
     <use xlink:href="#DejaVuSans-48" transform="translate(223.53125 0)"/>
     <use xlink:href="#DejaVuSans-55" transform="translate(285.0625 0)"/>
     <use xlink:href="#DejaVuSans-56" transform="translate(326.171875 0)"/>
     <use xlink:href="#DejaVuSans-4c" transform="translate(378.265625 0)"/>
     <use xlink:href="#DejaVuSans-57" transform="translate(406.046875 0)"/>
     <use xlink:href="#DejaVuSans-5c" transform="translate(445.25 0)"/>
     <use xlink:href="#DejaVuSans-3" transform="translate(504.4375 0)"/>
     <use xlink:href="#DejaVuSans-52" transform="translate(536.21875 0)"/>
     <use xlink:href="#DejaVuSans-49" transform="translate(597.40625 0)"/>
     <use xlink:href="#DejaVuSans-3" transform="translate(632.609375 0)"/>
     <use xlink:href="#DejaVuSans-2e" transform="translate(664.390625 0)"/>
     <use xlink:href="#DejaVuSans-44" transform="translate(728.21875 0)"/>
     <use xlink:href="#DejaVuSans-55" transform="translate(789.5 0)"/>
     <use xlink:href="#DejaVuSans-44" transform="translate(830.609375 0)"/>
     <use xlink:href="#DejaVuSans-3" transform="translate(891.890625 0)"/>
     <use xlink:href="#DejaVuSans-49" transform="translate(923.671875 0)"/>
     <use xlink:href="#DejaVuSans-52" transform="translate(958.875 0)"/>
     <use xlink:href="#DejaVuSans-58" transform="translate(1020.0625 0)"/>
     <use xlink:href="#DejaVuSans-51" transform="translate(1083.4375 0)"/>
     <use xlink:href="#DejaVuSans-47" transform="translate(1146.8125 0)"/>
     <use xlink:href="#DejaVuSans-48" transform="translate(1210.296875 0)"/>
     <use xlink:href="#DejaVuSans-47" transform="translate(1271.828125 0)"/>
    </g>
   </g>
   <g id="text_31">
    <g id="patch_31">
     <path d="M 26.089062 473.169753 
L 181.965937 473.169753 
Q 185.265937 473.169753 185.265937 469.869753 
L 185.265937 443.463737 
Q 185.265937 440.163737 181.965937 440.163737 
L 26.089062 440.163737 
Q 22.789062 440.163737 22.789062 443.463737 
L 22.789062 469.869753 
Q 22.789062 473.169753 26.089062 473.169753 
z
" style="fill: #ffffff; stroke: #000000; stroke-width: 0.5; stroke-linejoin: miter"/>
    </g>
    <!-- UNB renamed -->
    <g transform="translate(105.41625 452.923092) scale(0.11 -0.11)">
     <use xlink:href="#DejaVuSans-38"/>
     <use xlink:href="#DejaVuSans-31" transform="translate(73.1875 0)"/>
     <use xlink:href="#DejaVuSans-25" transform="translate(148 0)"/>
     <use xlink:href="#DejaVuSans-3" transform="translate(216.609375 0)"/>
     <use xlink:href="#DejaVuSans-55" transform="translate(248.390625 0)"/>
     <use xlink:href="#DejaVuSans-48" transform="translate(287.296875 0)"/>
     <use xlink:href="#DejaVuSans-51" transform="translate(348.828125 0)"/>
     <use xlink:href="#DejaVuSans-44" transform="translate(412.203125 0)"/>
     <use xlink:href="#DejaVuSans-50" transform="translate(473.484375 0)"/>
     <use xlink:href="#DejaVuSans-48" transform="translate(570.890625 0)"/>
     <use xlink:href="#DejaVuSans-47" transform="translate(632.421875 0)"/>
    </g>
    <!-- University of Abomey-Calavi -->
    <g transform="translate(26.089062 466.1261) scale(0.11 -0.11)">
     <defs>
      <path id="DejaVuSans-24" d="M 2188 4044 
L 1331 1722 
L 3047 1722 
L 2188 4044 
z
M 1831 4666 
L 2547 4666 
L 4325 0 
L 3669 0 
L 3244 1197 
L 1141 1197 
L 716 0 
L 50 0 
L 1831 4666 
z
" transform="scale(0.015625)"/>
      <path id="DejaVuSans-10" d="M 313 2009 
L 1997 2009 
L 1997 1497 
L 313 1497 
L 313 2009 
z
" transform="scale(0.015625)"/>
     </defs>
     <use xlink:href="#DejaVuSans-38"/>
     <use xlink:href="#DejaVuSans-51" transform="translate(73.1875 0)"/>
     <use xlink:href="#DejaVuSans-4c" transform="translate(136.5625 0)"/>
     <use xlink:href="#DejaVuSans-59" transform="translate(164.34375 0)"/>
     <use xlink:href="#DejaVuSans-48" transform="translate(223.53125 0)"/>
     <use xlink:href="#DejaVuSans-55" transform="translate(285.0625 0)"/>
     <use xlink:href="#DejaVuSans-56" transform="translate(326.171875 0)"/>
     <use xlink:href="#DejaVuSans-4c" transform="translate(378.265625 0)"/>
     <use xlink:href="#DejaVuSans-57" transform="translate(406.046875 0)"/>
     <use xlink:href="#DejaVuSans-5c" transform="translate(445.25 0)"/>
     <use xlink:href="#DejaVuSans-3" transform="translate(504.4375 0)"/>
     <use xlink:href="#DejaVuSans-52" transform="translate(536.21875 0)"/>
     <use xlink:href="#DejaVuSans-49" transform="translate(597.40625 0)"/>
     <use xlink:href="#DejaVuSans-3" transform="translate(632.609375 0)"/>
     <use xlink:href="#DejaVuSans-24" transform="translate(664.390625 0)"/>
     <use xlink:href="#DejaVuSans-45" transform="translate(732.796875 0)"/>
     <use xlink:href="#DejaVuSans-52" transform="translate(796.28125 0)"/>
     <use xlink:href="#DejaVuSans-50" transform="translate(857.46875 0)"/>
     <use xlink:href="#DejaVuSans-48" transform="translate(954.875 0)"/>
     <use xlink:href="#DejaVuSans-5c" transform="translate(1016.40625 0)"/>
     <use xlink:href="#DejaVuSans-10" transform="translate(1073.84375 0)"/>
     <use xlink:href="#DejaVuSans-26" transform="translate(1109.921875 0)"/>
     <use xlink:href="#DejaVuSans-44" transform="translate(1179.75 0)"/>
     <use xlink:href="#DejaVuSans-4f" transform="translate(1241.03125 0)"/>
     <use xlink:href="#DejaVuSans-44" transform="translate(1268.8125 0)"/>
     <use xlink:href="#DejaVuSans-59" transform="translate(1330.09375 0)"/>
     <use xlink:href="#DejaVuSans-4c" transform="translate(1389.28125 0)"/>
    </g>
   </g>
   <g id="text_32">
    <g id="patch_32">
     <path d="M 475.202301 467.588987 
L 650.251832 467.588987 
Q 653.551832 467.588987 653.551832 464.288987 
L 653.551832 452.848127 
Q 653.551832 449.548127 650.251832 449.548127 
L 475.202301 449.548127 
Q 471.902301 449.548127 471.902301 452.848127 
L 471.902301 464.288987 
Q 471.902301 467.588987 475.202301 467.588987 
z
" style="fill: #ffffff; stroke: #000000; stroke-width: 0.5; stroke-linejoin: miter"/>
    </g>
    <!-- UB renamed University of Lomé -->
    <g transform="translate(475.202301 461.646409) scale(0.11 -0.11)">
     <defs>
      <path id="DejaVuSans-2f" d="M 628 4666 
L 1259 4666 
L 1259 531 
L 3531 531 
L 3531 0 
L 628 0 
L 628 4666 
z
" transform="scale(0.015625)"/>
     </defs>
     <use xlink:href="#DejaVuSans-38"/>
     <use xlink:href="#DejaVuSans-25" transform="translate(73.1875 0)"/>
     <use xlink:href="#DejaVuSans-3" transform="translate(141.796875 0)"/>
     <use xlink:href="#DejaVuSans-55" transform="translate(173.578125 0)"/>
     <use xlink:href="#DejaVuSans-48" transform="translate(212.484375 0)"/>
     <use xlink:href="#DejaVuSans-51" transform="translate(274.015625 0)"/>
     <use xlink:href="#DejaVuSans-44" transform="translate(337.390625 0)"/>
     <use xlink:href="#DejaVuSans-50" transform="translate(398.671875 0)"/>
     <use xlink:href="#DejaVuSans-48" transform="translate(496.078125 0)"/>
     <use xlink:href="#DejaVuSans-47" transform="translate(557.609375 0)"/>
     <use xlink:href="#DejaVuSans-3" transform="translate(621.09375 0)"/>
     <use xlink:href="#DejaVuSans-38" transform="translate(652.875 0)"/>
     <use xlink:href="#DejaVuSans-51" transform="translate(726.0625 0)"/>
     <use xlink:href="#DejaVuSans-4c" transform="translate(789.4375 0)"/>
     <use xlink:href="#DejaVuSans-59" transform="translate(817.21875 0)"/>
     <use xlink:href="#DejaVuSans-48" transform="translate(876.40625 0)"/>
     <use xlink:href="#DejaVuSans-55" transform="translate(937.9375 0)"/>
     <use xlink:href="#DejaVuSans-56" transform="translate(979.046875 0)"/>
     <use xlink:href="#DejaVuSans-4c" transform="translate(1031.140625 0)"/>
     <use xlink:href="#DejaVuSans-57" transform="translate(1058.921875 0)"/>
     <use xlink:href="#DejaVuSans-5c" transform="translate(1098.125 0)"/>
     <use xlink:href="#DejaVuSans-3" transform="translate(1157.3125 0)"/>
     <use xlink:href="#DejaVuSans-52" transform="translate(1189.09375 0)"/>
     <use xlink:href="#DejaVuSans-49" transform="translate(1250.28125 0)"/>
     <use xlink:href="#DejaVuSans-3" transform="translate(1285.484375 0)"/>
     <use xlink:href="#DejaVuSans-2f" transform="translate(1317.265625 0)"/>
     <use xlink:href="#DejaVuSans-52" transform="translate(1371.234375 0)"/>
     <use xlink:href="#DejaVuSans-50" transform="translate(1432.421875 0)"/>
     <use xlink:href="#DejaVuSans-ab" transform="translate(1529.828125 0)"/>
    </g>
   </g>
   <g id="text_33">
    <g id="patch_33">
     <path d="M 196.886563 480.54992 
L 289.485938 480.54992 
Q 292.785938 480.54992 292.785938 477.24992 
L 292.785938 450.843904 
Q 292.785938 447.543904 289.485938 447.543904 
L 196.886563 447.543904 
Q 193.586563 447.543904 193.586563 450.843904 
L 193.586563 477.24992 
Q 193.586563 480.54992 196.886563 480.54992 
z
" style="fill: #ffffff; stroke: #000000; stroke-width: 0.5; stroke-linejoin: miter"/>
    </g>
    <!-- University of -->
    <g transform="translate(219.898906 460.30326) scale(0.11 -0.11)">
     <use xlink:href="#DejaVuSans-38"/>
     <use xlink:href="#DejaVuSans-51" transform="translate(73.1875 0)"/>
     <use xlink:href="#DejaVuSans-4c" transform="translate(136.5625 0)"/>
     <use xlink:href="#DejaVuSans-59" transform="translate(164.34375 0)"/>
     <use xlink:href="#DejaVuSans-48" transform="translate(223.53125 0)"/>
     <use xlink:href="#DejaVuSans-55" transform="translate(285.0625 0)"/>
     <use xlink:href="#DejaVuSans-56" transform="translate(326.171875 0)"/>
     <use xlink:href="#DejaVuSans-4c" transform="translate(378.265625 0)"/>
     <use xlink:href="#DejaVuSans-57" transform="translate(406.046875 0)"/>
     <use xlink:href="#DejaVuSans-5c" transform="translate(445.25 0)"/>
     <use xlink:href="#DejaVuSans-3" transform="translate(504.4375 0)"/>
     <use xlink:href="#DejaVuSans-52" transform="translate(536.21875 0)"/>
     <use xlink:href="#DejaVuSans-49" transform="translate(597.40625 0)"/>
    </g>
    <!-- Parakou founded -->
    <g transform="translate(196.886563 473.506268) scale(0.11 -0.11)">
     <defs>
      <path id="DejaVuSans-33" d="M 1259 4147 
L 1259 2394 
L 2053 2394 
Q 2494 2394 2734 2622 
Q 2975 2850 2975 3272 
Q 2975 3691 2734 3919 
Q 2494 4147 2053 4147 
L 1259 4147 
z
M 628 4666 
L 2053 4666 
Q 2838 4666 3239 4311 
Q 3641 3956 3641 3272 
Q 3641 2581 3239 2228 
Q 2838 1875 2053 1875 
L 1259 1875 
L 1259 0 
L 628 0 
L 628 4666 
z
" transform="scale(0.015625)"/>
     </defs>
     <use xlink:href="#DejaVuSans-33"/>
     <use xlink:href="#DejaVuSans-44" transform="translate(55.8125 0)"/>
     <use xlink:href="#DejaVuSans-55" transform="translate(117.09375 0)"/>
     <use xlink:href="#DejaVuSans-44" transform="translate(158.203125 0)"/>
     <use xlink:href="#DejaVuSans-4e" transform="translate(219.484375 0)"/>
     <use xlink:href="#DejaVuSans-52" transform="translate(273.828125 0)"/>
     <use xlink:href="#DejaVuSans-58" transform="translate(335.015625 0)"/>
     <use xlink:href="#DejaVuSans-3" transform="translate(398.390625 0)"/>
     <use xlink:href="#DejaVuSans-49" transform="translate(430.171875 0)"/>
     <use xlink:href="#DejaVuSans-52" transform="translate(465.375 0)"/>
     <use xlink:href="#DejaVuSans-58" transform="translate(526.5625 0)"/>
     <use xlink:href="#DejaVuSans-51" transform="translate(589.9375 0)"/>
     <use xlink:href="#DejaVuSans-47" transform="translate(653.3125 0)"/>
     <use xlink:href="#DejaVuSans-48" transform="translate(716.796875 0)"/>
     <use xlink:href="#DejaVuSans-47" transform="translate(778.328125 0)"/>
    </g>
   </g>
   <g id="text_34">
    <g id="patch_34">
     <path d="M 475.202301 508.151523 
L 577.469645 508.151523 
Q 580.769645 508.151523 580.769645 504.851523 
L 580.769645 493.410664 
Q 580.769645 490.110664 577.469645 490.110664 
L 475.202301 490.110664 
Q 471.902301 490.110664 471.902301 493.410664 
L 471.902301 504.851523 
Q 471.902301 508.151523 475.202301 508.151523 
z
" style="fill: #ffffff; stroke: #000000; stroke-width: 0.5; stroke-linejoin: miter"/>
    </g>
    <!-- Death of Eyadéma -->
    <g transform="translate(475.202301 502.208945) scale(0.11 -0.11)">
     <use xlink:href="#DejaVuSans-27"/>
     <use xlink:href="#DejaVuSans-48" transform="translate(77 0)"/>
     <use xlink:href="#DejaVuSans-44" transform="translate(138.53125 0)"/>
     <use xlink:href="#DejaVuSans-57" transform="translate(199.8125 0)"/>
     <use xlink:href="#DejaVuSans-4b" transform="translate(239.015625 0)"/>
     <use xlink:href="#DejaVuSans-3" transform="translate(302.390625 0)"/>
     <use xlink:href="#DejaVuSans-52" transform="translate(334.171875 0)"/>
     <use xlink:href="#DejaVuSans-49" transform="translate(395.359375 0)"/>
     <use xlink:href="#DejaVuSans-3" transform="translate(430.5625 0)"/>
     <use xlink:href="#DejaVuSans-28" transform="translate(462.34375 0)"/>
     <use xlink:href="#DejaVuSans-5c" transform="translate(525.53125 0)"/>
     <use xlink:href="#DejaVuSans-44" transform="translate(584.71875 0)"/>
     <use xlink:href="#DejaVuSans-47" transform="translate(646 0)"/>
     <use xlink:href="#DejaVuSans-ab" transform="translate(709.484375 0)"/>
     <use xlink:href="#DejaVuSans-50" transform="translate(771.015625 0)"/>
     <use xlink:href="#DejaVuSans-44" transform="translate(868.421875 0)"/>
    </g>
   </g>
   <g id="text_35">
    <g id="patch_35">
     <path d="M 475.202301 551.456299 
L 548.29902 551.456299 
Q 551.59902 551.456299 551.59902 548.156299 
L 551.59902 521.750283 
Q 551.59902 518.450283 548.29902 518.450283 
L 475.202301 518.450283 
Q 471.902301 518.450283 471.902301 521.750283 
L 471.902301 548.156299 
Q 471.902301 551.456299 475.202301 551.456299 
z
" style="fill: #ffffff; stroke: #000000; stroke-width: 0.5; stroke-linejoin: miter"/>
    </g>
    <!-- LMD reform -->
    <g transform="translate(475.202301 531.209639) scale(0.11 -0.11)">
     <use xlink:href="#DejaVuSans-2f"/>
     <use xlink:href="#DejaVuSans-30" transform="translate(55.71875 0)"/>
     <use xlink:href="#DejaVuSans-27" transform="translate(142 0)"/>
     <use xlink:href="#DejaVuSans-3" transform="translate(219 0)"/>
     <use xlink:href="#DejaVuSans-55" transform="translate(250.78125 0)"/>
     <use xlink:href="#DejaVuSans-48" transform="translate(289.6875 0)"/>
     <use xlink:href="#DejaVuSans-49" transform="translate(351.21875 0)"/>
     <use xlink:href="#DejaVuSans-52" transform="translate(386.421875 0)"/>
     <use xlink:href="#DejaVuSans-55" transform="translate(447.609375 0)"/>
     <use xlink:href="#DejaVuSans-50" transform="translate(486.96875 0)"/>
    </g>
    <!-- implemented -->
    <g transform="translate(475.202301 544.412647) scale(0.11 -0.11)">
     <use xlink:href="#DejaVuSans-4c"/>
     <use xlink:href="#DejaVuSans-50" transform="translate(27.78125 0)"/>
     <use xlink:href="#DejaVuSans-53" transform="translate(125.1875 0)"/>
     <use xlink:href="#DejaVuSans-4f" transform="translate(188.671875 0)"/>
     <use xlink:href="#DejaVuSans-48" transform="translate(216.453125 0)"/>
     <use xlink:href="#DejaVuSans-50" transform="translate(277.984375 0)"/>
     <use xlink:href="#DejaVuSans-48" transform="translate(375.390625 0)"/>
     <use xlink:href="#DejaVuSans-51" transform="translate(436.921875 0)"/>
     <use xlink:href="#DejaVuSans-57" transform="translate(500.296875 0)"/>
     <use xlink:href="#DejaVuSans-48" transform="translate(539.5 0)"/>
     <use xlink:href="#DejaVuSans-47" transform="translate(601.03125 0)"/>
    </g>
   </g>
   <g id="text_36">
    <g id="patch_36">
     <path d="M 108.869219 571.042128 
L 181.965937 571.042128 
Q 185.265938 571.042128 185.265938 567.742128 
L 185.265938 541.336113 
Q 185.265938 538.036113 181.965937 538.036113 
L 108.869219 538.036113 
Q 105.569219 538.036113 105.569219 541.336113 
L 105.569219 567.742128 
Q 105.569219 571.042128 108.869219 571.042128 
z
" style="fill: #ffffff; stroke: #000000; stroke-width: 0.5; stroke-linejoin: miter"/>
    </g>
    <!-- LMD reform -->
    <g transform="translate(117.684687 550.795468) scale(0.11 -0.11)">
     <use xlink:href="#DejaVuSans-2f"/>
     <use xlink:href="#DejaVuSans-30" transform="translate(55.71875 0)"/>
     <use xlink:href="#DejaVuSans-27" transform="translate(142 0)"/>
     <use xlink:href="#DejaVuSans-3" transform="translate(219 0)"/>
     <use xlink:href="#DejaVuSans-55" transform="translate(250.78125 0)"/>
     <use xlink:href="#DejaVuSans-48" transform="translate(289.6875 0)"/>
     <use xlink:href="#DejaVuSans-49" transform="translate(351.21875 0)"/>
     <use xlink:href="#DejaVuSans-52" transform="translate(386.421875 0)"/>
     <use xlink:href="#DejaVuSans-55" transform="translate(447.609375 0)"/>
     <use xlink:href="#DejaVuSans-50" transform="translate(486.96875 0)"/>
    </g>
    <!-- implemented -->
    <g transform="translate(108.869219 563.998476) scale(0.11 -0.11)">
     <use xlink:href="#DejaVuSans-4c"/>
     <use xlink:href="#DejaVuSans-50" transform="translate(27.78125 0)"/>
     <use xlink:href="#DejaVuSans-53" transform="translate(125.1875 0)"/>
     <use xlink:href="#DejaVuSans-4f" transform="translate(188.671875 0)"/>
     <use xlink:href="#DejaVuSans-48" transform="translate(216.453125 0)"/>
     <use xlink:href="#DejaVuSans-50" transform="translate(277.984375 0)"/>
     <use xlink:href="#DejaVuSans-48" transform="translate(375.390625 0)"/>
     <use xlink:href="#DejaVuSans-51" transform="translate(436.921875 0)"/>
     <use xlink:href="#DejaVuSans-57" transform="translate(500.296875 0)"/>
     <use xlink:href="#DejaVuSans-48" transform="translate(539.5 0)"/>
     <use xlink:href="#DejaVuSans-47" transform="translate(601.03125 0)"/>
    </g>
   </g>
  </g>
 </g>
 <defs>
  <clipPath id="pdce25b7cea">
   <rect x="167.304119" y="31.569094" width="322.56" height="518.4"/>
  </clipPath>
 </defs>
</svg>
