<?xml version="1.0" encoding="utf-8" standalone="no"?>
<!DOCTYPE svg PUBLIC "-//W3C//DTD SVG 1.1//EN"
  "http://www.w3.org/Graphics/SVG/1.1/DTD/svg11.dtd">
<svg xmlns:xlink="http://www.w3.org/1999/xlink" width="635.575582pt" height="572.769167pt" viewBox="0 0 635.575582 572.769167" xmlns="http://www.w3.org/2000/svg" version="1.1">
 <metadata>
  <rdf:RDF xmlns:dc="http://purl.org/dc/elements/1.1/" xmlns:cc="http://creativecommons.org/ns#" xmlns:rdf="http://www.w3.org/1999/02/22-rdf-syntax-ns#">
   <cc:Work>
    <dc:type rdf:resource="http://purl.org/dc/dcmitype/StillImage"/>
    <dc:date>2024-10-30T12:47:46.829947</dc:date>
    <dc:format>image/svg+xml</dc:format>
    <dc:creator>
     <cc:Agent>
      <dc:title>Matplotlib v3.9.2, https://matplotlib.org/</dc:title>
     </cc:Agent>
    </dc:creator>
   </cc:Work>
  </rdf:RDF>
 </metadata>
 <defs>
  <style type="text/css">*{stroke-linejoin: round; stroke-linecap: butt}</style>
 </defs>
 <g id="figure_1">
  <g id="patch_1">
   <path d="M 0 572.769167 
L 635.575582 572.769167 
L 635.575582 0 
L 0 0 
z
" style="fill: #ffffff"/>
  </g>
  <g id="axes_1">
   <g id="patch_2">
    <path d="M 167.304119 549.517375 
L 489.864119 549.517375 
L 489.864119 31.117375 
L 167.304119 31.117375 
z
" style="fill: #ffffff"/>
   </g>
   <g id="line2d_1">
    <path d="M 291.929574 549.517375 
L 291.929574 31.117375 
" clip-path="url(#p30a06bc3a5)" style="fill: none; stroke: #000000; stroke-width: 0.75; stroke-linecap: square"/>
   </g>
   <g id="line2d_2">
    <path d="M 288.264119 37.163435 
L 181.965937 37.163435 
" clip-path="url(#p30a06bc3a5)" style="fill: none; stroke: #808080; stroke-width: 0.5; stroke-linecap: square"/>
   </g>
   <g id="line2d_3">
    <path d="M 288.264119 127.85434 
L 255.275028 127.85434 
" clip-path="url(#p30a06bc3a5)" style="fill: none; stroke: #808080; stroke-width: 0.5; stroke-linecap: square"/>
   </g>
   <g id="line2d_4">
    <path d="M 288.264119 141.394109 
L 181.965937 141.394109 
" clip-path="url(#p30a06bc3a5)" style="fill: none; stroke: #808080; stroke-width: 0.5; stroke-linecap: square"/>
   </g>
   <g id="line2d_5">
    <path d="M 288.264119 164.017161 
L 255.275028 164.017161 
" clip-path="url(#p30a06bc3a5)" style="fill: none; stroke: #808080; stroke-width: 0.5; stroke-linecap: square"/>
   </g>
   <g id="line2d_6">
    <path d="M 288.264119 190.926388 
L 255.275028 190.926388 
" clip-path="url(#p30a06bc3a5)" style="fill: none; stroke: #808080; stroke-width: 0.5; stroke-linecap: square"/>
   </g>
   <g id="line2d_7">
    <path d="M 288.264119 196.092505 
L 181.965937 196.092505 
" clip-path="url(#p30a06bc3a5)" style="fill: none; stroke: #808080; stroke-width: 0.5; stroke-linecap: square"/>
   </g>
   <g id="line2d_8">
    <path d="M 288.264119 343.55393 
L 181.965937 343.55393 
" clip-path="url(#p30a06bc3a5)" style="fill: none; stroke: #808080; stroke-width: 0.5; stroke-linecap: square"/>
   </g>
   <g id="line2d_9">
    <path d="M 288.264119 456.215026 
L 181.965937 456.215026 
" clip-path="url(#p30a06bc3a5)" style="fill: none; stroke: #808080; stroke-width: 0.5; stroke-linecap: square"/>
   </g>
   <g id="line2d_10">
    <path d="M 288.264119 463.595194 
L 255.275028 463.595194 
" clip-path="url(#p30a06bc3a5)" style="fill: none; stroke: #808080; stroke-width: 0.5; stroke-linecap: square"/>
   </g>
   <g id="line2d_11">
    <path d="M 288.264119 554.087402 
L 181.965937 554.087402 
" clip-path="url(#p30a06bc3a5)" style="fill: none; stroke: #808080; stroke-width: 0.5; stroke-linecap: square"/>
   </g>
   <g id="line2d_12">
    <path d="M 295.595028 34.43845 
L 401.89321 34.43845 
" clip-path="url(#p30a06bc3a5)" style="fill: none; stroke: #808080; stroke-width: 0.5; stroke-linecap: square"/>
   </g>
   <g id="line2d_13">
    <path d="M 295.595028 62.568243 
L 401.89321 62.568243 
" clip-path="url(#p30a06bc3a5)" style="fill: none; stroke: #808080; stroke-width: 0.5; stroke-linecap: square"/>
   </g>
   <g id="line2d_14">
    <path d="M 295.595028 106.650551 
L 401.89321 106.650551 
" clip-path="url(#p30a06bc3a5)" style="fill: none; stroke: #808080; stroke-width: 0.5; stroke-linecap: square"/>
   </g>
   <g id="line2d_15">
    <path d="M 295.595028 142.075356 
L 475.202301 142.075356 
" clip-path="url(#p30a06bc3a5)" style="fill: none; stroke: #808080; stroke-width: 0.5; stroke-linecap: square"/>
   </g>
   <g id="line2d_16">
    <path d="M 295.595028 156.72215 
L 328.584119 156.72215 
" clip-path="url(#p30a06bc3a5)" style="fill: none; stroke: #808080; stroke-width: 0.5; stroke-linecap: square"/>
   </g>
   <g id="line2d_17">
    <path d="M 295.595028 175.34288 
L 475.202301 175.34288 
" clip-path="url(#p30a06bc3a5)" style="fill: none; stroke: #808080; stroke-width: 0.5; stroke-linecap: square"/>
   </g>
   <g id="line2d_18">
    <path d="M 295.595028 190.188371 
L 328.584119 190.188371 
" clip-path="url(#p30a06bc3a5)" style="fill: none; stroke: #808080; stroke-width: 0.5; stroke-linecap: square"/>
   </g>
   <g id="line2d_19">
    <path d="M 295.595028 213.407514 
L 401.89321 213.407514 
" clip-path="url(#p30a06bc3a5)" style="fill: none; stroke: #808080; stroke-width: 0.5; stroke-linecap: square"/>
   </g>
   <g id="line2d_20">
    <path d="M 295.595028 357.860101 
L 401.89321 357.860101 
" clip-path="url(#p30a06bc3a5)" style="fill: none; stroke: #808080; stroke-width: 0.5; stroke-linecap: square"/>
   </g>
   <g id="line2d_21">
    <path d="M 295.595028 436.033106 
L 401.89321 436.033106 
" clip-path="url(#p30a06bc3a5)" style="fill: none; stroke: #808080; stroke-width: 0.5; stroke-linecap: square"/>
   </g>
   <g id="line2d_22">
    <path d="M 295.595028 458.116838 
L 401.89321 458.116838 
" clip-path="url(#p30a06bc3a5)" style="fill: none; stroke: #808080; stroke-width: 0.5; stroke-linecap: square"/>
   </g>
   <g id="line2d_23">
    <path d="M 295.595028 498.679375 
L 401.89321 498.679375 
" clip-path="url(#p30a06bc3a5)" style="fill: none; stroke: #808080; stroke-width: 0.5; stroke-linecap: square"/>
   </g>
   <g id="line2d_24">
    <path d="M 295.595028 534.501573 
L 401.89321 534.501573 
" clip-path="url(#p30a06bc3a5)" style="fill: none; stroke: #808080; stroke-width: 0.5; stroke-linecap: square"/>
   </g>
   <g id="text_1">
    <g id="patch_3">
     <path d="M 273.972074 40.400344 
L 309.887074 40.400344 
L 309.887074 21.834406 
L 273.972074 21.834406 
z
" style="fill: #ffffff; stroke: #ffffff; stroke-linejoin: miter"/>
    </g>
    <!-- 1960 -->
    <g transform="translate(277.932074 34.152688) scale(0.11 -0.11)">
     <defs>
      <path id="DejaVuSans-31" d="M 794 531 
L 1825 531 
L 1825 4091 
L 703 3866 
L 703 4441 
L 1819 4666 
L 2450 4666 
L 2450 531 
L 3481 531 
L 3481 0 
L 794 0 
L 794 531 
z
" transform="scale(0.015625)"/>
      <path id="DejaVuSans-39" d="M 703 97 
L 703 672 
Q 941 559 1184 500 
Q 1428 441 1663 441 
Q 2288 441 2617 861 
Q 2947 1281 2994 2138 
Q 2813 1869 2534 1725 
Q 2256 1581 1919 1581 
Q 1219 1581 811 2004 
Q 403 2428 403 3163 
Q 403 3881 828 4315 
Q 1253 4750 1959 4750 
Q 2769 4750 3195 4129 
Q 3622 3509 3622 2328 
Q 3622 1225 3098 567 
Q 2575 -91 1691 -91 
Q 1453 -91 1209 -44 
Q 966 3 703 97 
z
M 1959 2075 
Q 2384 2075 2632 2365 
Q 2881 2656 2881 3163 
Q 2881 3666 2632 3958 
Q 2384 4250 1959 4250 
Q 1534 4250 1286 3958 
Q 1038 3666 1038 3163 
Q 1038 2656 1286 2365 
Q 1534 2075 1959 2075 
z
" transform="scale(0.015625)"/>
      <path id="DejaVuSans-36" d="M 2113 2584 
Q 1688 2584 1439 2293 
Q 1191 2003 1191 1497 
Q 1191 994 1439 701 
Q 1688 409 2113 409 
Q 2538 409 2786 701 
Q 3034 994 3034 1497 
Q 3034 2003 2786 2293 
Q 2538 2584 2113 2584 
z
M 3366 4563 
L 3366 3988 
Q 3128 4100 2886 4159 
Q 2644 4219 2406 4219 
Q 1781 4219 1451 3797 
Q 1122 3375 1075 2522 
Q 1259 2794 1537 2939 
Q 1816 3084 2150 3084 
Q 2853 3084 3261 2657 
Q 3669 2231 3669 1497 
Q 3669 778 3244 343 
Q 2819 -91 2113 -91 
Q 1303 -91 875 529 
Q 447 1150 447 2328 
Q 447 3434 972 4092 
Q 1497 4750 2381 4750 
Q 2619 4750 2861 4703 
Q 3103 4656 3366 4563 
z
" transform="scale(0.015625)"/>
      <path id="DejaVuSans-30" d="M 2034 4250 
Q 1547 4250 1301 3770 
Q 1056 3291 1056 2328 
Q 1056 1369 1301 889 
Q 1547 409 2034 409 
Q 2525 409 2770 889 
Q 3016 1369 3016 2328 
Q 3016 3291 2770 3770 
Q 2525 4250 2034 4250 
z
M 2034 4750 
Q 2819 4750 3233 4129 
Q 3647 3509 3647 2328 
Q 3647 1150 3233 529 
Q 2819 -91 2034 -91 
Q 1250 -91 836 529 
Q 422 1150 422 2328 
Q 422 3509 836 4129 
Q 1250 4750 2034 4750 
z
" transform="scale(0.015625)"/>
     </defs>
     <use xlink:href="#DejaVuSans-31"/>
     <use xlink:href="#DejaVuSans-39" x="63.623047"/>
     <use xlink:href="#DejaVuSans-36" x="127.246094"/>
     <use xlink:href="#DejaVuSans-30" x="190.869141"/>
    </g>
   </g>
   <g id="text_2">
    <g id="patch_4">
     <path d="M 273.972074 92.260213 
L 309.887074 92.260213 
L 309.887074 73.694276 
L 273.972074 73.694276 
z
" style="fill: #ffffff; stroke: #ffffff; stroke-linejoin: miter"/>
    </g>
    <!-- 1965 -->
    <g transform="translate(277.932074 86.012557) scale(0.11 -0.11)">
     <defs>
      <path id="DejaVuSans-35" d="M 691 4666 
L 3169 4666 
L 3169 4134 
L 1269 4134 
L 1269 2991 
Q 1406 3038 1543 3061 
Q 1681 3084 1819 3084 
Q 2600 3084 3056 2656 
Q 3513 2228 3513 1497 
Q 3513 744 3044 326 
Q 2575 -91 1722 -91 
Q 1428 -91 1123 -41 
Q 819 9 494 109 
L 494 744 
Q 775 591 1075 516 
Q 1375 441 1709 441 
Q 2250 441 2565 725 
Q 2881 1009 2881 1497 
Q 2881 1984 2565 2268 
Q 2250 2553 1709 2553 
Q 1456 2553 1204 2497 
Q 953 2441 691 2322 
L 691 4666 
z
" transform="scale(0.015625)"/>
     </defs>
     <use xlink:href="#DejaVuSans-31"/>
     <use xlink:href="#DejaVuSans-39" x="63.623047"/>
     <use xlink:href="#DejaVuSans-36" x="127.246094"/>
     <use xlink:href="#DejaVuSans-35" x="190.869141"/>
    </g>
   </g>
   <g id="text_3">
    <g id="patch_5">
     <path d="M 273.972074 144.091698 
L 309.887074 144.091698 
L 309.887074 125.52576 
L 273.972074 125.52576 
z
" style="fill: #ffffff; stroke: #ffffff; stroke-linejoin: miter"/>
    </g>
    <!-- 1970 -->
    <g transform="translate(277.932074 137.844042) scale(0.11 -0.11)">
     <defs>
      <path id="DejaVuSans-37" d="M 525 4666 
L 3525 4666 
L 3525 4397 
L 1831 0 
L 1172 0 
L 2766 4134 
L 525 4134 
L 525 4666 
z
" transform="scale(0.015625)"/>
     </defs>
     <use xlink:href="#DejaVuSans-31"/>
     <use xlink:href="#DejaVuSans-39" x="63.623047"/>
     <use xlink:href="#DejaVuSans-37" x="127.246094"/>
     <use xlink:href="#DejaVuSans-30" x="190.869141"/>
    </g>
   </g>
   <g id="text_4">
    <g id="patch_6">
     <path d="M 273.972074 195.923182 
L 309.887074 195.923182 
L 309.887074 177.357245 
L 273.972074 177.357245 
z
" style="fill: #ffffff; stroke: #ffffff; stroke-linejoin: miter"/>
    </g>
    <!-- 1975 -->
    <g transform="translate(277.932074 189.675526) scale(0.11 -0.11)">
     <use xlink:href="#DejaVuSans-31"/>
     <use xlink:href="#DejaVuSans-39" x="63.623047"/>
     <use xlink:href="#DejaVuSans-37" x="127.246094"/>
     <use xlink:href="#DejaVuSans-35" x="190.869141"/>
    </g>
   </g>
   <g id="text_5">
    <g id="patch_7">
     <path d="M 273.972074 247.754667 
L 309.887074 247.754667 
L 309.887074 229.188729 
L 273.972074 229.188729 
z
" style="fill: #ffffff; stroke: #ffffff; stroke-linejoin: miter"/>
    </g>
    <!-- 1980 -->
    <g transform="translate(277.932074 241.50701) scale(0.11 -0.11)">
     <defs>
      <path id="DejaVuSans-38" d="M 2034 2216 
Q 1584 2216 1326 1975 
Q 1069 1734 1069 1313 
Q 1069 891 1326 650 
Q 1584 409 2034 409 
Q 2484 409 2743 651 
Q 3003 894 3003 1313 
Q 3003 1734 2745 1975 
Q 2488 2216 2034 2216 
z
M 1403 2484 
Q 997 2584 770 2862 
Q 544 3141 544 3541 
Q 544 4100 942 4425 
Q 1341 4750 2034 4750 
Q 2731 4750 3128 4425 
Q 3525 4100 3525 3541 
Q 3525 3141 3298 2862 
Q 3072 2584 2669 2484 
Q 3125 2378 3379 2068 
Q 3634 1759 3634 1313 
Q 3634 634 3220 271 
Q 2806 -91 2034 -91 
Q 1263 -91 848 271 
Q 434 634 434 1313 
Q 434 1759 690 2068 
Q 947 2378 1403 2484 
z
M 1172 3481 
Q 1172 3119 1398 2916 
Q 1625 2713 2034 2713 
Q 2441 2713 2670 2916 
Q 2900 3119 2900 3481 
Q 2900 3844 2670 4047 
Q 2441 4250 2034 4250 
Q 1625 4250 1398 4047 
Q 1172 3844 1172 3481 
z
" transform="scale(0.015625)"/>
     </defs>
     <use xlink:href="#DejaVuSans-31"/>
     <use xlink:href="#DejaVuSans-39" x="63.623047"/>
     <use xlink:href="#DejaVuSans-38" x="127.246094"/>
     <use xlink:href="#DejaVuSans-30" x="190.869141"/>
    </g>
   </g>
   <g id="text_6">
    <g id="patch_8">
     <path d="M 273.972074 299.614536 
L 309.887074 299.614536 
L 309.887074 281.048599 
L 273.972074 281.048599 
z
" style="fill: #ffffff; stroke: #ffffff; stroke-linejoin: miter"/>
    </g>
    <!-- 1985 -->
    <g transform="translate(277.932074 293.36688) scale(0.11 -0.11)">
     <use xlink:href="#DejaVuSans-31"/>
     <use xlink:href="#DejaVuSans-39" x="63.623047"/>
     <use xlink:href="#DejaVuSans-38" x="127.246094"/>
     <use xlink:href="#DejaVuSans-35" x="190.869141"/>
    </g>
   </g>
   <g id="text_7">
    <g id="patch_9">
     <path d="M 273.972074 351.446021 
L 309.887074 351.446021 
L 309.887074 332.880083 
L 273.972074 332.880083 
z
" style="fill: #ffffff; stroke: #ffffff; stroke-linejoin: miter"/>
    </g>
    <!-- 1990 -->
    <g transform="translate(277.932074 345.198365) scale(0.11 -0.11)">
     <use xlink:href="#DejaVuSans-31"/>
     <use xlink:href="#DejaVuSans-39" x="63.623047"/>
     <use xlink:href="#DejaVuSans-39" x="127.246094"/>
     <use xlink:href="#DejaVuSans-30" x="190.869141"/>
    </g>
   </g>
   <g id="text_8">
    <g id="patch_10">
     <path d="M 273.972074 403.277505 
L 309.887074 403.277505 
L 309.887074 384.711568 
L 273.972074 384.711568 
z
" style="fill: #ffffff; stroke: #ffffff; stroke-linejoin: miter"/>
    </g>
    <!-- 1995 -->
    <g transform="translate(277.932074 397.029849) scale(0.11 -0.11)">
     <use xlink:href="#DejaVuSans-31"/>
     <use xlink:href="#DejaVuSans-39" x="63.623047"/>
     <use xlink:href="#DejaVuSans-39" x="127.246094"/>
     <use xlink:href="#DejaVuSans-35" x="190.869141"/>
    </g>
   </g>
   <g id="text_9">
    <g id="patch_11">
     <path d="M 273.972074 455.10899 
L 309.887074 455.10899 
L 309.887074 436.543052 
L 273.972074 436.543052 
z
" style="fill: #ffffff; stroke: #ffffff; stroke-linejoin: miter"/>
    </g>
    <!-- 2000 -->
    <g transform="translate(277.932074 448.861333) scale(0.11 -0.11)">
     <defs>
      <path id="DejaVuSans-32" d="M 1228 531 
L 3431 531 
L 3431 0 
L 469 0 
L 469 531 
Q 828 903 1448 1529 
Q 2069 2156 2228 2338 
Q 2531 2678 2651 2914 
Q 2772 3150 2772 3378 
Q 2772 3750 2511 3984 
Q 2250 4219 1831 4219 
Q 1534 4219 1204 4116 
Q 875 4013 500 3803 
L 500 4441 
Q 881 4594 1212 4672 
Q 1544 4750 1819 4750 
Q 2544 4750 2975 4387 
Q 3406 4025 3406 3419 
Q 3406 3131 3298 2873 
Q 3191 2616 2906 2266 
Q 2828 2175 2409 1742 
Q 1991 1309 1228 531 
z
" transform="scale(0.015625)"/>
     </defs>
     <use xlink:href="#DejaVuSans-32"/>
     <use xlink:href="#DejaVuSans-30" x="63.623047"/>
     <use xlink:href="#DejaVuSans-30" x="127.246094"/>
     <use xlink:href="#DejaVuSans-30" x="190.869141"/>
    </g>
   </g>
   <g id="text_10">
    <g id="patch_12">
     <path d="M 273.972074 506.968859 
L 309.887074 506.968859 
L 309.887074 488.402922 
L 273.972074 488.402922 
z
" style="fill: #ffffff; stroke: #ffffff; stroke-linejoin: miter"/>
    </g>
    <!-- 2005 -->
    <g transform="translate(277.932074 500.721203) scale(0.11 -0.11)">
     <use xlink:href="#DejaVuSans-32"/>
     <use xlink:href="#DejaVuSans-30" x="63.623047"/>
     <use xlink:href="#DejaVuSans-30" x="127.246094"/>
     <use xlink:href="#DejaVuSans-35" x="190.869141"/>
    </g>
   </g>
   <g id="text_11">
    <g id="patch_13">
     <path d="M 273.972074 558.800344 
L 309.887074 558.800344 
L 309.887074 540.234406 
L 273.972074 540.234406 
z
" style="fill: #ffffff; stroke: #ffffff; stroke-linejoin: miter"/>
    </g>
    <!-- 2010 -->
    <g transform="translate(277.932074 552.552687) scale(0.11 -0.11)">
     <use xlink:href="#DejaVuSans-32"/>
     <use xlink:href="#DejaVuSans-30" x="63.623047"/>
     <use xlink:href="#DejaVuSans-31" x="127.246094"/>
     <use xlink:href="#DejaVuSans-30" x="190.869141"/>
    </g>
   </g>
   <g id="text_12">
    <!-- Benin -->
    <g transform="translate(170.789682 17.837813) scale(0.14 -0.14)">
     <defs>
      <path id="DejaVuSans-Bold-42" d="M 2456 2859 
Q 2741 2859 2887 2984 
Q 3034 3109 3034 3353 
Q 3034 3594 2887 3720 
Q 2741 3847 2456 3847 
L 1791 3847 
L 1791 2859 
L 2456 2859 
z
M 2497 819 
Q 2859 819 3042 972 
Q 3225 1125 3225 1434 
Q 3225 1738 3044 1889 
Q 2863 2041 2497 2041 
L 1791 2041 
L 1791 819 
L 2497 819 
z
M 3616 2497 
Q 4003 2384 4215 2081 
Q 4428 1778 4428 1338 
Q 4428 663 3972 331 
Q 3516 0 2584 0 
L 588 0 
L 588 4666 
L 2394 4666 
Q 3366 4666 3802 4372 
Q 4238 4078 4238 3431 
Q 4238 3091 4078 2852 
Q 3919 2613 3616 2497 
z
" transform="scale(0.015625)"/>
      <path id="DejaVuSans-Bold-65" d="M 4031 1759 
L 4031 1441 
L 1416 1441 
Q 1456 1047 1700 850 
Q 1944 653 2381 653 
Q 2734 653 3104 758 
Q 3475 863 3866 1075 
L 3866 213 
Q 3469 63 3072 -14 
Q 2675 -91 2278 -91 
Q 1328 -91 801 392 
Q 275 875 275 1747 
Q 275 2603 792 3093 
Q 1309 3584 2216 3584 
Q 3041 3584 3536 3087 
Q 4031 2591 4031 1759 
z
M 2881 2131 
Q 2881 2450 2695 2645 
Q 2509 2841 2209 2841 
Q 1884 2841 1681 2658 
Q 1478 2475 1428 2131 
L 2881 2131 
z
" transform="scale(0.015625)"/>
      <path id="DejaVuSans-Bold-6e" d="M 4056 2131 
L 4056 0 
L 2931 0 
L 2931 347 
L 2931 1631 
Q 2931 2084 2911 2256 
Q 2891 2428 2841 2509 
Q 2775 2619 2662 2680 
Q 2550 2741 2406 2741 
Q 2056 2741 1856 2470 
Q 1656 2200 1656 1722 
L 1656 0 
L 538 0 
L 538 3500 
L 1656 3500 
L 1656 2988 
Q 1909 3294 2193 3439 
Q 2478 3584 2822 3584 
Q 3428 3584 3742 3212 
Q 4056 2841 4056 2131 
z
" transform="scale(0.015625)"/>
      <path id="DejaVuSans-Bold-69" d="M 538 3500 
L 1656 3500 
L 1656 0 
L 538 0 
L 538 3500 
z
M 538 4863 
L 1656 4863 
L 1656 3950 
L 538 3950 
L 538 4863 
z
" transform="scale(0.015625)"/>
     </defs>
     <use xlink:href="#DejaVuSans-Bold-42"/>
     <use xlink:href="#DejaVuSans-Bold-65" x="76.220703"/>
     <use xlink:href="#DejaVuSans-Bold-6e" x="144.042969"/>
     <use xlink:href="#DejaVuSans-Bold-69" x="215.234375"/>
     <use xlink:href="#DejaVuSans-Bold-6e" x="249.511719"/>
    </g>
   </g>
   <g id="text_13">
    <!-- Togo -->
    <g transform="translate(441.480119 17.728438) scale(0.14 -0.14)">
     <defs>
      <path id="DejaVuSans-Bold-54" d="M 31 4666 
L 4331 4666 
L 4331 3756 
L 2784 3756 
L 2784 0 
L 1581 0 
L 1581 3756 
L 31 3756 
L 31 4666 
z
" transform="scale(0.015625)"/>
      <path id="DejaVuSans-Bold-6f" d="M 2203 2784 
Q 1831 2784 1636 2517 
Q 1441 2250 1441 1747 
Q 1441 1244 1636 976 
Q 1831 709 2203 709 
Q 2569 709 2762 976 
Q 2956 1244 2956 1747 
Q 2956 2250 2762 2517 
Q 2569 2784 2203 2784 
z
M 2203 3584 
Q 3106 3584 3614 3096 
Q 4122 2609 4122 1747 
Q 4122 884 3614 396 
Q 3106 -91 2203 -91 
Q 1297 -91 786 396 
Q 275 884 275 1747 
Q 275 2609 786 3096 
Q 1297 3584 2203 3584 
z
" transform="scale(0.015625)"/>
      <path id="DejaVuSans-Bold-67" d="M 2919 594 
Q 2688 288 2409 144 
Q 2131 0 1766 0 
Q 1125 0 706 504 
Q 288 1009 288 1791 
Q 288 2575 706 3076 
Q 1125 3578 1766 3578 
Q 2131 3578 2409 3434 
Q 2688 3291 2919 2981 
L 2919 3500 
L 4044 3500 
L 4044 353 
Q 4044 -491 3511 -936 
Q 2978 -1381 1966 -1381 
Q 1638 -1381 1331 -1331 
Q 1025 -1281 716 -1178 
L 716 -306 
Q 1009 -475 1290 -558 
Q 1572 -641 1856 -641 
Q 2406 -641 2662 -400 
Q 2919 -159 2919 353 
L 2919 594 
z
M 2181 2772 
Q 1834 2772 1640 2515 
Q 1447 2259 1447 1791 
Q 1447 1309 1634 1061 
Q 1822 813 2181 813 
Q 2531 813 2725 1069 
Q 2919 1325 2919 1791 
Q 2919 2259 2725 2515 
Q 2531 2772 2181 2772 
z
" transform="scale(0.015625)"/>
     </defs>
     <use xlink:href="#DejaVuSans-Bold-54"/>
     <use xlink:href="#DejaVuSans-Bold-6f" x="54.962891"/>
     <use xlink:href="#DejaVuSans-Bold-67" x="123.664062"/>
     <use xlink:href="#DejaVuSans-Bold-6f" x="195.246094"/>
    </g>
   </g>
   <g id="text_14">
    <g id="patch_14">
     <path d="M 54.826562 45.786404 
L 181.965937 45.786404 
Q 185.265937 45.786404 185.265937 42.486404 
L 185.265937 31.840467 
Q 185.265937 28.540467 181.965937 28.540467 
L 54.826562 28.540467 
Q 51.526562 28.540467 51.526562 31.840467 
L 51.526562 42.486404 
Q 51.526562 45.786404 54.826562 45.786404 
z
" style="fill: #ffffff; stroke: #000000; stroke-width: 0.5; stroke-linejoin: miter"/>
    </g>
    <!-- Independence of Benin -->
    <g transform="translate(54.826562 40.198748) scale(0.11 -0.11)">
     <defs>
      <path id="DejaVuSans-49" d="M 628 4666 
L 1259 4666 
L 1259 0 
L 628 0 
L 628 4666 
z
" transform="scale(0.015625)"/>
      <path id="DejaVuSans-6e" d="M 3513 2113 
L 3513 0 
L 2938 0 
L 2938 2094 
Q 2938 2591 2744 2837 
Q 2550 3084 2163 3084 
Q 1697 3084 1428 2787 
Q 1159 2491 1159 1978 
L 1159 0 
L 581 0 
L 581 3500 
L 1159 3500 
L 1159 2956 
Q 1366 3272 1645 3428 
Q 1925 3584 2291 3584 
Q 2894 3584 3203 3211 
Q 3513 2838 3513 2113 
z
" transform="scale(0.015625)"/>
      <path id="DejaVuSans-64" d="M 2906 2969 
L 2906 4863 
L 3481 4863 
L 3481 0 
L 2906 0 
L 2906 525 
Q 2725 213 2448 61 
Q 2172 -91 1784 -91 
Q 1150 -91 751 415 
Q 353 922 353 1747 
Q 353 2572 751 3078 
Q 1150 3584 1784 3584 
Q 2172 3584 2448 3432 
Q 2725 3281 2906 2969 
z
M 947 1747 
Q 947 1113 1208 752 
Q 1469 391 1925 391 
Q 2381 391 2643 752 
Q 2906 1113 2906 1747 
Q 2906 2381 2643 2742 
Q 2381 3103 1925 3103 
Q 1469 3103 1208 2742 
Q 947 2381 947 1747 
z
" transform="scale(0.015625)"/>
      <path id="DejaVuSans-65" d="M 3597 1894 
L 3597 1613 
L 953 1613 
Q 991 1019 1311 708 
Q 1631 397 2203 397 
Q 2534 397 2845 478 
Q 3156 559 3463 722 
L 3463 178 
Q 3153 47 2828 -22 
Q 2503 -91 2169 -91 
Q 1331 -91 842 396 
Q 353 884 353 1716 
Q 353 2575 817 3079 
Q 1281 3584 2069 3584 
Q 2775 3584 3186 3129 
Q 3597 2675 3597 1894 
z
M 3022 2063 
Q 3016 2534 2758 2815 
Q 2500 3097 2075 3097 
Q 1594 3097 1305 2825 
Q 1016 2553 972 2059 
L 3022 2063 
z
" transform="scale(0.015625)"/>
      <path id="DejaVuSans-70" d="M 1159 525 
L 1159 -1331 
L 581 -1331 
L 581 3500 
L 1159 3500 
L 1159 2969 
Q 1341 3281 1617 3432 
Q 1894 3584 2278 3584 
Q 2916 3584 3314 3078 
Q 3713 2572 3713 1747 
Q 3713 922 3314 415 
Q 2916 -91 2278 -91 
Q 1894 -91 1617 61 
Q 1341 213 1159 525 
z
M 3116 1747 
Q 3116 2381 2855 2742 
Q 2594 3103 2138 3103 
Q 1681 3103 1420 2742 
Q 1159 2381 1159 1747 
Q 1159 1113 1420 752 
Q 1681 391 2138 391 
Q 2594 391 2855 752 
Q 3116 1113 3116 1747 
z
" transform="scale(0.015625)"/>
      <path id="DejaVuSans-63" d="M 3122 3366 
L 3122 2828 
Q 2878 2963 2633 3030 
Q 2388 3097 2138 3097 
Q 1578 3097 1268 2742 
Q 959 2388 959 1747 
Q 959 1106 1268 751 
Q 1578 397 2138 397 
Q 2388 397 2633 464 
Q 2878 531 3122 666 
L 3122 134 
Q 2881 22 2623 -34 
Q 2366 -91 2075 -91 
Q 1284 -91 818 406 
Q 353 903 353 1747 
Q 353 2603 823 3093 
Q 1294 3584 2113 3584 
Q 2378 3584 2631 3529 
Q 2884 3475 3122 3366 
z
" transform="scale(0.015625)"/>
      <path id="DejaVuSans-20" transform="scale(0.015625)"/>
      <path id="DejaVuSans-6f" d="M 1959 3097 
Q 1497 3097 1228 2736 
Q 959 2375 959 1747 
Q 959 1119 1226 758 
Q 1494 397 1959 397 
Q 2419 397 2687 759 
Q 2956 1122 2956 1747 
Q 2956 2369 2687 2733 
Q 2419 3097 1959 3097 
z
M 1959 3584 
Q 2709 3584 3137 3096 
Q 3566 2609 3566 1747 
Q 3566 888 3137 398 
Q 2709 -91 1959 -91 
Q 1206 -91 779 398 
Q 353 888 353 1747 
Q 353 2609 779 3096 
Q 1206 3584 1959 3584 
z
" transform="scale(0.015625)"/>
      <path id="DejaVuSans-66" d="M 2375 4863 
L 2375 4384 
L 1825 4384 
Q 1516 4384 1395 4259 
Q 1275 4134 1275 3809 
L 1275 3500 
L 2222 3500 
L 2222 3053 
L 1275 3053 
L 1275 0 
L 697 0 
L 697 3053 
L 147 3053 
L 147 3500 
L 697 3500 
L 697 3744 
Q 697 4328 969 4595 
Q 1241 4863 1831 4863 
L 2375 4863 
z
" transform="scale(0.015625)"/>
      <path id="DejaVuSans-42" d="M 1259 2228 
L 1259 519 
L 2272 519 
Q 2781 519 3026 730 
Q 3272 941 3272 1375 
Q 3272 1813 3026 2020 
Q 2781 2228 2272 2228 
L 1259 2228 
z
M 1259 4147 
L 1259 2741 
L 2194 2741 
Q 2656 2741 2882 2914 
Q 3109 3088 3109 3444 
Q 3109 3797 2882 3972 
Q 2656 4147 2194 4147 
L 1259 4147 
z
M 628 4666 
L 2241 4666 
Q 2963 4666 3353 4366 
Q 3744 4066 3744 3513 
Q 3744 3084 3544 2831 
Q 3344 2578 2956 2516 
Q 3422 2416 3680 2098 
Q 3938 1781 3938 1306 
Q 3938 681 3513 340 
Q 3088 0 2303 0 
L 628 0 
L 628 4666 
z
" transform="scale(0.015625)"/>
      <path id="DejaVuSans-69" d="M 603 3500 
L 1178 3500 
L 1178 0 
L 603 0 
L 603 3500 
z
M 603 4863 
L 1178 4863 
L 1178 4134 
L 603 4134 
L 603 4863 
z
" transform="scale(0.015625)"/>
     </defs>
     <use xlink:href="#DejaVuSans-49"/>
     <use xlink:href="#DejaVuSans-6e" x="29.492188"/>
     <use xlink:href="#DejaVuSans-64" x="92.871094"/>
     <use xlink:href="#DejaVuSans-65" x="156.347656"/>
     <use xlink:href="#DejaVuSans-70" x="217.871094"/>
     <use xlink:href="#DejaVuSans-65" x="281.347656"/>
     <use xlink:href="#DejaVuSans-6e" x="342.871094"/>
     <use xlink:href="#DejaVuSans-64" x="406.25"/>
     <use xlink:href="#DejaVuSans-65" x="469.726562"/>
     <use xlink:href="#DejaVuSans-6e" x="531.25"/>
     <use xlink:href="#DejaVuSans-63" x="594.628906"/>
     <use xlink:href="#DejaVuSans-65" x="649.609375"/>
     <use xlink:href="#DejaVuSans-20" x="711.132812"/>
     <use xlink:href="#DejaVuSans-6f" x="742.919922"/>
     <use xlink:href="#DejaVuSans-66" x="804.101562"/>
     <use xlink:href="#DejaVuSans-20" x="839.306641"/>
     <use xlink:href="#DejaVuSans-42" x="871.09375"/>
     <use xlink:href="#DejaVuSans-65" x="939.697266"/>
     <use xlink:href="#DejaVuSans-6e" x="1001.220703"/>
     <use xlink:href="#DejaVuSans-69" x="1064.599609"/>
     <use xlink:href="#DejaVuSans-6e" x="1092.382812"/>
    </g>
   </g>
   <g id="text_15">
    <g id="patch_15">
     <path d="M 168.928466 136.477309 
L 255.275028 136.477309 
Q 258.575028 136.477309 258.575028 133.177309 
L 258.575028 122.531372 
Q 258.575028 119.231372 255.275028 119.231372 
L 168.928466 119.231372 
Q 165.628466 119.231372 165.628466 122.531372 
L 165.628466 133.177309 
Q 165.628466 136.477309 168.928466 136.477309 
z
" style="fill: #ffffff; stroke: #000000; stroke-width: 0.5; stroke-linejoin: miter"/>
    </g>
    <!-- Dahomean May -->
    <g transform="translate(168.928466 130.889653) scale(0.11 -0.11)">
     <defs>
      <path id="DejaVuSans-44" d="M 1259 4147 
L 1259 519 
L 2022 519 
Q 2988 519 3436 956 
Q 3884 1394 3884 2338 
Q 3884 3275 3436 3711 
Q 2988 4147 2022 4147 
L 1259 4147 
z
M 628 4666 
L 1925 4666 
Q 3281 4666 3915 4102 
Q 4550 3538 4550 2338 
Q 4550 1131 3912 565 
Q 3275 0 1925 0 
L 628 0 
L 628 4666 
z
" transform="scale(0.015625)"/>
      <path id="DejaVuSans-61" d="M 2194 1759 
Q 1497 1759 1228 1600 
Q 959 1441 959 1056 
Q 959 750 1161 570 
Q 1363 391 1709 391 
Q 2188 391 2477 730 
Q 2766 1069 2766 1631 
L 2766 1759 
L 2194 1759 
z
M 3341 1997 
L 3341 0 
L 2766 0 
L 2766 531 
Q 2569 213 2275 61 
Q 1981 -91 1556 -91 
Q 1019 -91 701 211 
Q 384 513 384 1019 
Q 384 1609 779 1909 
Q 1175 2209 1959 2209 
L 2766 2209 
L 2766 2266 
Q 2766 2663 2505 2880 
Q 2244 3097 1772 3097 
Q 1472 3097 1187 3025 
Q 903 2953 641 2809 
L 641 3341 
Q 956 3463 1253 3523 
Q 1550 3584 1831 3584 
Q 2591 3584 2966 3190 
Q 3341 2797 3341 1997 
z
" transform="scale(0.015625)"/>
      <path id="DejaVuSans-68" d="M 3513 2113 
L 3513 0 
L 2938 0 
L 2938 2094 
Q 2938 2591 2744 2837 
Q 2550 3084 2163 3084 
Q 1697 3084 1428 2787 
Q 1159 2491 1159 1978 
L 1159 0 
L 581 0 
L 581 4863 
L 1159 4863 
L 1159 2956 
Q 1366 3272 1645 3428 
Q 1925 3584 2291 3584 
Q 2894 3584 3203 3211 
Q 3513 2838 3513 2113 
z
" transform="scale(0.015625)"/>
      <path id="DejaVuSans-6d" d="M 3328 2828 
Q 3544 3216 3844 3400 
Q 4144 3584 4550 3584 
Q 5097 3584 5394 3201 
Q 5691 2819 5691 2113 
L 5691 0 
L 5113 0 
L 5113 2094 
Q 5113 2597 4934 2840 
Q 4756 3084 4391 3084 
Q 3944 3084 3684 2787 
Q 3425 2491 3425 1978 
L 3425 0 
L 2847 0 
L 2847 2094 
Q 2847 2600 2669 2842 
Q 2491 3084 2119 3084 
Q 1678 3084 1418 2786 
Q 1159 2488 1159 1978 
L 1159 0 
L 581 0 
L 581 3500 
L 1159 3500 
L 1159 2956 
Q 1356 3278 1631 3431 
Q 1906 3584 2284 3584 
Q 2666 3584 2933 3390 
Q 3200 3197 3328 2828 
z
" transform="scale(0.015625)"/>
      <path id="DejaVuSans-4d" d="M 628 4666 
L 1569 4666 
L 2759 1491 
L 3956 4666 
L 4897 4666 
L 4897 0 
L 4281 0 
L 4281 4097 
L 3078 897 
L 2444 897 
L 1241 4097 
L 1241 0 
L 628 0 
L 628 4666 
z
" transform="scale(0.015625)"/>
      <path id="DejaVuSans-79" d="M 2059 -325 
Q 1816 -950 1584 -1140 
Q 1353 -1331 966 -1331 
L 506 -1331 
L 506 -850 
L 844 -850 
Q 1081 -850 1212 -737 
Q 1344 -625 1503 -206 
L 1606 56 
L 191 3500 
L 800 3500 
L 1894 763 
L 2988 3500 
L 3597 3500 
L 2059 -325 
z
" transform="scale(0.015625)"/>
     </defs>
     <use xlink:href="#DejaVuSans-44"/>
     <use xlink:href="#DejaVuSans-61" x="77.001953"/>
     <use xlink:href="#DejaVuSans-68" x="138.28125"/>
     <use xlink:href="#DejaVuSans-6f" x="201.660156"/>
     <use xlink:href="#DejaVuSans-6d" x="262.841797"/>
     <use xlink:href="#DejaVuSans-65" x="360.253906"/>
     <use xlink:href="#DejaVuSans-61" x="421.777344"/>
     <use xlink:href="#DejaVuSans-6e" x="483.056641"/>
     <use xlink:href="#DejaVuSans-20" x="546.435547"/>
     <use xlink:href="#DejaVuSans-4d" x="578.222656"/>
     <use xlink:href="#DejaVuSans-61" x="664.501953"/>
     <use xlink:href="#DejaVuSans-79" x="725.78125"/>
    </g>
   </g>
   <g id="text_16">
    <g id="patch_16">
     <path d="M 7.2 150.017078 
L 181.965937 150.017078 
Q 185.265937 150.017078 185.265937 146.717078 
L 185.265937 136.071141 
Q 185.265937 132.771141 181.965937 132.771141 
L 7.2 132.771141 
Q 3.9 132.771141 3.9 136.071141 
L 3.9 146.717078 
Q 3.9 150.017078 7.2 150.017078 
z
" style="fill: #ffffff; stroke: #000000; stroke-width: 0.5; stroke-linejoin: miter"/>
    </g>
    <!-- University of Dahomey founded -->
    <g transform="translate(7.2 144.429422) scale(0.11 -0.11)">
     <defs>
      <path id="DejaVuSans-55" d="M 556 4666 
L 1191 4666 
L 1191 1831 
Q 1191 1081 1462 751 
Q 1734 422 2344 422 
Q 2950 422 3222 751 
Q 3494 1081 3494 1831 
L 3494 4666 
L 4128 4666 
L 4128 1753 
Q 4128 841 3676 375 
Q 3225 -91 2344 -91 
Q 1459 -91 1007 375 
Q 556 841 556 1753 
L 556 4666 
z
" transform="scale(0.015625)"/>
      <path id="DejaVuSans-76" d="M 191 3500 
L 800 3500 
L 1894 563 
L 2988 3500 
L 3597 3500 
L 2284 0 
L 1503 0 
L 191 3500 
z
" transform="scale(0.015625)"/>
      <path id="DejaVuSans-72" d="M 2631 2963 
Q 2534 3019 2420 3045 
Q 2306 3072 2169 3072 
Q 1681 3072 1420 2755 
Q 1159 2438 1159 1844 
L 1159 0 
L 581 0 
L 581 3500 
L 1159 3500 
L 1159 2956 
Q 1341 3275 1631 3429 
Q 1922 3584 2338 3584 
Q 2397 3584 2469 3576 
Q 2541 3569 2628 3553 
L 2631 2963 
z
" transform="scale(0.015625)"/>
      <path id="DejaVuSans-73" d="M 2834 3397 
L 2834 2853 
Q 2591 2978 2328 3040 
Q 2066 3103 1784 3103 
Q 1356 3103 1142 2972 
Q 928 2841 928 2578 
Q 928 2378 1081 2264 
Q 1234 2150 1697 2047 
L 1894 2003 
Q 2506 1872 2764 1633 
Q 3022 1394 3022 966 
Q 3022 478 2636 193 
Q 2250 -91 1575 -91 
Q 1294 -91 989 -36 
Q 684 19 347 128 
L 347 722 
Q 666 556 975 473 
Q 1284 391 1588 391 
Q 1994 391 2212 530 
Q 2431 669 2431 922 
Q 2431 1156 2273 1281 
Q 2116 1406 1581 1522 
L 1381 1569 
Q 847 1681 609 1914 
Q 372 2147 372 2553 
Q 372 3047 722 3315 
Q 1072 3584 1716 3584 
Q 2034 3584 2315 3537 
Q 2597 3491 2834 3397 
z
" transform="scale(0.015625)"/>
      <path id="DejaVuSans-74" d="M 1172 4494 
L 1172 3500 
L 2356 3500 
L 2356 3053 
L 1172 3053 
L 1172 1153 
Q 1172 725 1289 603 
Q 1406 481 1766 481 
L 2356 481 
L 2356 0 
L 1766 0 
Q 1100 0 847 248 
Q 594 497 594 1153 
L 594 3053 
L 172 3053 
L 172 3500 
L 594 3500 
L 594 4494 
L 1172 4494 
z
" transform="scale(0.015625)"/>
      <path id="DejaVuSans-75" d="M 544 1381 
L 544 3500 
L 1119 3500 
L 1119 1403 
Q 1119 906 1312 657 
Q 1506 409 1894 409 
Q 2359 409 2629 706 
Q 2900 1003 2900 1516 
L 2900 3500 
L 3475 3500 
L 3475 0 
L 2900 0 
L 2900 538 
Q 2691 219 2414 64 
Q 2138 -91 1772 -91 
Q 1169 -91 856 284 
Q 544 659 544 1381 
z
M 1991 3584 
L 1991 3584 
z
" transform="scale(0.015625)"/>
     </defs>
     <use xlink:href="#DejaVuSans-55"/>
     <use xlink:href="#DejaVuSans-6e" x="73.193359"/>
     <use xlink:href="#DejaVuSans-69" x="136.572266"/>
     <use xlink:href="#DejaVuSans-76" x="164.355469"/>
     <use xlink:href="#DejaVuSans-65" x="223.535156"/>
     <use xlink:href="#DejaVuSans-72" x="285.058594"/>
     <use xlink:href="#DejaVuSans-73" x="326.171875"/>
     <use xlink:href="#DejaVuSans-69" x="378.271484"/>
     <use xlink:href="#DejaVuSans-74" x="406.054688"/>
     <use xlink:href="#DejaVuSans-79" x="445.263672"/>
     <use xlink:href="#DejaVuSans-20" x="504.443359"/>
     <use xlink:href="#DejaVuSans-6f" x="536.230469"/>
     <use xlink:href="#DejaVuSans-66" x="597.412109"/>
     <use xlink:href="#DejaVuSans-20" x="632.617188"/>
     <use xlink:href="#DejaVuSans-44" x="664.404297"/>
     <use xlink:href="#DejaVuSans-61" x="741.40625"/>
     <use xlink:href="#DejaVuSans-68" x="802.685547"/>
     <use xlink:href="#DejaVuSans-6f" x="866.064453"/>
     <use xlink:href="#DejaVuSans-6d" x="927.246094"/>
     <use xlink:href="#DejaVuSans-65" x="1024.658203"/>
     <use xlink:href="#DejaVuSans-79" x="1086.181641"/>
     <use xlink:href="#DejaVuSans-20" x="1145.361328"/>
     <use xlink:href="#DejaVuSans-66" x="1177.148438"/>
     <use xlink:href="#DejaVuSans-6f" x="1212.353516"/>
     <use xlink:href="#DejaVuSans-75" x="1273.535156"/>
     <use xlink:href="#DejaVuSans-6e" x="1336.914062"/>
     <use xlink:href="#DejaVuSans-64" x="1400.292969"/>
     <use xlink:href="#DejaVuSans-65" x="1463.769531"/>
     <use xlink:href="#DejaVuSans-64" x="1525.292969"/>
    </g>
   </g>
   <g id="text_17">
    <g id="patch_17">
     <path d="M 88.501278 172.86013 
L 255.275028 172.86013 
Q 258.575028 172.86013 258.575028 169.56013 
L 258.575028 158.474193 
Q 258.575028 155.174193 255.275028 155.174193 
L 88.501278 155.174193 
Q 85.201278 155.174193 85.201278 158.474193 
L 85.201278 169.56013 
Q 85.201278 172.86013 88.501278 172.86013 
z
" style="fill: #ffffff; stroke: #000000; stroke-width: 0.5; stroke-linejoin: miter"/>
    </g>
    <!-- Mathieu Kérékou seizes power -->
    <g transform="translate(88.501278 167.272474) scale(0.11 -0.11)">
     <defs>
      <path id="DejaVuSans-4b" d="M 628 4666 
L 1259 4666 
L 1259 2694 
L 3353 4666 
L 4166 4666 
L 1850 2491 
L 4331 0 
L 3500 0 
L 1259 2247 
L 1259 0 
L 628 0 
L 628 4666 
z
" transform="scale(0.015625)"/>
      <path id="DejaVuSans-e9" d="M 3597 1894 
L 3597 1613 
L 953 1613 
Q 991 1019 1311 708 
Q 1631 397 2203 397 
Q 2534 397 2845 478 
Q 3156 559 3463 722 
L 3463 178 
Q 3153 47 2828 -22 
Q 2503 -91 2169 -91 
Q 1331 -91 842 396 
Q 353 884 353 1716 
Q 353 2575 817 3079 
Q 1281 3584 2069 3584 
Q 2775 3584 3186 3129 
Q 3597 2675 3597 1894 
z
M 3022 2063 
Q 3016 2534 2758 2815 
Q 2500 3097 2075 3097 
Q 1594 3097 1305 2825 
Q 1016 2553 972 2059 
L 3022 2063 
z
M 2466 5119 
L 3088 5119 
L 2070 3944 
L 1591 3944 
L 2466 5119 
z
" transform="scale(0.015625)"/>
      <path id="DejaVuSans-6b" d="M 581 4863 
L 1159 4863 
L 1159 1991 
L 2875 3500 
L 3609 3500 
L 1753 1863 
L 3688 0 
L 2938 0 
L 1159 1709 
L 1159 0 
L 581 0 
L 581 4863 
z
" transform="scale(0.015625)"/>
      <path id="DejaVuSans-7a" d="M 353 3500 
L 3084 3500 
L 3084 2975 
L 922 459 
L 3084 459 
L 3084 0 
L 275 0 
L 275 525 
L 2438 3041 
L 353 3041 
L 353 3500 
z
" transform="scale(0.015625)"/>
      <path id="DejaVuSans-77" d="M 269 3500 
L 844 3500 
L 1563 769 
L 2278 3500 
L 2956 3500 
L 3675 769 
L 4391 3500 
L 4966 3500 
L 4050 0 
L 3372 0 
L 2619 2869 
L 1863 0 
L 1184 0 
L 269 3500 
z
" transform="scale(0.015625)"/>
     </defs>
     <use xlink:href="#DejaVuSans-4d"/>
     <use xlink:href="#DejaVuSans-61" x="86.279297"/>
     <use xlink:href="#DejaVuSans-74" x="147.558594"/>
     <use xlink:href="#DejaVuSans-68" x="186.767578"/>
     <use xlink:href="#DejaVuSans-69" x="250.146484"/>
     <use xlink:href="#DejaVuSans-65" x="277.929688"/>
     <use xlink:href="#DejaVuSans-75" x="339.453125"/>
     <use xlink:href="#DejaVuSans-20" x="402.832031"/>
     <use xlink:href="#DejaVuSans-4b" x="434.619141"/>
     <use xlink:href="#DejaVuSans-e9" x="495.195312"/>
     <use xlink:href="#DejaVuSans-72" x="556.71875"/>
     <use xlink:href="#DejaVuSans-e9" x="595.582031"/>
     <use xlink:href="#DejaVuSans-6b" x="657.105469"/>
     <use xlink:href="#DejaVuSans-6f" x="711.390625"/>
     <use xlink:href="#DejaVuSans-75" x="772.572266"/>
     <use xlink:href="#DejaVuSans-20" x="835.951172"/>
     <use xlink:href="#DejaVuSans-73" x="867.738281"/>
     <use xlink:href="#DejaVuSans-65" x="919.837891"/>
     <use xlink:href="#DejaVuSans-69" x="981.361328"/>
     <use xlink:href="#DejaVuSans-7a" x="1009.144531"/>
     <use xlink:href="#DejaVuSans-65" x="1061.634766"/>
     <use xlink:href="#DejaVuSans-73" x="1123.158203"/>
     <use xlink:href="#DejaVuSans-20" x="1175.257812"/>
     <use xlink:href="#DejaVuSans-70" x="1207.044922"/>
     <use xlink:href="#DejaVuSans-6f" x="1270.521484"/>
     <use xlink:href="#DejaVuSans-77" x="1331.703125"/>
     <use xlink:href="#DejaVuSans-65" x="1413.490234"/>
     <use xlink:href="#DejaVuSans-72" x="1475.013672"/>
    </g>
   </g>
   <g id="text_18">
    <g id="patch_18">
     <path d="M 133.948466 199.549357 
L 255.275028 199.549357 
Q 258.575028 199.549357 258.575028 196.249357 
L 258.575028 185.603419 
Q 258.575028 182.303419 255.275028 182.303419 
L 133.948466 182.303419 
Q 130.648466 182.303419 130.648466 185.603419 
L 130.648466 196.249357 
Q 130.648466 199.549357 133.948466 199.549357 
z
" style="fill: #ffffff; stroke: #000000; stroke-width: 0.5; stroke-linejoin: miter"/>
    </g>
    <!-- École Nouvelle reform -->
    <g transform="translate(133.948466 193.9617) scale(0.11 -0.11)">
     <defs>
      <path id="DejaVuSans-c9" d="M 628 4666 
L 3578 4666 
L 3578 4134 
L 1259 4134 
L 1259 2753 
L 3481 2753 
L 3481 2222 
L 1259 2222 
L 1259 531 
L 3634 531 
L 3634 0 
L 628 0 
L 628 4666 
z
M 2268 5921 
L 2846 5921 
L 2134 5096 
L 1655 5096 
L 2268 5921 
z
" transform="scale(0.015625)"/>
      <path id="DejaVuSans-6c" d="M 603 4863 
L 1178 4863 
L 1178 0 
L 603 0 
L 603 4863 
z
" transform="scale(0.015625)"/>
      <path id="DejaVuSans-4e" d="M 628 4666 
L 1478 4666 
L 3547 763 
L 3547 4666 
L 4159 4666 
L 4159 0 
L 3309 0 
L 1241 3903 
L 1241 0 
L 628 0 
L 628 4666 
z
" transform="scale(0.015625)"/>
     </defs>
     <use xlink:href="#DejaVuSans-c9"/>
     <use xlink:href="#DejaVuSans-63" x="63.183594"/>
     <use xlink:href="#DejaVuSans-6f" x="118.164062"/>
     <use xlink:href="#DejaVuSans-6c" x="179.345703"/>
     <use xlink:href="#DejaVuSans-65" x="207.128906"/>
     <use xlink:href="#DejaVuSans-20" x="268.652344"/>
     <use xlink:href="#DejaVuSans-4e" x="300.439453"/>
     <use xlink:href="#DejaVuSans-6f" x="375.244141"/>
     <use xlink:href="#DejaVuSans-75" x="436.425781"/>
     <use xlink:href="#DejaVuSans-76" x="499.804688"/>
     <use xlink:href="#DejaVuSans-65" x="558.984375"/>
     <use xlink:href="#DejaVuSans-6c" x="620.507812"/>
     <use xlink:href="#DejaVuSans-6c" x="648.291016"/>
     <use xlink:href="#DejaVuSans-65" x="676.074219"/>
     <use xlink:href="#DejaVuSans-20" x="737.597656"/>
     <use xlink:href="#DejaVuSans-72" x="769.384766"/>
     <use xlink:href="#DejaVuSans-65" x="808.248047"/>
     <use xlink:href="#DejaVuSans-66" x="869.771484"/>
     <use xlink:href="#DejaVuSans-6f" x="904.976562"/>
     <use xlink:href="#DejaVuSans-72" x="966.158203"/>
     <use xlink:href="#DejaVuSans-6d" x="1005.521484"/>
    </g>
   </g>
   <g id="text_19">
    <g id="patch_19">
     <path d="M 61.802969 229.350661 
L 181.965937 229.350661 
Q 185.265938 229.350661 185.265938 226.050661 
L 185.265938 166.134349 
Q 185.265938 162.834349 181.965937 162.834349 
L 61.802969 162.834349 
Q 58.502969 162.834349 58.502969 166.134349 
L 58.502969 226.050661 
Q 58.502969 229.350661 61.802969 229.350661 
z
" style="fill: #ffffff; stroke: #000000; stroke-width: 0.5; stroke-linejoin: miter"/>
    </g>
    <!-- University of -->
    <g transform="translate(112.378906 174.49263) scale(0.11 -0.11)">
     <use xlink:href="#DejaVuSans-55"/>
     <use xlink:href="#DejaVuSans-6e" x="73.193359"/>
     <use xlink:href="#DejaVuSans-69" x="136.572266"/>
     <use xlink:href="#DejaVuSans-76" x="164.355469"/>
     <use xlink:href="#DejaVuSans-65" x="223.535156"/>
     <use xlink:href="#DejaVuSans-72" x="285.058594"/>
     <use xlink:href="#DejaVuSans-73" x="326.171875"/>
     <use xlink:href="#DejaVuSans-69" x="378.271484"/>
     <use xlink:href="#DejaVuSans-74" x="406.054688"/>
     <use xlink:href="#DejaVuSans-79" x="445.263672"/>
     <use xlink:href="#DejaVuSans-20" x="504.443359"/>
     <use xlink:href="#DejaVuSans-6f" x="536.230469"/>
     <use xlink:href="#DejaVuSans-66" x="597.412109"/>
    </g>
    <!-- Dahomey renamed to -->
    <g transform="translate(61.802969 186.810224) scale(0.11 -0.11)">
     <use xlink:href="#DejaVuSans-44"/>
     <use xlink:href="#DejaVuSans-61" x="77.001953"/>
     <use xlink:href="#DejaVuSans-68" x="138.28125"/>
     <use xlink:href="#DejaVuSans-6f" x="201.660156"/>
     <use xlink:href="#DejaVuSans-6d" x="262.841797"/>
     <use xlink:href="#DejaVuSans-65" x="360.253906"/>
     <use xlink:href="#DejaVuSans-79" x="421.777344"/>
     <use xlink:href="#DejaVuSans-20" x="480.957031"/>
     <use xlink:href="#DejaVuSans-72" x="512.744141"/>
     <use xlink:href="#DejaVuSans-65" x="551.607422"/>
     <use xlink:href="#DejaVuSans-6e" x="613.130859"/>
     <use xlink:href="#DejaVuSans-61" x="676.509766"/>
     <use xlink:href="#DejaVuSans-6d" x="737.789062"/>
     <use xlink:href="#DejaVuSans-65" x="835.201172"/>
     <use xlink:href="#DejaVuSans-64" x="896.724609"/>
     <use xlink:href="#DejaVuSans-20" x="960.201172"/>
     <use xlink:href="#DejaVuSans-74" x="991.988281"/>
     <use xlink:href="#DejaVuSans-6f" x="1031.197266"/>
    </g>
    <!-- National -->
    <g transform="translate(136.128594 199.127818) scale(0.11 -0.11)">
     <use xlink:href="#DejaVuSans-4e"/>
     <use xlink:href="#DejaVuSans-61" x="74.804688"/>
     <use xlink:href="#DejaVuSans-74" x="136.083984"/>
     <use xlink:href="#DejaVuSans-69" x="175.292969"/>
     <use xlink:href="#DejaVuSans-6f" x="203.076172"/>
     <use xlink:href="#DejaVuSans-6e" x="264.257812"/>
     <use xlink:href="#DejaVuSans-61" x="327.636719"/>
     <use xlink:href="#DejaVuSans-6c" x="388.916016"/>
    </g>
    <!-- University of -->
    <g transform="translate(112.378906 211.445411) scale(0.11 -0.11)">
     <use xlink:href="#DejaVuSans-55"/>
     <use xlink:href="#DejaVuSans-6e" x="73.193359"/>
     <use xlink:href="#DejaVuSans-69" x="136.572266"/>
     <use xlink:href="#DejaVuSans-76" x="164.355469"/>
     <use xlink:href="#DejaVuSans-65" x="223.535156"/>
     <use xlink:href="#DejaVuSans-72" x="285.058594"/>
     <use xlink:href="#DejaVuSans-73" x="326.171875"/>
     <use xlink:href="#DejaVuSans-69" x="378.271484"/>
     <use xlink:href="#DejaVuSans-74" x="406.054688"/>
     <use xlink:href="#DejaVuSans-79" x="445.263672"/>
     <use xlink:href="#DejaVuSans-20" x="504.443359"/>
     <use xlink:href="#DejaVuSans-6f" x="536.230469"/>
     <use xlink:href="#DejaVuSans-66" x="597.412109"/>
    </g>
    <!-- Benin -->
    <g transform="translate(150.652031 223.763005) scale(0.11 -0.11)">
     <use xlink:href="#DejaVuSans-42"/>
     <use xlink:href="#DejaVuSans-65" x="68.603516"/>
     <use xlink:href="#DejaVuSans-6e" x="130.126953"/>
     <use xlink:href="#DejaVuSans-69" x="193.505859"/>
     <use xlink:href="#DejaVuSans-6e" x="221.289062"/>
    </g>
   </g>
   <g id="text_20">
    <g id="patch_20">
     <path d="M 119.11125 358.335695 
L 181.965937 358.335695 
Q 185.265938 358.335695 185.265938 355.035695 
L 185.265938 332.072164 
Q 185.265938 328.772164 181.965937 328.772164 
L 119.11125 328.772164 
Q 115.81125 328.772164 115.81125 332.072164 
L 115.81125 355.035695 
Q 115.81125 358.335695 119.11125 358.335695 
z
" style="fill: #ffffff; stroke: #000000; stroke-width: 0.5; stroke-linejoin: miter"/>
    </g>
    <!-- National -->
    <g transform="translate(136.128594 340.430445) scale(0.11 -0.11)">
     <use xlink:href="#DejaVuSans-4e"/>
     <use xlink:href="#DejaVuSans-61" x="74.804688"/>
     <use xlink:href="#DejaVuSans-74" x="136.083984"/>
     <use xlink:href="#DejaVuSans-69" x="175.292969"/>
     <use xlink:href="#DejaVuSans-6f" x="203.076172"/>
     <use xlink:href="#DejaVuSans-6e" x="264.257812"/>
     <use xlink:href="#DejaVuSans-61" x="327.636719"/>
     <use xlink:href="#DejaVuSans-6c" x="388.916016"/>
    </g>
    <!-- Conference -->
    <g transform="translate(119.11125 352.748039) scale(0.11 -0.11)">
     <defs>
      <path id="DejaVuSans-43" d="M 4122 4306 
L 4122 3641 
Q 3803 3938 3442 4084 
Q 3081 4231 2675 4231 
Q 1875 4231 1450 3742 
Q 1025 3253 1025 2328 
Q 1025 1406 1450 917 
Q 1875 428 2675 428 
Q 3081 428 3442 575 
Q 3803 722 4122 1019 
L 4122 359 
Q 3791 134 3420 21 
Q 3050 -91 2638 -91 
Q 1578 -91 968 557 
Q 359 1206 359 2328 
Q 359 3453 968 4101 
Q 1578 4750 2638 4750 
Q 3056 4750 3426 4639 
Q 3797 4528 4122 4306 
z
" transform="scale(0.015625)"/>
     </defs>
     <use xlink:href="#DejaVuSans-43"/>
     <use xlink:href="#DejaVuSans-6f" x="69.824219"/>
     <use xlink:href="#DejaVuSans-6e" x="131.005859"/>
     <use xlink:href="#DejaVuSans-66" x="194.384766"/>
     <use xlink:href="#DejaVuSans-65" x="229.589844"/>
     <use xlink:href="#DejaVuSans-72" x="291.113281"/>
     <use xlink:href="#DejaVuSans-65" x="329.976562"/>
     <use xlink:href="#DejaVuSans-6e" x="391.5"/>
     <use xlink:href="#DejaVuSans-63" x="454.878906"/>
     <use xlink:href="#DejaVuSans-65" x="509.859375"/>
    </g>
   </g>
   <g id="text_21">
    <g id="patch_21">
     <path d="M 99.172031 477.155588 
L 181.965937 477.155588 
Q 185.265938 477.155588 185.265938 473.855588 
L 185.265938 438.574463 
Q 185.265938 435.274463 181.965937 435.274463 
L 99.172031 435.274463 
Q 95.872031 435.274463 95.872031 438.574463 
L 95.872031 473.855588 
Q 95.872031 477.155588 99.172031 477.155588 
z
" style="fill: #ffffff; stroke: #000000; stroke-width: 0.5; stroke-linejoin: miter"/>
    </g>
    <!-- UNB renamed -->
    <g transform="translate(105.421406 446.932745) scale(0.11 -0.11)">
     <use xlink:href="#DejaVuSans-55"/>
     <use xlink:href="#DejaVuSans-4e" x="73.193359"/>
     <use xlink:href="#DejaVuSans-42" x="147.998047"/>
     <use xlink:href="#DejaVuSans-20" x="216.601562"/>
     <use xlink:href="#DejaVuSans-72" x="248.388672"/>
     <use xlink:href="#DejaVuSans-65" x="287.251953"/>
     <use xlink:href="#DejaVuSans-6e" x="348.775391"/>
     <use xlink:href="#DejaVuSans-61" x="412.154297"/>
     <use xlink:href="#DejaVuSans-6d" x="473.433594"/>
     <use xlink:href="#DejaVuSans-65" x="570.845703"/>
     <use xlink:href="#DejaVuSans-64" x="632.369141"/>
    </g>
    <!-- University of -->
    <g transform="translate(112.378906 459.250338) scale(0.11 -0.11)">
     <use xlink:href="#DejaVuSans-55"/>
     <use xlink:href="#DejaVuSans-6e" x="73.193359"/>
     <use xlink:href="#DejaVuSans-69" x="136.572266"/>
     <use xlink:href="#DejaVuSans-76" x="164.355469"/>
     <use xlink:href="#DejaVuSans-65" x="223.535156"/>
     <use xlink:href="#DejaVuSans-72" x="285.058594"/>
     <use xlink:href="#DejaVuSans-73" x="326.171875"/>
     <use xlink:href="#DejaVuSans-69" x="378.271484"/>
     <use xlink:href="#DejaVuSans-74" x="406.054688"/>
     <use xlink:href="#DejaVuSans-79" x="445.263672"/>
     <use xlink:href="#DejaVuSans-20" x="504.443359"/>
     <use xlink:href="#DejaVuSans-6f" x="536.230469"/>
     <use xlink:href="#DejaVuSans-66" x="597.412109"/>
    </g>
    <!-- Abomey-Calavi -->
    <g transform="translate(99.172031 471.567932) scale(0.11 -0.11)">
     <defs>
      <path id="DejaVuSans-41" d="M 2188 4044 
L 1331 1722 
L 3047 1722 
L 2188 4044 
z
M 1831 4666 
L 2547 4666 
L 4325 0 
L 3669 0 
L 3244 1197 
L 1141 1197 
L 716 0 
L 50 0 
L 1831 4666 
z
" transform="scale(0.015625)"/>
      <path id="DejaVuSans-62" d="M 3116 1747 
Q 3116 2381 2855 2742 
Q 2594 3103 2138 3103 
Q 1681 3103 1420 2742 
Q 1159 2381 1159 1747 
Q 1159 1113 1420 752 
Q 1681 391 2138 391 
Q 2594 391 2855 752 
Q 3116 1113 3116 1747 
z
M 1159 2969 
Q 1341 3281 1617 3432 
Q 1894 3584 2278 3584 
Q 2916 3584 3314 3078 
Q 3713 2572 3713 1747 
Q 3713 922 3314 415 
Q 2916 -91 2278 -91 
Q 1894 -91 1617 61 
Q 1341 213 1159 525 
L 1159 0 
L 581 0 
L 581 4863 
L 1159 4863 
L 1159 2969 
z
" transform="scale(0.015625)"/>
      <path id="DejaVuSans-2d" d="M 313 2009 
L 1997 2009 
L 1997 1497 
L 313 1497 
L 313 2009 
z
" transform="scale(0.015625)"/>
     </defs>
     <use xlink:href="#DejaVuSans-41"/>
     <use xlink:href="#DejaVuSans-62" x="68.408203"/>
     <use xlink:href="#DejaVuSans-6f" x="131.884766"/>
     <use xlink:href="#DejaVuSans-6d" x="193.066406"/>
     <use xlink:href="#DejaVuSans-65" x="290.478516"/>
     <use xlink:href="#DejaVuSans-79" x="352.001953"/>
     <use xlink:href="#DejaVuSans-2d" x="409.431641"/>
     <use xlink:href="#DejaVuSans-43" x="445.515625"/>
     <use xlink:href="#DejaVuSans-61" x="515.339844"/>
     <use xlink:href="#DejaVuSans-6c" x="576.619141"/>
     <use xlink:href="#DejaVuSans-61" x="604.402344"/>
     <use xlink:href="#DejaVuSans-76" x="665.681641"/>
     <use xlink:href="#DejaVuSans-69" x="724.861328"/>
    </g>
   </g>
   <g id="text_22">
    <g id="patch_22">
     <path d="M 89.601278 472.218162 
L 255.275028 472.218162 
Q 258.575028 472.218162 258.575028 468.918162 
L 258.575028 458.272225 
Q 258.575028 454.972225 255.275028 454.972225 
L 89.601278 454.972225 
Q 86.301278 454.972225 86.301278 458.272225 
L 86.301278 468.918162 
Q 86.301278 472.218162 89.601278 472.218162 
z
" style="fill: #ffffff; stroke: #000000; stroke-width: 0.5; stroke-linejoin: miter"/>
    </g>
    <!-- University of Parakou founded -->
    <g transform="translate(89.601278 466.630506) scale(0.11 -0.11)">
     <defs>
      <path id="DejaVuSans-50" d="M 1259 4147 
L 1259 2394 
L 2053 2394 
Q 2494 2394 2734 2622 
Q 2975 2850 2975 3272 
Q 2975 3691 2734 3919 
Q 2494 4147 2053 4147 
L 1259 4147 
z
M 628 4666 
L 2053 4666 
Q 2838 4666 3239 4311 
Q 3641 3956 3641 3272 
Q 3641 2581 3239 2228 
Q 2838 1875 2053 1875 
L 1259 1875 
L 1259 0 
L 628 0 
L 628 4666 
z
" transform="scale(0.015625)"/>
     </defs>
     <use xlink:href="#DejaVuSans-55"/>
     <use xlink:href="#DejaVuSans-6e" x="73.193359"/>
     <use xlink:href="#DejaVuSans-69" x="136.572266"/>
     <use xlink:href="#DejaVuSans-76" x="164.355469"/>
     <use xlink:href="#DejaVuSans-65" x="223.535156"/>
     <use xlink:href="#DejaVuSans-72" x="285.058594"/>
     <use xlink:href="#DejaVuSans-73" x="326.171875"/>
     <use xlink:href="#DejaVuSans-69" x="378.271484"/>
     <use xlink:href="#DejaVuSans-74" x="406.054688"/>
     <use xlink:href="#DejaVuSans-79" x="445.263672"/>
     <use xlink:href="#DejaVuSans-20" x="504.443359"/>
     <use xlink:href="#DejaVuSans-6f" x="536.230469"/>
     <use xlink:href="#DejaVuSans-66" x="597.412109"/>
     <use xlink:href="#DejaVuSans-20" x="632.617188"/>
     <use xlink:href="#DejaVuSans-50" x="664.404297"/>
     <use xlink:href="#DejaVuSans-61" x="720.207031"/>
     <use xlink:href="#DejaVuSans-72" x="781.486328"/>
     <use xlink:href="#DejaVuSans-61" x="822.599609"/>
     <use xlink:href="#DejaVuSans-6b" x="883.878906"/>
     <use xlink:href="#DejaVuSans-6f" x="938.164062"/>
     <use xlink:href="#DejaVuSans-75" x="999.345703"/>
     <use xlink:href="#DejaVuSans-20" x="1062.724609"/>
     <use xlink:href="#DejaVuSans-66" x="1094.511719"/>
     <use xlink:href="#DejaVuSans-6f" x="1129.716797"/>
     <use xlink:href="#DejaVuSans-75" x="1190.898438"/>
     <use xlink:href="#DejaVuSans-6e" x="1254.277344"/>
     <use xlink:href="#DejaVuSans-64" x="1317.65625"/>
     <use xlink:href="#DejaVuSans-65" x="1381.132812"/>
     <use xlink:href="#DejaVuSans-64" x="1442.65625"/>
    </g>
   </g>
   <g id="text_23">
    <g id="patch_23">
     <path d="M 108.869219 568.869167 
L 181.965937 568.869167 
Q 185.265938 568.869167 185.265938 565.569167 
L 185.265938 542.605636 
Q 185.265938 539.305636 181.965937 539.305636 
L 108.869219 539.305636 
Q 105.569219 539.305636 105.569219 542.605636 
L 105.569219 565.569167 
Q 105.569219 568.869167 108.869219 568.869167 
z
" style="fill: #ffffff; stroke: #000000; stroke-width: 0.5; stroke-linejoin: miter"/>
    </g>
    <!-- LMD reform -->
    <g transform="translate(117.689844 550.963917) scale(0.11 -0.11)">
     <defs>
      <path id="DejaVuSans-4c" d="M 628 4666 
L 1259 4666 
L 1259 531 
L 3531 531 
L 3531 0 
L 628 0 
L 628 4666 
z
" transform="scale(0.015625)"/>
     </defs>
     <use xlink:href="#DejaVuSans-4c"/>
     <use xlink:href="#DejaVuSans-4d" x="55.712891"/>
     <use xlink:href="#DejaVuSans-44" x="141.992188"/>
     <use xlink:href="#DejaVuSans-20" x="218.994141"/>
     <use xlink:href="#DejaVuSans-72" x="250.78125"/>
     <use xlink:href="#DejaVuSans-65" x="289.644531"/>
     <use xlink:href="#DejaVuSans-66" x="351.167969"/>
     <use xlink:href="#DejaVuSans-6f" x="386.373047"/>
     <use xlink:href="#DejaVuSans-72" x="447.554688"/>
     <use xlink:href="#DejaVuSans-6d" x="486.917969"/>
    </g>
    <!-- implemented -->
    <g transform="translate(108.869219 563.281511) scale(0.11 -0.11)">
     <use xlink:href="#DejaVuSans-69"/>
     <use xlink:href="#DejaVuSans-6d" x="27.783203"/>
     <use xlink:href="#DejaVuSans-70" x="125.195312"/>
     <use xlink:href="#DejaVuSans-6c" x="188.671875"/>
     <use xlink:href="#DejaVuSans-65" x="216.455078"/>
     <use xlink:href="#DejaVuSans-6d" x="277.978516"/>
     <use xlink:href="#DejaVuSans-65" x="375.390625"/>
     <use xlink:href="#DejaVuSans-6e" x="436.914062"/>
     <use xlink:href="#DejaVuSans-74" x="500.292969"/>
     <use xlink:href="#DejaVuSans-65" x="539.501953"/>
     <use xlink:href="#DejaVuSans-64" x="601.025391"/>
    </g>
   </g>
   <g id="text_24">
    <g id="patch_24">
     <path d="M 401.89321 43.061419 
L 523.011804 43.061419 
Q 526.311804 43.061419 526.311804 39.761419 
L 526.311804 29.115482 
Q 526.311804 25.815482 523.011804 25.815482 
L 401.89321 25.815482 
Q 398.59321 25.815482 398.59321 29.115482 
L 398.59321 39.761419 
Q 398.59321 43.061419 401.89321 43.061419 
z
" style="fill: #ffffff; stroke: #000000; stroke-width: 0.5; stroke-linejoin: miter"/>
    </g>
    <!-- Independence of Togo -->
    <g transform="translate(401.89321 37.473763) scale(0.11 -0.11)">
     <defs>
      <path id="DejaVuSans-54" d="M -19 4666 
L 3928 4666 
L 3928 4134 
L 2272 4134 
L 2272 0 
L 1638 0 
L 1638 4134 
L -19 4134 
L -19 4666 
z
" transform="scale(0.015625)"/>
      <path id="DejaVuSans-67" d="M 2906 1791 
Q 2906 2416 2648 2759 
Q 2391 3103 1925 3103 
Q 1463 3103 1205 2759 
Q 947 2416 947 1791 
Q 947 1169 1205 825 
Q 1463 481 1925 481 
Q 2391 481 2648 825 
Q 2906 1169 2906 1791 
z
M 3481 434 
Q 3481 -459 3084 -895 
Q 2688 -1331 1869 -1331 
Q 1566 -1331 1297 -1286 
Q 1028 -1241 775 -1147 
L 775 -588 
Q 1028 -725 1275 -790 
Q 1522 -856 1778 -856 
Q 2344 -856 2625 -561 
Q 2906 -266 2906 331 
L 2906 616 
Q 2728 306 2450 153 
Q 2172 0 1784 0 
Q 1141 0 747 490 
Q 353 981 353 1791 
Q 353 2603 747 3093 
Q 1141 3584 1784 3584 
Q 2172 3584 2450 3431 
Q 2728 3278 2906 2969 
L 2906 3500 
L 3481 3500 
L 3481 434 
z
" transform="scale(0.015625)"/>
     </defs>
     <use xlink:href="#DejaVuSans-49"/>
     <use xlink:href="#DejaVuSans-6e" x="29.492188"/>
     <use xlink:href="#DejaVuSans-64" x="92.871094"/>
     <use xlink:href="#DejaVuSans-65" x="156.347656"/>
     <use xlink:href="#DejaVuSans-70" x="217.871094"/>
     <use xlink:href="#DejaVuSans-65" x="281.347656"/>
     <use xlink:href="#DejaVuSans-6e" x="342.871094"/>
     <use xlink:href="#DejaVuSans-64" x="406.25"/>
     <use xlink:href="#DejaVuSans-65" x="469.726562"/>
     <use xlink:href="#DejaVuSans-6e" x="531.25"/>
     <use xlink:href="#DejaVuSans-63" x="594.628906"/>
     <use xlink:href="#DejaVuSans-65" x="649.609375"/>
     <use xlink:href="#DejaVuSans-20" x="711.132812"/>
     <use xlink:href="#DejaVuSans-6f" x="742.919922"/>
     <use xlink:href="#DejaVuSans-66" x="804.101562"/>
     <use xlink:href="#DejaVuSans-20" x="839.306641"/>
     <use xlink:href="#DejaVuSans-54" x="871.09375"/>
     <use xlink:href="#DejaVuSans-6f" x="915.177734"/>
     <use xlink:href="#DejaVuSans-67" x="976.359375"/>
     <use xlink:href="#DejaVuSans-6f" x="1039.835938"/>
    </g>
   </g>
   <g id="text_25">
    <g id="patch_25">
     <path d="M 401.89321 71.191212 
L 494.867273 71.191212 
Q 498.167273 71.191212 498.167273 67.891212 
L 498.167273 57.245274 
Q 498.167273 53.945274 494.867273 53.945274 
L 401.89321 53.945274 
Q 398.59321 53.945274 398.59321 57.245274 
L 398.59321 67.891212 
Q 398.59321 71.191212 401.89321 71.191212 
z
" style="fill: #ffffff; stroke: #000000; stroke-width: 0.5; stroke-linejoin: miter"/>
    </g>
    <!-- Coup d'Etat Togo -->
    <g transform="translate(401.89321 65.603555) scale(0.11 -0.11)">
     <defs>
      <path id="DejaVuSans-27" d="M 1147 4666 
L 1147 2931 
L 616 2931 
L 616 4666 
L 1147 4666 
z
" transform="scale(0.015625)"/>
      <path id="DejaVuSans-45" d="M 628 4666 
L 3578 4666 
L 3578 4134 
L 1259 4134 
L 1259 2753 
L 3481 2753 
L 3481 2222 
L 1259 2222 
L 1259 531 
L 3634 531 
L 3634 0 
L 628 0 
L 628 4666 
z
" transform="scale(0.015625)"/>
     </defs>
     <use xlink:href="#DejaVuSans-43"/>
     <use xlink:href="#DejaVuSans-6f" x="69.824219"/>
     <use xlink:href="#DejaVuSans-75" x="131.005859"/>
     <use xlink:href="#DejaVuSans-70" x="194.384766"/>
     <use xlink:href="#DejaVuSans-20" x="257.861328"/>
     <use xlink:href="#DejaVuSans-64" x="289.648438"/>
     <use xlink:href="#DejaVuSans-27" x="353.125"/>
     <use xlink:href="#DejaVuSans-45" x="380.615234"/>
     <use xlink:href="#DejaVuSans-74" x="443.798828"/>
     <use xlink:href="#DejaVuSans-61" x="483.007812"/>
     <use xlink:href="#DejaVuSans-74" x="544.287109"/>
     <use xlink:href="#DejaVuSans-20" x="583.496094"/>
     <use xlink:href="#DejaVuSans-54" x="615.283203"/>
     <use xlink:href="#DejaVuSans-6f" x="659.367188"/>
     <use xlink:href="#DejaVuSans-67" x="720.548828"/>
     <use xlink:href="#DejaVuSans-6f" x="784.025391"/>
    </g>
   </g>
   <g id="text_26">
    <g id="patch_26">
     <path d="M 401.89321 121.652317 
L 521.25696 121.652317 
Q 524.55696 121.652317 524.55696 118.352317 
L 524.55696 94.948786 
Q 524.55696 91.648786 521.25696 91.648786 
L 401.89321 91.648786 
Q 398.59321 91.648786 398.59321 94.948786 
L 398.59321 118.352317 
Q 398.59321 121.652317 401.89321 121.652317 
z
" style="fill: #ffffff; stroke: #000000; stroke-width: 0.5; stroke-linejoin: miter"/>
    </g>
    <!-- Gnassingbé Eyadéma -->
    <g transform="translate(401.89321 103.747067) scale(0.11 -0.11)">
     <defs>
      <path id="DejaVuSans-47" d="M 3809 666 
L 3809 1919 
L 2778 1919 
L 2778 2438 
L 4434 2438 
L 4434 434 
Q 4069 175 3628 42 
Q 3188 -91 2688 -91 
Q 1594 -91 976 548 
Q 359 1188 359 2328 
Q 359 3472 976 4111 
Q 1594 4750 2688 4750 
Q 3144 4750 3555 4637 
Q 3966 4525 4313 4306 
L 4313 3634 
Q 3963 3931 3569 4081 
Q 3175 4231 2741 4231 
Q 1884 4231 1454 3753 
Q 1025 3275 1025 2328 
Q 1025 1384 1454 906 
Q 1884 428 2741 428 
Q 3075 428 3337 486 
Q 3600 544 3809 666 
z
" transform="scale(0.015625)"/>
     </defs>
     <use xlink:href="#DejaVuSans-47"/>
     <use xlink:href="#DejaVuSans-6e" x="77.490234"/>
     <use xlink:href="#DejaVuSans-61" x="140.869141"/>
     <use xlink:href="#DejaVuSans-73" x="202.148438"/>
     <use xlink:href="#DejaVuSans-73" x="254.248047"/>
     <use xlink:href="#DejaVuSans-69" x="306.347656"/>
     <use xlink:href="#DejaVuSans-6e" x="334.130859"/>
     <use xlink:href="#DejaVuSans-67" x="397.509766"/>
     <use xlink:href="#DejaVuSans-62" x="460.986328"/>
     <use xlink:href="#DejaVuSans-e9" x="524.462891"/>
     <use xlink:href="#DejaVuSans-20" x="585.986328"/>
     <use xlink:href="#DejaVuSans-45" x="617.773438"/>
     <use xlink:href="#DejaVuSans-79" x="680.957031"/>
     <use xlink:href="#DejaVuSans-61" x="740.136719"/>
     <use xlink:href="#DejaVuSans-64" x="801.416016"/>
     <use xlink:href="#DejaVuSans-e9" x="864.892578"/>
     <use xlink:href="#DejaVuSans-6d" x="926.416016"/>
     <use xlink:href="#DejaVuSans-61" x="1023.828125"/>
    </g>
    <!-- seizes power -->
    <g transform="translate(401.89321 116.064661) scale(0.11 -0.11)">
     <use xlink:href="#DejaVuSans-73"/>
     <use xlink:href="#DejaVuSans-65" x="52.099609"/>
     <use xlink:href="#DejaVuSans-69" x="113.623047"/>
     <use xlink:href="#DejaVuSans-7a" x="141.40625"/>
     <use xlink:href="#DejaVuSans-65" x="193.896484"/>
     <use xlink:href="#DejaVuSans-73" x="255.419922"/>
     <use xlink:href="#DejaVuSans-20" x="307.519531"/>
     <use xlink:href="#DejaVuSans-70" x="339.306641"/>
     <use xlink:href="#DejaVuSans-6f" x="402.783203"/>
     <use xlink:href="#DejaVuSans-77" x="463.964844"/>
     <use xlink:href="#DejaVuSans-65" x="545.751953"/>
     <use xlink:href="#DejaVuSans-72" x="607.275391"/>
    </g>
   </g>
   <g id="text_27">
    <g id="patch_27">
     <path d="M 475.202301 150.698324 
L 628.375582 150.698324 
Q 631.675582 150.698324 631.675582 147.398324 
L 631.675582 136.752387 
Q 631.675582 133.452387 628.375582 133.452387 
L 475.202301 133.452387 
Q 471.902301 133.452387 471.902301 136.752387 
L 471.902301 147.398324 
Q 471.902301 150.698324 475.202301 150.698324 
z
" style="fill: #ffffff; stroke: #000000; stroke-width: 0.5; stroke-linejoin: miter"/>
    </g>
    <!-- University of Benin founded -->
    <g transform="translate(475.202301 145.110668) scale(0.11 -0.11)">
     <use xlink:href="#DejaVuSans-55"/>
     <use xlink:href="#DejaVuSans-6e" x="73.193359"/>
     <use xlink:href="#DejaVuSans-69" x="136.572266"/>
     <use xlink:href="#DejaVuSans-76" x="164.355469"/>
     <use xlink:href="#DejaVuSans-65" x="223.535156"/>
     <use xlink:href="#DejaVuSans-72" x="285.058594"/>
     <use xlink:href="#DejaVuSans-73" x="326.171875"/>
     <use xlink:href="#DejaVuSans-69" x="378.271484"/>
     <use xlink:href="#DejaVuSans-74" x="406.054688"/>
     <use xlink:href="#DejaVuSans-79" x="445.263672"/>
     <use xlink:href="#DejaVuSans-20" x="504.443359"/>
     <use xlink:href="#DejaVuSans-6f" x="536.230469"/>
     <use xlink:href="#DejaVuSans-66" x="597.412109"/>
     <use xlink:href="#DejaVuSans-20" x="632.617188"/>
     <use xlink:href="#DejaVuSans-42" x="664.404297"/>
     <use xlink:href="#DejaVuSans-65" x="733.007812"/>
     <use xlink:href="#DejaVuSans-6e" x="794.53125"/>
     <use xlink:href="#DejaVuSans-69" x="857.910156"/>
     <use xlink:href="#DejaVuSans-6e" x="885.693359"/>
     <use xlink:href="#DejaVuSans-20" x="949.072266"/>
     <use xlink:href="#DejaVuSans-66" x="980.859375"/>
     <use xlink:href="#DejaVuSans-6f" x="1016.064453"/>
     <use xlink:href="#DejaVuSans-75" x="1077.246094"/>
     <use xlink:href="#DejaVuSans-6e" x="1140.625"/>
     <use xlink:href="#DejaVuSans-64" x="1204.003906"/>
     <use xlink:href="#DejaVuSans-65" x="1267.480469"/>
     <use xlink:href="#DejaVuSans-64" x="1329.003906"/>
    </g>
   </g>
   <g id="text_28">
    <g id="patch_28">
     <path d="M 328.584119 165.345118 
L 474.818807 165.345118 
Q 478.118807 165.345118 478.118807 162.045118 
L 478.118807 151.399181 
Q 478.118807 148.099181 474.818807 148.099181 
L 328.584119 148.099181 
Q 325.284119 148.099181 325.284119 151.399181 
L 325.284119 162.045118 
Q 325.284119 165.345118 328.584119 165.345118 
z
" style="fill: #ffffff; stroke: #000000; stroke-width: 0.5; stroke-linejoin: miter"/>
    </g>
    <!-- Youth associations banned -->
    <g transform="translate(328.584119 159.757462) scale(0.11 -0.11)">
     <defs>
      <path id="DejaVuSans-59" d="M -13 4666 
L 666 4666 
L 1959 2747 
L 3244 4666 
L 3922 4666 
L 2272 2222 
L 2272 0 
L 1638 0 
L 1638 2222 
L -13 4666 
z
" transform="scale(0.015625)"/>
     </defs>
     <use xlink:href="#DejaVuSans-59"/>
     <use xlink:href="#DejaVuSans-6f" x="47.833984"/>
     <use xlink:href="#DejaVuSans-75" x="109.015625"/>
     <use xlink:href="#DejaVuSans-74" x="172.394531"/>
     <use xlink:href="#DejaVuSans-68" x="211.603516"/>
     <use xlink:href="#DejaVuSans-20" x="274.982422"/>
     <use xlink:href="#DejaVuSans-61" x="306.769531"/>
     <use xlink:href="#DejaVuSans-73" x="368.048828"/>
     <use xlink:href="#DejaVuSans-73" x="420.148438"/>
     <use xlink:href="#DejaVuSans-6f" x="472.248047"/>
     <use xlink:href="#DejaVuSans-63" x="533.429688"/>
     <use xlink:href="#DejaVuSans-69" x="588.410156"/>
     <use xlink:href="#DejaVuSans-61" x="616.193359"/>
     <use xlink:href="#DejaVuSans-74" x="677.472656"/>
     <use xlink:href="#DejaVuSans-69" x="716.681641"/>
     <use xlink:href="#DejaVuSans-6f" x="744.464844"/>
     <use xlink:href="#DejaVuSans-6e" x="805.646484"/>
     <use xlink:href="#DejaVuSans-73" x="869.025391"/>
     <use xlink:href="#DejaVuSans-20" x="921.125"/>
     <use xlink:href="#DejaVuSans-62" x="952.912109"/>
     <use xlink:href="#DejaVuSans-61" x="1016.388672"/>
     <use xlink:href="#DejaVuSans-6e" x="1077.667969"/>
     <use xlink:href="#DejaVuSans-6e" x="1141.046875"/>
     <use xlink:href="#DejaVuSans-65" x="1204.425781"/>
     <use xlink:href="#DejaVuSans-64" x="1265.949219"/>
    </g>
   </g>
   <g id="text_29">
    <g id="patch_29">
     <path d="M 475.202301 183.965849 
L 620.278551 183.965849 
Q 623.578551 183.965849 623.578551 180.665849 
L 623.578551 170.019911 
Q 623.578551 166.719911 620.278551 166.719911 
L 475.202301 166.719911 
Q 471.902301 166.719911 471.902301 170.019911 
L 471.902301 180.665849 
Q 471.902301 183.965849 475.202301 183.965849 
z
" style="fill: #ffffff; stroke: #000000; stroke-width: 0.5; stroke-linejoin: miter"/>
    </g>
    <!-- Official inauguration of UB -->
    <g transform="translate(475.202301 178.378193) scale(0.11 -0.11)">
     <defs>
      <path id="DejaVuSans-4f" d="M 2522 4238 
Q 1834 4238 1429 3725 
Q 1025 3213 1025 2328 
Q 1025 1447 1429 934 
Q 1834 422 2522 422 
Q 3209 422 3611 934 
Q 4013 1447 4013 2328 
Q 4013 3213 3611 3725 
Q 3209 4238 2522 4238 
z
M 2522 4750 
Q 3503 4750 4090 4092 
Q 4678 3434 4678 2328 
Q 4678 1225 4090 567 
Q 3503 -91 2522 -91 
Q 1538 -91 948 565 
Q 359 1222 359 2328 
Q 359 3434 948 4092 
Q 1538 4750 2522 4750 
z
" transform="scale(0.015625)"/>
     </defs>
     <use xlink:href="#DejaVuSans-4f"/>
     <use xlink:href="#DejaVuSans-66" x="78.710938"/>
     <use xlink:href="#DejaVuSans-66" x="113.916016"/>
     <use xlink:href="#DejaVuSans-69" x="149.121094"/>
     <use xlink:href="#DejaVuSans-63" x="176.904297"/>
     <use xlink:href="#DejaVuSans-69" x="231.884766"/>
     <use xlink:href="#DejaVuSans-61" x="259.667969"/>
     <use xlink:href="#DejaVuSans-6c" x="320.947266"/>
     <use xlink:href="#DejaVuSans-20" x="348.730469"/>
     <use xlink:href="#DejaVuSans-69" x="380.517578"/>
     <use xlink:href="#DejaVuSans-6e" x="408.300781"/>
     <use xlink:href="#DejaVuSans-61" x="471.679688"/>
     <use xlink:href="#DejaVuSans-75" x="532.958984"/>
     <use xlink:href="#DejaVuSans-67" x="596.337891"/>
     <use xlink:href="#DejaVuSans-75" x="659.814453"/>
     <use xlink:href="#DejaVuSans-72" x="723.193359"/>
     <use xlink:href="#DejaVuSans-61" x="764.306641"/>
     <use xlink:href="#DejaVuSans-74" x="825.585938"/>
     <use xlink:href="#DejaVuSans-69" x="864.794922"/>
     <use xlink:href="#DejaVuSans-6f" x="892.578125"/>
     <use xlink:href="#DejaVuSans-6e" x="953.759766"/>
     <use xlink:href="#DejaVuSans-20" x="1017.138672"/>
     <use xlink:href="#DejaVuSans-6f" x="1048.925781"/>
     <use xlink:href="#DejaVuSans-66" x="1110.107422"/>
     <use xlink:href="#DejaVuSans-20" x="1145.3125"/>
     <use xlink:href="#DejaVuSans-55" x="1177.099609"/>
     <use xlink:href="#DejaVuSans-42" x="1250.292969"/>
    </g>
   </g>
   <g id="text_30">
    <g id="patch_30">
     <path d="M 328.584119 198.81134 
L 449.910682 198.81134 
Q 453.210682 198.81134 453.210682 195.51134 
L 453.210682 184.865402 
Q 453.210682 181.565402 449.910682 181.565402 
L 328.584119 181.565402 
Q 325.284119 181.565402 325.284119 184.865402 
L 325.284119 195.51134 
Q 325.284119 198.81134 328.584119 198.81134 
z
" style="fill: #ffffff; stroke: #000000; stroke-width: 0.5; stroke-linejoin: miter"/>
    </g>
    <!-- École Nouvelle reform -->
    <g transform="translate(328.584119 193.223684) scale(0.11 -0.11)">
     <use xlink:href="#DejaVuSans-c9"/>
     <use xlink:href="#DejaVuSans-63" x="63.183594"/>
     <use xlink:href="#DejaVuSans-6f" x="118.164062"/>
     <use xlink:href="#DejaVuSans-6c" x="179.345703"/>
     <use xlink:href="#DejaVuSans-65" x="207.128906"/>
     <use xlink:href="#DejaVuSans-20" x="268.652344"/>
     <use xlink:href="#DejaVuSans-4e" x="300.439453"/>
     <use xlink:href="#DejaVuSans-6f" x="375.244141"/>
     <use xlink:href="#DejaVuSans-75" x="436.425781"/>
     <use xlink:href="#DejaVuSans-76" x="499.804688"/>
     <use xlink:href="#DejaVuSans-65" x="558.984375"/>
     <use xlink:href="#DejaVuSans-6c" x="620.507812"/>
     <use xlink:href="#DejaVuSans-6c" x="648.291016"/>
     <use xlink:href="#DejaVuSans-65" x="676.074219"/>
     <use xlink:href="#DejaVuSans-20" x="737.597656"/>
     <use xlink:href="#DejaVuSans-72" x="769.384766"/>
     <use xlink:href="#DejaVuSans-65" x="808.248047"/>
     <use xlink:href="#DejaVuSans-66" x="869.771484"/>
     <use xlink:href="#DejaVuSans-6f" x="904.976562"/>
     <use xlink:href="#DejaVuSans-72" x="966.158203"/>
     <use xlink:href="#DejaVuSans-6d" x="1005.521484"/>
    </g>
   </g>
   <g id="text_31">
    <g id="patch_31">
     <path d="M 401.89321 222.030482 
L 506.360554 222.030482 
Q 509.660554 222.030482 509.660554 218.730482 
L 509.660554 208.084545 
Q 509.660554 204.784545 506.360554 204.784545 
L 401.89321 204.784545 
Q 398.59321 204.784545 398.59321 208.084545 
L 398.59321 218.730482 
Q 398.59321 222.030482 401.89321 222.030482 
z
" style="fill: #ffffff; stroke: #000000; stroke-width: 0.5; stroke-linejoin: miter"/>
    </g>
    <!-- MONESTO founded -->
    <g transform="translate(401.89321 216.442826) scale(0.11 -0.11)">
     <defs>
      <path id="DejaVuSans-53" d="M 3425 4513 
L 3425 3897 
Q 3066 4069 2747 4153 
Q 2428 4238 2131 4238 
Q 1616 4238 1336 4038 
Q 1056 3838 1056 3469 
Q 1056 3159 1242 3001 
Q 1428 2844 1947 2747 
L 2328 2669 
Q 3034 2534 3370 2195 
Q 3706 1856 3706 1288 
Q 3706 609 3251 259 
Q 2797 -91 1919 -91 
Q 1588 -91 1214 -16 
Q 841 59 441 206 
L 441 856 
Q 825 641 1194 531 
Q 1563 422 1919 422 
Q 2459 422 2753 634 
Q 3047 847 3047 1241 
Q 3047 1584 2836 1778 
Q 2625 1972 2144 2069 
L 1759 2144 
Q 1053 2284 737 2584 
Q 422 2884 422 3419 
Q 422 4038 858 4394 
Q 1294 4750 2059 4750 
Q 2388 4750 2728 4690 
Q 3069 4631 3425 4513 
z
" transform="scale(0.015625)"/>
     </defs>
     <use xlink:href="#DejaVuSans-4d"/>
     <use xlink:href="#DejaVuSans-4f" x="86.279297"/>
     <use xlink:href="#DejaVuSans-4e" x="164.990234"/>
     <use xlink:href="#DejaVuSans-45" x="239.794922"/>
     <use xlink:href="#DejaVuSans-53" x="302.978516"/>
     <use xlink:href="#DejaVuSans-54" x="366.455078"/>
     <use xlink:href="#DejaVuSans-4f" x="427.539062"/>
     <use xlink:href="#DejaVuSans-20" x="506.25"/>
     <use xlink:href="#DejaVuSans-66" x="538.037109"/>
     <use xlink:href="#DejaVuSans-6f" x="573.242188"/>
     <use xlink:href="#DejaVuSans-75" x="634.423828"/>
     <use xlink:href="#DejaVuSans-6e" x="697.802734"/>
     <use xlink:href="#DejaVuSans-64" x="761.181641"/>
     <use xlink:href="#DejaVuSans-65" x="824.658203"/>
     <use xlink:href="#DejaVuSans-64" x="886.181641"/>
    </g>
   </g>
   <g id="text_32">
    <g id="patch_32">
     <path d="M 401.89321 372.641866 
L 464.747898 372.641866 
Q 468.047898 372.641866 468.047898 369.341866 
L 468.047898 346.378335 
Q 468.047898 343.078335 464.747898 343.078335 
L 401.89321 343.078335 
Q 398.59321 343.078335 398.59321 346.378335 
L 398.59321 369.341866 
Q 398.59321 372.641866 401.89321 372.641866 
z
" style="fill: #ffffff; stroke: #000000; stroke-width: 0.5; stroke-linejoin: miter"/>
    </g>
    <!-- National -->
    <g transform="translate(401.89321 354.736616) scale(0.11 -0.11)">
     <use xlink:href="#DejaVuSans-4e"/>
     <use xlink:href="#DejaVuSans-61" x="74.804688"/>
     <use xlink:href="#DejaVuSans-74" x="136.083984"/>
     <use xlink:href="#DejaVuSans-69" x="175.292969"/>
     <use xlink:href="#DejaVuSans-6f" x="203.076172"/>
     <use xlink:href="#DejaVuSans-6e" x="264.257812"/>
     <use xlink:href="#DejaVuSans-61" x="327.636719"/>
     <use xlink:href="#DejaVuSans-6c" x="388.916016"/>
    </g>
    <!-- Conference -->
    <g transform="translate(401.89321 367.05421) scale(0.11 -0.11)">
     <use xlink:href="#DejaVuSans-43"/>
     <use xlink:href="#DejaVuSans-6f" x="69.824219"/>
     <use xlink:href="#DejaVuSans-6e" x="131.005859"/>
     <use xlink:href="#DejaVuSans-66" x="194.384766"/>
     <use xlink:href="#DejaVuSans-65" x="229.589844"/>
     <use xlink:href="#DejaVuSans-72" x="291.113281"/>
     <use xlink:href="#DejaVuSans-65" x="329.976562"/>
     <use xlink:href="#DejaVuSans-6e" x="391.5"/>
     <use xlink:href="#DejaVuSans-63" x="454.878906"/>
     <use xlink:href="#DejaVuSans-65" x="509.859375"/>
    </g>
   </g>
   <g id="text_33">
    <g id="patch_33">
     <path d="M 401.89321 444.656075 
L 548.777585 444.656075 
Q 552.077585 444.656075 552.077585 441.356075 
L 552.077585 430.710138 
Q 552.077585 427.410138 548.777585 427.410138 
L 401.89321 427.410138 
Q 398.59321 427.410138 398.59321 430.710138 
L 398.59321 441.356075 
Q 398.59321 444.656075 401.89321 444.656075 
z
" style="fill: #ffffff; stroke: #000000; stroke-width: 0.5; stroke-linejoin: miter"/>
    </g>
    <!-- University of Kara founded -->
    <g transform="translate(401.89321 439.068419) scale(0.11 -0.11)">
     <use xlink:href="#DejaVuSans-55"/>
     <use xlink:href="#DejaVuSans-6e" x="73.193359"/>
     <use xlink:href="#DejaVuSans-69" x="136.572266"/>
     <use xlink:href="#DejaVuSans-76" x="164.355469"/>
     <use xlink:href="#DejaVuSans-65" x="223.535156"/>
     <use xlink:href="#DejaVuSans-72" x="285.058594"/>
     <use xlink:href="#DejaVuSans-73" x="326.171875"/>
     <use xlink:href="#DejaVuSans-69" x="378.271484"/>
     <use xlink:href="#DejaVuSans-74" x="406.054688"/>
     <use xlink:href="#DejaVuSans-79" x="445.263672"/>
     <use xlink:href="#DejaVuSans-20" x="504.443359"/>
     <use xlink:href="#DejaVuSans-6f" x="536.230469"/>
     <use xlink:href="#DejaVuSans-66" x="597.412109"/>
     <use xlink:href="#DejaVuSans-20" x="632.617188"/>
     <use xlink:href="#DejaVuSans-4b" x="664.404297"/>
     <use xlink:href="#DejaVuSans-61" x="728.230469"/>
     <use xlink:href="#DejaVuSans-72" x="789.509766"/>
     <use xlink:href="#DejaVuSans-61" x="830.623047"/>
     <use xlink:href="#DejaVuSans-20" x="891.902344"/>
     <use xlink:href="#DejaVuSans-66" x="923.689453"/>
     <use xlink:href="#DejaVuSans-6f" x="958.894531"/>
     <use xlink:href="#DejaVuSans-75" x="1020.076172"/>
     <use xlink:href="#DejaVuSans-6e" x="1083.455078"/>
     <use xlink:href="#DejaVuSans-64" x="1146.833984"/>
     <use xlink:href="#DejaVuSans-65" x="1210.310547"/>
     <use xlink:href="#DejaVuSans-64" x="1271.833984"/>
    </g>
   </g>
   <g id="text_34">
    <g id="patch_34">
     <path d="M 401.89321 466.959807 
L 576.937585 466.959807 
Q 580.237585 466.959807 580.237585 463.659807 
L 580.237585 452.57387 
Q 580.237585 449.27387 576.937585 449.27387 
L 401.89321 449.27387 
Q 398.59321 449.27387 398.59321 452.57387 
L 398.59321 463.659807 
Q 398.59321 466.959807 401.89321 466.959807 
z
" style="fill: #ffffff; stroke: #000000; stroke-width: 0.5; stroke-linejoin: miter"/>
    </g>
    <!-- UB renamed University of Lomé -->
    <g transform="translate(401.89321 461.372151) scale(0.11 -0.11)">
     <use xlink:href="#DejaVuSans-55"/>
     <use xlink:href="#DejaVuSans-42" x="73.193359"/>
     <use xlink:href="#DejaVuSans-20" x="141.796875"/>
     <use xlink:href="#DejaVuSans-72" x="173.583984"/>
     <use xlink:href="#DejaVuSans-65" x="212.447266"/>
     <use xlink:href="#DejaVuSans-6e" x="273.970703"/>
     <use xlink:href="#DejaVuSans-61" x="337.349609"/>
     <use xlink:href="#DejaVuSans-6d" x="398.628906"/>
     <use xlink:href="#DejaVuSans-65" x="496.041016"/>
     <use xlink:href="#DejaVuSans-64" x="557.564453"/>
     <use xlink:href="#DejaVuSans-20" x="621.041016"/>
     <use xlink:href="#DejaVuSans-55" x="652.828125"/>
     <use xlink:href="#DejaVuSans-6e" x="726.021484"/>
     <use xlink:href="#DejaVuSans-69" x="789.400391"/>
     <use xlink:href="#DejaVuSans-76" x="817.183594"/>
     <use xlink:href="#DejaVuSans-65" x="876.363281"/>
     <use xlink:href="#DejaVuSans-72" x="937.886719"/>
     <use xlink:href="#DejaVuSans-73" x="979"/>
     <use xlink:href="#DejaVuSans-69" x="1031.099609"/>
     <use xlink:href="#DejaVuSans-74" x="1058.882812"/>
     <use xlink:href="#DejaVuSans-79" x="1098.091797"/>
     <use xlink:href="#DejaVuSans-20" x="1157.271484"/>
     <use xlink:href="#DejaVuSans-6f" x="1189.058594"/>
     <use xlink:href="#DejaVuSans-66" x="1250.240234"/>
     <use xlink:href="#DejaVuSans-20" x="1285.445312"/>
     <use xlink:href="#DejaVuSans-4c" x="1317.232422"/>
     <use xlink:href="#DejaVuSans-6f" x="1371.195312"/>
     <use xlink:href="#DejaVuSans-6d" x="1432.376953"/>
     <use xlink:href="#DejaVuSans-e9" x="1529.789062"/>
    </g>
   </g>
   <g id="text_35">
    <g id="patch_35">
     <path d="M 401.89321 507.522343 
L 504.160554 507.522343 
Q 507.460554 507.522343 507.460554 504.222343 
L 507.460554 493.136406 
Q 507.460554 489.836406 504.160554 489.836406 
L 401.89321 489.836406 
Q 398.59321 489.836406 398.59321 493.136406 
L 398.59321 504.222343 
Q 398.59321 507.522343 401.89321 507.522343 
z
" style="fill: #ffffff; stroke: #000000; stroke-width: 0.5; stroke-linejoin: miter"/>
    </g>
    <!-- Death of Eyadéma -->
    <g transform="translate(401.89321 501.934687) scale(0.11 -0.11)">
     <use xlink:href="#DejaVuSans-44"/>
     <use xlink:href="#DejaVuSans-65" x="77.001953"/>
     <use xlink:href="#DejaVuSans-61" x="138.525391"/>
     <use xlink:href="#DejaVuSans-74" x="199.804688"/>
     <use xlink:href="#DejaVuSans-68" x="239.013672"/>
     <use xlink:href="#DejaVuSans-20" x="302.392578"/>
     <use xlink:href="#DejaVuSans-6f" x="334.179688"/>
     <use xlink:href="#DejaVuSans-66" x="395.361328"/>
     <use xlink:href="#DejaVuSans-20" x="430.566406"/>
     <use xlink:href="#DejaVuSans-45" x="462.353516"/>
     <use xlink:href="#DejaVuSans-79" x="525.537109"/>
     <use xlink:href="#DejaVuSans-61" x="584.716797"/>
     <use xlink:href="#DejaVuSans-64" x="645.996094"/>
     <use xlink:href="#DejaVuSans-e9" x="709.472656"/>
     <use xlink:href="#DejaVuSans-6d" x="770.996094"/>
     <use xlink:href="#DejaVuSans-61" x="868.408203"/>
    </g>
   </g>
   <g id="text_36">
    <g id="patch_36">
     <path d="M 401.89321 549.283338 
L 474.989929 549.283338 
Q 478.289929 549.283338 478.289929 545.983338 
L 478.289929 523.019807 
Q 478.289929 519.719807 474.989929 519.719807 
L 401.89321 519.719807 
Q 398.59321 519.719807 398.59321 523.019807 
L 398.59321 545.983338 
Q 398.59321 549.283338 401.89321 549.283338 
z
" style="fill: #ffffff; stroke: #000000; stroke-width: 0.5; stroke-linejoin: miter"/>
    </g>
    <!-- LMD reform -->
    <g transform="translate(401.89321 531.378088) scale(0.11 -0.11)">
     <use xlink:href="#DejaVuSans-4c"/>
     <use xlink:href="#DejaVuSans-4d" x="55.712891"/>
     <use xlink:href="#DejaVuSans-44" x="141.992188"/>
     <use xlink:href="#DejaVuSans-20" x="218.994141"/>
     <use xlink:href="#DejaVuSans-72" x="250.78125"/>
     <use xlink:href="#DejaVuSans-65" x="289.644531"/>
     <use xlink:href="#DejaVuSans-66" x="351.167969"/>
     <use xlink:href="#DejaVuSans-6f" x="386.373047"/>
     <use xlink:href="#DejaVuSans-72" x="447.554688"/>
     <use xlink:href="#DejaVuSans-6d" x="486.917969"/>
    </g>
    <!-- implemented -->
    <g transform="translate(401.89321 543.695682) scale(0.11 -0.11)">
     <use xlink:href="#DejaVuSans-69"/>
     <use xlink:href="#DejaVuSans-6d" x="27.783203"/>
     <use xlink:href="#DejaVuSans-70" x="125.195312"/>
     <use xlink:href="#DejaVuSans-6c" x="188.671875"/>
     <use xlink:href="#DejaVuSans-65" x="216.455078"/>
     <use xlink:href="#DejaVuSans-6d" x="277.978516"/>
     <use xlink:href="#DejaVuSans-65" x="375.390625"/>
     <use xlink:href="#DejaVuSans-6e" x="436.914062"/>
     <use xlink:href="#DejaVuSans-74" x="500.292969"/>
     <use xlink:href="#DejaVuSans-65" x="539.501953"/>
     <use xlink:href="#DejaVuSans-64" x="601.025391"/>
    </g>
   </g>
  </g>
 </g>
 <defs>
  <clipPath id="p30a06bc3a5">
   <rect x="167.304119" y="31.117375" width="322.56" height="518.4"/>
  </clipPath>
 </defs>
</svg>
