<?xml version="1.0" encoding="utf-8" standalone="no"?>
<!DOCTYPE svg PUBLIC "-//W3C//DTD SVG 1.1//EN"
  "http://www.w3.org/Graphics/SVG/1.1/DTD/svg11.dtd">
<svg xmlns:xlink="http://www.w3.org/1999/xlink" width="557.791832pt" height="562.669094pt" viewBox="0 0 557.791832 562.669094" xmlns="http://www.w3.org/2000/svg" version="1.1">
 <metadata>
  <rdf:RDF xmlns:dc="http://purl.org/dc/elements/1.1/" xmlns:cc="http://creativecommons.org/ns#" xmlns:rdf="http://www.w3.org/1999/02/22-rdf-syntax-ns#">
   <cc:Work>
    <dc:type rdf:resource="http://purl.org/dc/dcmitype/StillImage"/>
    <dc:date>2026-07-16T19:21:45.060694</dc:date>
    <dc:format>image/svg+xml</dc:format>
    <dc:creator>
     <cc:Agent>
      <dc:title>Matplotlib v3.11.0, https://matplotlib.org/</dc:title>
     </cc:Agent>
    </dc:creator>
   </cc:Work>
  </rdf:RDF>
 </metadata>
 <defs>
  <style type="text/css">*{stroke-linejoin: round; stroke-linecap: butt}</style>
 </defs>
 <g id="figure_1">
  <g id="patch_1">
   <path d="M 0 562.669094 
L 557.791832 562.669094 
L 557.791832 0 
L 0 0 
z
" style="fill: #ffffff"/>
  </g>
  <g id="axes_1">
   <g id="patch_2">
    <path d="M 78.833182 549.969094 
L 401.393182 549.969094 
L 401.393182 31.569094 
L 78.833182 31.569094 
z
" style="fill: #ffffff"/>
   </g>
   <g id="line2d_1">
    <path d="M 298.760455 549.969094 
L 298.760455 31.569094 
" clip-path="url(#p50230a14fe)" style="fill: none; stroke: #000000; stroke-width: 0.75; stroke-linecap: square"/>
   </g>
   <g id="line2d_2">
    <path d="M 295.828091 57.471352 
L 210.789545 57.471352 
" clip-path="url(#p50230a14fe)" style="fill: none; stroke: #808080; stroke-width: 0.5; stroke-linecap: square"/>
   </g>
   <g id="line2d_3">
    <path d="M 295.828091 134.149135 
L 93.495 134.149135 
" clip-path="url(#p50230a14fe)" style="fill: none; stroke: #808080; stroke-width: 0.5; stroke-linecap: square"/>
   </g>
   <g id="line2d_4">
    <path d="M 295.828091 148.200223 
L 269.436818 148.200223 
" clip-path="url(#p50230a14fe)" style="fill: none; stroke: #808080; stroke-width: 0.5; stroke-linecap: square"/>
   </g>
   <g id="line2d_5">
    <path d="M 295.828091 158.064371 
L 122.818636 158.064371 
" clip-path="url(#p50230a14fe)" style="fill: none; stroke: #808080; stroke-width: 0.5; stroke-linecap: square"/>
   </g>
   <g id="line2d_6">
    <path d="M 295.828091 407.400223 
L 210.789545 407.400223 
" clip-path="url(#p50230a14fe)" style="fill: none; stroke: #808080; stroke-width: 0.5; stroke-linecap: square"/>
   </g>
   <g id="line2d_7">
    <path d="M 295.828091 492.700264 
L 210.789545 492.700264 
" clip-path="url(#p50230a14fe)" style="fill: none; stroke: #808080; stroke-width: 0.5; stroke-linecap: square"/>
   </g>
   <g id="line2d_8">
    <path d="M 301.692818 92.031352 
L 386.731364 92.031352 
" clip-path="url(#p50230a14fe)" style="fill: none; stroke: #808080; stroke-width: 0.5; stroke-linecap: square"/>
   </g>
   <g id="line2d_9">
    <path d="M 301.692818 150.222728 
L 386.731364 150.222728 
" clip-path="url(#p50230a14fe)" style="fill: none; stroke: #808080; stroke-width: 0.5; stroke-linecap: square"/>
   </g>
   <g id="line2d_10">
    <path d="M 301.692818 174.137964 
L 386.731364 174.137964 
" clip-path="url(#p50230a14fe)" style="fill: none; stroke: #808080; stroke-width: 0.5; stroke-linecap: square"/>
   </g>
   <g id="line2d_11">
    <path d="M 301.692818 251.880223 
L 386.731364 251.880223 
" clip-path="url(#p50230a14fe)" style="fill: none; stroke: #808080; stroke-width: 0.5; stroke-linecap: square"/>
   </g>
   <g id="line2d_12">
    <path d="M 301.692818 272.424617 
L 386.731364 272.424617 
" clip-path="url(#p50230a14fe)" style="fill: none; stroke: #808080; stroke-width: 0.5; stroke-linecap: square"/>
   </g>
   <g id="line2d_13">
    <path d="M 301.692818 368.511352 
L 386.731364 368.511352 
" clip-path="url(#p50230a14fe)" style="fill: none; stroke: #808080; stroke-width: 0.5; stroke-linecap: square"/>
   </g>
   <g id="line2d_14">
    <path d="M 301.692818 394.449094 
L 386.731364 394.449094 
" clip-path="url(#p50230a14fe)" style="fill: none; stroke: #808080; stroke-width: 0.5; stroke-linecap: square"/>
   </g>
   <g id="line2d_15">
    <path d="M 301.692818 505.651394 
L 386.731364 505.651394 
" clip-path="url(#p50230a14fe)" style="fill: none; stroke: #808080; stroke-width: 0.5; stroke-linecap: square"/>
   </g>
   <g id="text_1">
    <g id="patch_3">
     <path d="M 280.802955 41.029094 
L 316.717955 41.029094 
L 316.717955 22.109094 
L 280.802955 22.109094 
z
" style="fill: #ffffff; stroke: #ffffff; stroke-linejoin: miter"/>
    </g>
    <!-- 1970 -->
    <g transform="translate(284.762955 34.426516) scale(0.11 -0.11)">
     <defs>
      <path id="DejaVuSans-14" d="M 794 531 
L 1825 531 
L 1825 4091 
L 703 3866 
L 703 4441 
L 1819 4666 
L 2450 4666 
L 2450 531 
L 3481 531 
L 3481 0 
L 794 0 
L 794 531 
z
" transform="scale(0.015625)"/>
      <path id="DejaVuSans-1c" d="M 703 97 
L 703 672 
Q 941 559 1184 500 
Q 1428 441 1663 441 
Q 2288 441 2617 861 
Q 2947 1281 2994 2138 
Q 2813 1869 2534 1725 
Q 2256 1581 1919 1581 
Q 1219 1581 811 2004 
Q 403 2428 403 3163 
Q 403 3881 828 4315 
Q 1253 4750 1959 4750 
Q 2769 4750 3195 4129 
Q 3622 3509 3622 2328 
Q 3622 1225 3098 567 
Q 2575 -91 1691 -91 
Q 1453 -91 1209 -44 
Q 966 3 703 97 
z
M 1959 2075 
Q 2384 2075 2632 2365 
Q 2881 2656 2881 3163 
Q 2881 3666 2632 3958 
Q 2384 4250 1959 4250 
Q 1534 4250 1286 3958 
Q 1038 3666 1038 3163 
Q 1038 2656 1286 2365 
Q 1534 2075 1959 2075 
z
" transform="scale(0.015625)"/>
      <path id="DejaVuSans-1a" d="M 525 4666 
L 3525 4666 
L 3525 4397 
L 1831 0 
L 1172 0 
L 2766 4134 
L 525 4134 
L 525 4666 
z
" transform="scale(0.015625)"/>
      <path id="DejaVuSans-13" d="M 2034 4250 
Q 1547 4250 1301 3770 
Q 1056 3291 1056 2328 
Q 1056 1369 1301 889 
Q 1547 409 2034 409 
Q 2525 409 2770 889 
Q 3016 1369 3016 2328 
Q 3016 3291 2770 3770 
Q 2525 4250 2034 4250 
z
M 2034 4750 
Q 2819 4750 3233 4129 
Q 3647 3509 3647 2328 
Q 3647 1150 3233 529 
Q 2819 -91 2034 -91 
Q 1250 -91 836 529 
Q 422 1150 422 2328 
Q 422 3509 836 4129 
Q 1250 4750 2034 4750 
z
" transform="scale(0.015625)"/>
     </defs>
     <use xlink:href="#DejaVuSans-14"/>
     <use xlink:href="#DejaVuSans-1c" transform="translate(63.625 0)"/>
     <use xlink:href="#DejaVuSans-1a" transform="translate(127.25 0)"/>
     <use xlink:href="#DejaVuSans-13" transform="translate(190.875 0)"/>
    </g>
   </g>
   <g id="text_2">
    <g id="patch_4">
     <path d="M 280.802955 105.820223 
L 316.717955 105.820223 
L 316.717955 86.900223 
L 280.802955 86.900223 
z
" style="fill: #ffffff; stroke: #ffffff; stroke-linejoin: miter"/>
    </g>
    <!-- 1975 -->
    <g transform="translate(284.762955 99.217645) scale(0.11 -0.11)">
     <defs>
      <path id="DejaVuSans-18" d="M 691 4666 
L 3169 4666 
L 3169 4134 
L 1269 4134 
L 1269 2991 
Q 1406 3038 1543 3061 
Q 1681 3084 1819 3084 
Q 2600 3084 3056 2656 
Q 3513 2228 3513 1497 
Q 3513 744 3044 326 
Q 2575 -91 1722 -91 
Q 1428 -91 1123 -41 
Q 819 9 494 109 
L 494 744 
Q 775 591 1075 516 
Q 1375 441 1709 441 
Q 2250 441 2565 725 
Q 2881 1009 2881 1497 
Q 2881 1984 2565 2268 
Q 2250 2553 1709 2553 
Q 1456 2553 1204 2497 
Q 953 2441 691 2322 
L 691 4666 
z
" transform="scale(0.015625)"/>
     </defs>
     <use xlink:href="#DejaVuSans-14"/>
     <use xlink:href="#DejaVuSans-1c" transform="translate(63.625 0)"/>
     <use xlink:href="#DejaVuSans-1a" transform="translate(127.25 0)"/>
     <use xlink:href="#DejaVuSans-18" transform="translate(190.875 0)"/>
    </g>
   </g>
   <g id="text_3">
    <g id="patch_5">
     <path d="M 280.802955 170.611352 
L 316.717955 170.611352 
L 316.717955 151.691352 
L 280.802955 151.691352 
z
" style="fill: #ffffff; stroke: #ffffff; stroke-linejoin: miter"/>
    </g>
    <!-- 1980 -->
    <g transform="translate(284.762955 164.008774) scale(0.11 -0.11)">
     <defs>
      <path id="DejaVuSans-1b" d="M 2034 2216 
Q 1584 2216 1326 1975 
Q 1069 1734 1069 1313 
Q 1069 891 1326 650 
Q 1584 409 2034 409 
Q 2484 409 2743 651 
Q 3003 894 3003 1313 
Q 3003 1734 2745 1975 
Q 2488 2216 2034 2216 
z
M 1403 2484 
Q 997 2584 770 2862 
Q 544 3141 544 3541 
Q 544 4100 942 4425 
Q 1341 4750 2034 4750 
Q 2731 4750 3128 4425 
Q 3525 4100 3525 3541 
Q 3525 3141 3298 2862 
Q 3072 2584 2669 2484 
Q 3125 2378 3379 2068 
Q 3634 1759 3634 1313 
Q 3634 634 3220 271 
Q 2806 -91 2034 -91 
Q 1263 -91 848 271 
Q 434 634 434 1313 
Q 434 1759 690 2068 
Q 947 2378 1403 2484 
z
M 1172 3481 
Q 1172 3119 1398 2916 
Q 1625 2713 2034 2713 
Q 2441 2713 2670 2916 
Q 2900 3119 2900 3481 
Q 2900 3844 2670 4047 
Q 2441 4250 2034 4250 
Q 1625 4250 1398 4047 
Q 1172 3844 1172 3481 
z
" transform="scale(0.015625)"/>
     </defs>
     <use xlink:href="#DejaVuSans-14"/>
     <use xlink:href="#DejaVuSans-1c" transform="translate(63.625 0)"/>
     <use xlink:href="#DejaVuSans-1b" transform="translate(127.25 0)"/>
     <use xlink:href="#DejaVuSans-13" transform="translate(190.875 0)"/>
    </g>
   </g>
   <g id="text_4">
    <g id="patch_6">
     <path d="M 280.802955 235.437964 
L 316.717955 235.437964 
L 316.717955 216.517964 
L 280.802955 216.517964 
z
" style="fill: #ffffff; stroke: #ffffff; stroke-linejoin: miter"/>
    </g>
    <!-- 1985 -->
    <g transform="translate(284.762955 228.835386) scale(0.11 -0.11)">
     <use xlink:href="#DejaVuSans-14"/>
     <use xlink:href="#DejaVuSans-1c" transform="translate(63.625 0)"/>
     <use xlink:href="#DejaVuSans-1b" transform="translate(127.25 0)"/>
     <use xlink:href="#DejaVuSans-18" transform="translate(190.875 0)"/>
    </g>
   </g>
   <g id="text_5">
    <g id="patch_7">
     <path d="M 280.802955 300.229094 
L 316.717955 300.229094 
L 316.717955 281.309094 
L 280.802955 281.309094 
z
" style="fill: #ffffff; stroke: #ffffff; stroke-linejoin: miter"/>
    </g>
    <!-- 1990 -->
    <g transform="translate(284.762955 293.626516) scale(0.11 -0.11)">
     <use xlink:href="#DejaVuSans-14"/>
     <use xlink:href="#DejaVuSans-1c" transform="translate(63.625 0)"/>
     <use xlink:href="#DejaVuSans-1c" transform="translate(127.25 0)"/>
     <use xlink:href="#DejaVuSans-13" transform="translate(190.875 0)"/>
    </g>
   </g>
   <g id="text_6">
    <g id="patch_8">
     <path d="M 280.802955 365.020223 
L 316.717955 365.020223 
L 316.717955 346.100223 
L 280.802955 346.100223 
z
" style="fill: #ffffff; stroke: #ffffff; stroke-linejoin: miter"/>
    </g>
    <!-- 1995 -->
    <g transform="translate(284.762955 358.417645) scale(0.11 -0.11)">
     <use xlink:href="#DejaVuSans-14"/>
     <use xlink:href="#DejaVuSans-1c" transform="translate(63.625 0)"/>
     <use xlink:href="#DejaVuSans-1c" transform="translate(127.25 0)"/>
     <use xlink:href="#DejaVuSans-18" transform="translate(190.875 0)"/>
    </g>
   </g>
   <g id="text_7">
    <g id="patch_9">
     <path d="M 280.802955 429.811352 
L 316.717955 429.811352 
L 316.717955 410.891352 
L 280.802955 410.891352 
z
" style="fill: #ffffff; stroke: #ffffff; stroke-linejoin: miter"/>
    </g>
    <!-- 2000 -->
    <g transform="translate(284.762955 423.208774) scale(0.11 -0.11)">
     <defs>
      <path id="DejaVuSans-15" d="M 1228 531 
L 3431 531 
L 3431 0 
L 469 0 
L 469 531 
Q 828 903 1448 1529 
Q 2069 2156 2228 2338 
Q 2531 2678 2651 2914 
Q 2772 3150 2772 3378 
Q 2772 3750 2511 3984 
Q 2250 4219 1831 4219 
Q 1534 4219 1204 4116 
Q 875 4013 500 3803 
L 500 4441 
Q 881 4594 1212 4672 
Q 1544 4750 1819 4750 
Q 2544 4750 2975 4387 
Q 3406 4025 3406 3419 
Q 3406 3131 3298 2873 
Q 3191 2616 2906 2266 
Q 2828 2175 2409 1742 
Q 1991 1309 1228 531 
z
" transform="scale(0.015625)"/>
     </defs>
     <use xlink:href="#DejaVuSans-15"/>
     <use xlink:href="#DejaVuSans-13" transform="translate(63.625 0)"/>
     <use xlink:href="#DejaVuSans-13" transform="translate(127.25 0)"/>
     <use xlink:href="#DejaVuSans-13" transform="translate(190.875 0)"/>
    </g>
   </g>
   <g id="text_8">
    <g id="patch_10">
     <path d="M 280.802955 494.637964 
L 316.717955 494.637964 
L 316.717955 475.717964 
L 280.802955 475.717964 
z
" style="fill: #ffffff; stroke: #ffffff; stroke-linejoin: miter"/>
    </g>
    <!-- 2005 -->
    <g transform="translate(284.762955 488.035386) scale(0.11 -0.11)">
     <use xlink:href="#DejaVuSans-15"/>
     <use xlink:href="#DejaVuSans-13" transform="translate(63.625 0)"/>
     <use xlink:href="#DejaVuSans-13" transform="translate(127.25 0)"/>
     <use xlink:href="#DejaVuSans-18" transform="translate(190.875 0)"/>
    </g>
   </g>
   <g id="text_9">
    <g id="patch_11">
     <path d="M 280.802955 559.429094 
L 316.717955 559.429094 
L 316.717955 540.509094 
L 280.802955 540.509094 
z
" style="fill: #ffffff; stroke: #ffffff; stroke-linejoin: miter"/>
    </g>
    <!-- 2010 -->
    <g transform="translate(284.762955 552.826516) scale(0.11 -0.11)">
     <use xlink:href="#DejaVuSans-15"/>
     <use xlink:href="#DejaVuSans-13" transform="translate(63.625 0)"/>
     <use xlink:href="#DejaVuSans-14" transform="translate(127.25 0)"/>
     <use xlink:href="#DejaVuSans-13" transform="translate(190.875 0)"/>
    </g>
   </g>
   <g id="text_10">
    <!-- Benin -->
    <g transform="translate(82.318744 17.837812) scale(0.14 -0.14)">
     <defs>
      <path id="DejaVuSans-Bold-25" d="M 2456 2859 
Q 2741 2859 2887 2984 
Q 3034 3109 3034 3353 
Q 3034 3594 2887 3720 
Q 2741 3847 2456 3847 
L 1791 3847 
L 1791 2859 
L 2456 2859 
z
M 2497 819 
Q 2859 819 3042 972 
Q 3225 1125 3225 1434 
Q 3225 1738 3044 1889 
Q 2863 2041 2497 2041 
L 1791 2041 
L 1791 819 
L 2497 819 
z
M 3616 2497 
Q 4003 2384 4215 2081 
Q 4428 1778 4428 1338 
Q 4428 663 3972 331 
Q 3516 0 2584 0 
L 588 0 
L 588 4666 
L 2394 4666 
Q 3366 4666 3802 4372 
Q 4238 4078 4238 3431 
Q 4238 3091 4078 2852 
Q 3919 2613 3616 2497 
z
" transform="scale(0.015625)"/>
      <path id="DejaVuSans-Bold-48" d="M 4031 1759 
L 4031 1441 
L 1416 1441 
Q 1456 1047 1700 850 
Q 1944 653 2381 653 
Q 2734 653 3104 758 
Q 3475 863 3866 1075 
L 3866 213 
Q 3469 63 3072 -14 
Q 2675 -91 2278 -91 
Q 1328 -91 801 392 
Q 275 875 275 1747 
Q 275 2603 792 3093 
Q 1309 3584 2216 3584 
Q 3041 3584 3536 3087 
Q 4031 2591 4031 1759 
z
M 2881 2131 
Q 2881 2450 2695 2645 
Q 2509 2841 2209 2841 
Q 1884 2841 1681 2658 
Q 1478 2475 1428 2131 
L 2881 2131 
z
" transform="scale(0.015625)"/>
      <path id="DejaVuSans-Bold-51" d="M 4056 2131 
L 4056 0 
L 2931 0 
L 2931 347 
L 2931 1631 
Q 2931 2084 2911 2256 
Q 2891 2428 2841 2509 
Q 2775 2619 2662 2680 
Q 2550 2741 2406 2741 
Q 2056 2741 1856 2470 
Q 1656 2200 1656 1722 
L 1656 0 
L 538 0 
L 538 3500 
L 1656 3500 
L 1656 2988 
Q 1909 3294 2193 3439 
Q 2478 3584 2822 3584 
Q 3428 3584 3742 3212 
Q 4056 2841 4056 2131 
z
" transform="scale(0.015625)"/>
      <path id="DejaVuSans-Bold-4c" d="M 538 3500 
L 1656 3500 
L 1656 0 
L 538 0 
L 538 3500 
z
M 538 4863 
L 1656 4863 
L 1656 3950 
L 538 3950 
L 538 4863 
z
" transform="scale(0.015625)"/>
     </defs>
     <use xlink:href="#DejaVuSans-Bold-25"/>
     <use xlink:href="#DejaVuSans-Bold-48" transform="translate(76.21875 0)"/>
     <use xlink:href="#DejaVuSans-Bold-51" transform="translate(144.046875 0)"/>
     <use xlink:href="#DejaVuSans-Bold-4c" transform="translate(215.234375 0)"/>
     <use xlink:href="#DejaVuSans-Bold-51" transform="translate(249.515625 0)"/>
    </g>
   </g>
   <g id="text_11">
    <!-- Togo -->
    <g transform="translate(449.777182 17.837812) scale(0.14 -0.14)">
     <defs>
      <path id="DejaVuSans-Bold-37" d="M 31 4666 
L 4331 4666 
L 4331 3756 
L 2784 3756 
L 2784 0 
L 1581 0 
L 1581 3756 
L 31 3756 
L 31 4666 
z
" transform="scale(0.015625)"/>
      <path id="DejaVuSans-Bold-52" d="M 2203 2784 
Q 1831 2784 1636 2517 
Q 1441 2250 1441 1747 
Q 1441 1244 1636 976 
Q 1831 709 2203 709 
Q 2569 709 2762 976 
Q 2956 1244 2956 1747 
Q 2956 2250 2762 2517 
Q 2569 2784 2203 2784 
z
M 2203 3584 
Q 3106 3584 3614 3096 
Q 4122 2609 4122 1747 
Q 4122 884 3614 396 
Q 3106 -91 2203 -91 
Q 1297 -91 786 396 
Q 275 884 275 1747 
Q 275 2609 786 3096 
Q 1297 3584 2203 3584 
z
" transform="scale(0.015625)"/>
      <path id="DejaVuSans-Bold-4a" d="M 2919 594 
Q 2688 288 2409 144 
Q 2131 0 1766 0 
Q 1125 0 706 504 
Q 288 1009 288 1791 
Q 288 2575 706 3076 
Q 1125 3578 1766 3578 
Q 2131 3578 2409 3434 
Q 2688 3291 2919 2981 
L 2919 3500 
L 4044 3500 
L 4044 353 
Q 4044 -491 3511 -936 
Q 2978 -1381 1966 -1381 
Q 1638 -1381 1331 -1331 
Q 1025 -1281 716 -1178 
L 716 -306 
Q 1009 -475 1290 -558 
Q 1572 -641 1856 -641 
Q 2406 -641 2662 -400 
Q 2919 -159 2919 353 
L 2919 594 
z
M 2181 2772 
Q 1834 2772 1640 2515 
Q 1447 2259 1447 1791 
Q 1447 1309 1634 1061 
Q 1822 813 2181 813 
Q 2531 813 2725 1069 
Q 2919 1325 2919 1791 
Q 2919 2259 2725 2515 
Q 2531 2772 2181 2772 
z
" transform="scale(0.015625)"/>
     </defs>
     <use xlink:href="#DejaVuSans-Bold-37"/>
     <use xlink:href="#DejaVuSans-Bold-52" transform="translate(54.9375 0)"/>
     <use xlink:href="#DejaVuSans-Bold-4a" transform="translate(123.640625 0)"/>
     <use xlink:href="#DejaVuSans-Bold-52" transform="translate(195.21875 0)"/>
    </g>
   </g>
   <g id="text_12">
    <g id="patch_12">
     <path d="M 95.808608 73.97436 
L 210.789545 73.97436 
Q 214.089545 73.97436 214.089545 70.67436 
L 214.089545 44.268345 
Q 214.089545 40.968345 210.789545 40.968345 
L 95.808608 40.968345 
Q 92.508608 40.968345 92.508608 44.268345 
L 92.508608 70.67436 
Q 92.508608 73.97436 95.808608 73.97436 
z
" style="fill: #ffffff; stroke: #000000; stroke-width: 0.5; stroke-linejoin: miter"/>
    </g>
    <!-- Emmaüs Community -->
    <g transform="translate(95.808608 53.7277) scale(0.11 -0.11)">
     <defs>
      <path id="DejaVuSans-28" d="M 628 4666 
L 3578 4666 
L 3578 4134 
L 1259 4134 
L 1259 2753 
L 3481 2753 
L 3481 2222 
L 1259 2222 
L 1259 531 
L 3634 531 
L 3634 0 
L 628 0 
L 628 4666 
z
" transform="scale(0.015625)"/>
      <path id="DejaVuSans-50" d="M 3328 2828 
Q 3544 3216 3844 3400 
Q 4144 3584 4550 3584 
Q 5097 3584 5394 3201 
Q 5691 2819 5691 2113 
L 5691 0 
L 5113 0 
L 5113 2094 
Q 5113 2597 4934 2840 
Q 4756 3084 4391 3084 
Q 3944 3084 3684 2787 
Q 3425 2491 3425 1978 
L 3425 0 
L 2847 0 
L 2847 2094 
Q 2847 2600 2669 2842 
Q 2491 3084 2119 3084 
Q 1678 3084 1418 2786 
Q 1159 2488 1159 1978 
L 1159 0 
L 581 0 
L 581 3500 
L 1159 3500 
L 1159 2956 
Q 1356 3278 1631 3431 
Q 1906 3584 2284 3584 
Q 2666 3584 2933 3390 
Q 3200 3197 3328 2828 
z
" transform="scale(0.015625)"/>
      <path id="DejaVuSans-44" d="M 2194 1759 
Q 1497 1759 1228 1600 
Q 959 1441 959 1056 
Q 959 750 1161 570 
Q 1363 391 1709 391 
Q 2188 391 2477 730 
Q 2766 1069 2766 1631 
L 2766 1759 
L 2194 1759 
z
M 3341 1997 
L 3341 0 
L 2766 0 
L 2766 531 
Q 2569 213 2275 61 
Q 1981 -91 1556 -91 
Q 1019 -91 701 211 
Q 384 513 384 1019 
Q 384 1609 779 1909 
Q 1175 2209 1959 2209 
L 2766 2209 
L 2766 2266 
Q 2766 2663 2505 2880 
Q 2244 3097 1772 3097 
Q 1472 3097 1187 3025 
Q 903 2953 641 2809 
L 641 3341 
Q 956 3463 1253 3523 
Q 1550 3584 1831 3584 
Q 2591 3584 2966 3190 
Q 3341 2797 3341 1997 
z
" transform="scale(0.015625)"/>
      <path id="DejaVuSans-be" d="M 544 1381 
L 544 3500 
L 1119 3500 
L 1119 1403 
Q 1119 906 1312 657 
Q 1506 409 1894 409 
Q 2359 409 2629 706 
Q 2900 1003 2900 1516 
L 2900 3500 
L 3475 3500 
L 3475 0 
L 2900 0 
L 2900 538 
Q 2691 219 2414 64 
Q 2138 -91 1772 -91 
Q 1169 -91 856 284 
Q 544 659 544 1381 
z
M 1991 3584 
L 1991 3584 
z
M 2278 4850 
L 2912 4850 
L 2912 4219 
L 2278 4219 
L 2278 4850 
z
M 1056 4850 
L 1690 4850 
L 1690 4219 
L 1056 4219 
L 1056 4850 
z
" transform="scale(0.015625)"/>
      <path id="DejaVuSans-56" d="M 2834 3397 
L 2834 2853 
Q 2591 2978 2328 3040 
Q 2066 3103 1784 3103 
Q 1356 3103 1142 2972 
Q 928 2841 928 2578 
Q 928 2378 1081 2264 
Q 1234 2150 1697 2047 
L 1894 2003 
Q 2506 1872 2764 1633 
Q 3022 1394 3022 966 
Q 3022 478 2636 193 
Q 2250 -91 1575 -91 
Q 1294 -91 989 -36 
Q 684 19 347 128 
L 347 722 
Q 666 556 975 473 
Q 1284 391 1588 391 
Q 1994 391 2212 530 
Q 2431 669 2431 922 
Q 2431 1156 2273 1281 
Q 2116 1406 1581 1522 
L 1381 1569 
Q 847 1681 609 1914 
Q 372 2147 372 2553 
Q 372 3047 722 3315 
Q 1072 3584 1716 3584 
Q 2034 3584 2315 3537 
Q 2597 3491 2834 3397 
z
" transform="scale(0.015625)"/>
      <path id="DejaVuSans-3" transform="scale(0.015625)"/>
      <path id="DejaVuSans-26" d="M 4122 4306 
L 4122 3641 
Q 3803 3938 3442 4084 
Q 3081 4231 2675 4231 
Q 1875 4231 1450 3742 
Q 1025 3253 1025 2328 
Q 1025 1406 1450 917 
Q 1875 428 2675 428 
Q 3081 428 3442 575 
Q 3803 722 4122 1019 
L 4122 359 
Q 3791 134 3420 21 
Q 3050 -91 2638 -91 
Q 1578 -91 968 557 
Q 359 1206 359 2328 
Q 359 3453 968 4101 
Q 1578 4750 2638 4750 
Q 3056 4750 3426 4639 
Q 3797 4528 4122 4306 
z
" transform="scale(0.015625)"/>
      <path id="DejaVuSans-52" d="M 1959 3097 
Q 1497 3097 1228 2736 
Q 959 2375 959 1747 
Q 959 1119 1226 758 
Q 1494 397 1959 397 
Q 2419 397 2687 759 
Q 2956 1122 2956 1747 
Q 2956 2369 2687 2733 
Q 2419 3097 1959 3097 
z
M 1959 3584 
Q 2709 3584 3137 3096 
Q 3566 2609 3566 1747 
Q 3566 888 3137 398 
Q 2709 -91 1959 -91 
Q 1206 -91 779 398 
Q 353 888 353 1747 
Q 353 2609 779 3096 
Q 1206 3584 1959 3584 
z
" transform="scale(0.015625)"/>
      <path id="DejaVuSans-58" d="M 544 1381 
L 544 3500 
L 1119 3500 
L 1119 1403 
Q 1119 906 1312 657 
Q 1506 409 1894 409 
Q 2359 409 2629 706 
Q 2900 1003 2900 1516 
L 2900 3500 
L 3475 3500 
L 3475 0 
L 2900 0 
L 2900 538 
Q 2691 219 2414 64 
Q 2138 -91 1772 -91 
Q 1169 -91 856 284 
Q 544 659 544 1381 
z
M 1991 3584 
L 1991 3584 
z
" transform="scale(0.015625)"/>
      <path id="DejaVuSans-51" d="M 3513 2113 
L 3513 0 
L 2938 0 
L 2938 2094 
Q 2938 2591 2744 2837 
Q 2550 3084 2163 3084 
Q 1697 3084 1428 2787 
Q 1159 2491 1159 1978 
L 1159 0 
L 581 0 
L 581 3500 
L 1159 3500 
L 1159 2956 
Q 1366 3272 1645 3428 
Q 1925 3584 2291 3584 
Q 2894 3584 3203 3211 
Q 3513 2838 3513 2113 
z
" transform="scale(0.015625)"/>
      <path id="DejaVuSans-4c" d="M 603 3500 
L 1178 3500 
L 1178 0 
L 603 0 
L 603 3500 
z
M 603 4863 
L 1178 4863 
L 1178 4134 
L 603 4134 
L 603 4863 
z
" transform="scale(0.015625)"/>
      <path id="DejaVuSans-57" d="M 1172 4494 
L 1172 3500 
L 2356 3500 
L 2356 3053 
L 1172 3053 
L 1172 1153 
Q 1172 725 1289 603 
Q 1406 481 1766 481 
L 2356 481 
L 2356 0 
L 1766 0 
Q 1100 0 847 248 
Q 594 497 594 1153 
L 594 3053 
L 172 3053 
L 172 3500 
L 594 3500 
L 594 4494 
L 1172 4494 
z
" transform="scale(0.015625)"/>
      <path id="DejaVuSans-5c" d="M 2059 -325 
Q 1816 -950 1584 -1140 
Q 1353 -1331 966 -1331 
L 506 -1331 
L 506 -850 
L 844 -850 
Q 1081 -850 1212 -737 
Q 1344 -625 1503 -206 
L 1606 56 
L 191 3500 
L 800 3500 
L 1894 763 
L 2988 3500 
L 3597 3500 
L 2059 -325 
z
" transform="scale(0.015625)"/>
     </defs>
     <use xlink:href="#DejaVuSans-28"/>
     <use xlink:href="#DejaVuSans-50" transform="translate(63.1875 0)"/>
     <use xlink:href="#DejaVuSans-50" transform="translate(160.59375 0)"/>
     <use xlink:href="#DejaVuSans-44" transform="translate(258 0)"/>
     <use xlink:href="#DejaVuSans-be" transform="translate(319.28125 0)"/>
     <use xlink:href="#DejaVuSans-56" transform="translate(382.65625 0)"/>
     <use xlink:href="#DejaVuSans-3" transform="translate(434.75 0)"/>
     <use xlink:href="#DejaVuSans-26" transform="translate(466.53125 0)"/>
     <use xlink:href="#DejaVuSans-52" transform="translate(536.359375 0)"/>
     <use xlink:href="#DejaVuSans-50" transform="translate(597.546875 0)"/>
     <use xlink:href="#DejaVuSans-50" transform="translate(694.953125 0)"/>
     <use xlink:href="#DejaVuSans-58" transform="translate(792.359375 0)"/>
     <use xlink:href="#DejaVuSans-51" transform="translate(855.734375 0)"/>
     <use xlink:href="#DejaVuSans-4c" transform="translate(919.109375 0)"/>
     <use xlink:href="#DejaVuSans-57" transform="translate(946.890625 0)"/>
     <use xlink:href="#DejaVuSans-5c" transform="translate(986.09375 0)"/>
    </g>
    <!-- founded -->
    <g transform="translate(165.509077 66.930708) scale(0.11 -0.11)">
     <defs>
      <path id="DejaVuSans-49" d="M 2375 4863 
L 2375 4384 
L 1825 4384 
Q 1516 4384 1395 4259 
Q 1275 4134 1275 3809 
L 1275 3500 
L 2222 3500 
L 2222 3053 
L 1275 3053 
L 1275 0 
L 697 0 
L 697 3053 
L 147 3053 
L 147 3500 
L 697 3500 
L 697 3744 
Q 697 4328 969 4595 
Q 1241 4863 1831 4863 
L 2375 4863 
z
" transform="scale(0.015625)"/>
      <path id="DejaVuSans-47" d="M 2906 2969 
L 2906 4863 
L 3481 4863 
L 3481 0 
L 2906 0 
L 2906 525 
Q 2725 213 2448 61 
Q 2172 -91 1784 -91 
Q 1150 -91 751 415 
Q 353 922 353 1747 
Q 353 2572 751 3078 
Q 1150 3584 1784 3584 
Q 2172 3584 2448 3432 
Q 2725 3281 2906 2969 
z
M 947 1747 
Q 947 1113 1208 752 
Q 1469 391 1925 391 
Q 2381 391 2643 752 
Q 2906 1113 2906 1747 
Q 2906 2381 2643 2742 
Q 2381 3103 1925 3103 
Q 1469 3103 1208 2742 
Q 947 2381 947 1747 
z
" transform="scale(0.015625)"/>
      <path id="DejaVuSans-48" d="M 3597 1894 
L 3597 1613 
L 953 1613 
Q 991 1019 1311 708 
Q 1631 397 2203 397 
Q 2534 397 2845 478 
Q 3156 559 3463 722 
L 3463 178 
Q 3153 47 2828 -22 
Q 2503 -91 2169 -91 
Q 1331 -91 842 396 
Q 353 884 353 1716 
Q 353 2575 817 3079 
Q 1281 3584 2069 3584 
Q 2775 3584 3186 3129 
Q 3597 2675 3597 1894 
z
M 3022 2063 
Q 3016 2534 2758 2815 
Q 2500 3097 2075 3097 
Q 1594 3097 1305 2825 
Q 1016 2553 972 2059 
L 3022 2063 
z
" transform="scale(0.015625)"/>
     </defs>
     <use xlink:href="#DejaVuSans-49"/>
     <use xlink:href="#DejaVuSans-52" transform="translate(35.203125 0)"/>
     <use xlink:href="#DejaVuSans-58" transform="translate(96.390625 0)"/>
     <use xlink:href="#DejaVuSans-51" transform="translate(159.765625 0)"/>
     <use xlink:href="#DejaVuSans-47" transform="translate(223.140625 0)"/>
     <use xlink:href="#DejaVuSans-48" transform="translate(286.625 0)"/>
     <use xlink:href="#DejaVuSans-47" transform="translate(348.15625 0)"/>
    </g>
   </g>
   <g id="text_13">
    <g id="patch_13">
     <path d="M 7.2 142.949565 
L 93.495 142.949565 
Q 96.795 142.949565 96.795 139.649565 
L 96.795 128.648705 
Q 96.795 125.348705 93.495 125.348705 
L 7.2 125.348705 
Q 3.9 125.348705 3.9 128.648705 
L 3.9 139.649565 
Q 3.9 142.949565 7.2 142.949565 
z
" style="fill: #ffffff; stroke: #000000; stroke-width: 0.5; stroke-linejoin: miter"/>
    </g>
    <!-- GBEEB founded -->
    <g transform="translate(7.2 137.006986) scale(0.11 -0.11)">
     <defs>
      <path id="DejaVuSans-2a" d="M 3809 666 
L 3809 1919 
L 2778 1919 
L 2778 2438 
L 4434 2438 
L 4434 434 
Q 4069 175 3628 42 
Q 3188 -91 2688 -91 
Q 1594 -91 976 548 
Q 359 1188 359 2328 
Q 359 3472 976 4111 
Q 1594 4750 2688 4750 
Q 3144 4750 3555 4637 
Q 3966 4525 4313 4306 
L 4313 3634 
Q 3963 3931 3569 4081 
Q 3175 4231 2741 4231 
Q 1884 4231 1454 3753 
Q 1025 3275 1025 2328 
Q 1025 1384 1454 906 
Q 1884 428 2741 428 
Q 3075 428 3337 486 
Q 3600 544 3809 666 
z
" transform="scale(0.015625)"/>
      <path id="DejaVuSans-25" d="M 1259 2228 
L 1259 519 
L 2272 519 
Q 2781 519 3026 730 
Q 3272 941 3272 1375 
Q 3272 1813 3026 2020 
Q 2781 2228 2272 2228 
L 1259 2228 
z
M 1259 4147 
L 1259 2741 
L 2194 2741 
Q 2656 2741 2882 2914 
Q 3109 3088 3109 3444 
Q 3109 3797 2882 3972 
Q 2656 4147 2194 4147 
L 1259 4147 
z
M 628 4666 
L 2241 4666 
Q 2963 4666 3353 4366 
Q 3744 4066 3744 3513 
Q 3744 3084 3544 2831 
Q 3344 2578 2956 2516 
Q 3422 2416 3680 2098 
Q 3938 1781 3938 1306 
Q 3938 681 3513 340 
Q 3088 0 2303 0 
L 628 0 
L 628 4666 
z
" transform="scale(0.015625)"/>
     </defs>
     <use xlink:href="#DejaVuSans-2a"/>
     <use xlink:href="#DejaVuSans-25" transform="translate(77.484375 0)"/>
     <use xlink:href="#DejaVuSans-28" transform="translate(146.09375 0)"/>
     <use xlink:href="#DejaVuSans-28" transform="translate(209.28125 0)"/>
     <use xlink:href="#DejaVuSans-25" transform="translate(272.46875 0)"/>
     <use xlink:href="#DejaVuSans-3" transform="translate(341.078125 0)"/>
     <use xlink:href="#DejaVuSans-49" transform="translate(372.859375 0)"/>
     <use xlink:href="#DejaVuSans-52" transform="translate(408.0625 0)"/>
     <use xlink:href="#DejaVuSans-58" transform="translate(469.25 0)"/>
     <use xlink:href="#DejaVuSans-51" transform="translate(532.625 0)"/>
     <use xlink:href="#DejaVuSans-47" transform="translate(596 0)"/>
     <use xlink:href="#DejaVuSans-48" transform="translate(659.484375 0)"/>
     <use xlink:href="#DejaVuSans-47" transform="translate(721.015625 0)"/>
    </g>
   </g>
   <g id="text_14">
    <g id="patch_14">
     <path d="M 129.767756 157.000653 
L 269.436818 157.000653 
Q 272.736818 157.000653 272.736818 153.700653 
L 272.736818 142.699793 
Q 272.736818 139.399793 269.436818 139.399793 
L 129.767756 139.399793 
Q 126.467756 139.399793 126.467756 142.699793 
L 126.467756 153.700653 
Q 126.467756 157.000653 129.767756 157.000653 
z
" style="fill: #ffffff; stroke: #000000; stroke-width: 0.5; stroke-linejoin: miter"/>
    </g>
    <!-- CIUB officially recognised -->
    <g transform="translate(129.767756 151.058075) scale(0.11 -0.11)">
     <defs>
      <path id="DejaVuSans-2c" d="M 628 4666 
L 1259 4666 
L 1259 0 
L 628 0 
L 628 4666 
z
" transform="scale(0.015625)"/>
      <path id="DejaVuSans-38" d="M 556 4666 
L 1191 4666 
L 1191 1831 
Q 1191 1081 1462 751 
Q 1734 422 2344 422 
Q 2950 422 3222 751 
Q 3494 1081 3494 1831 
L 3494 4666 
L 4128 4666 
L 4128 1753 
Q 4128 841 3676 375 
Q 3225 -91 2344 -91 
Q 1459 -91 1007 375 
Q 556 841 556 1753 
L 556 4666 
z
" transform="scale(0.015625)"/>
      <path id="DejaVuSans-13b1" d="M 2375 4863 
L 2375 4384 
L 1825 4384 
Q 1516 4384 1394 4259 
Q 1275 4134 1275 3809 
L 1275 3500 
L 2853 3500 
L 2853 3744 
Q 2853 4328 3125 4594 
Q 3213 4681 3334 4741 
Q 3578 4863 3988 4863 
L 4531 4863 
L 4531 4384 
L 3981 4384 
Q 3672 4384 3551 4259 
Q 3431 4134 3431 3809 
L 3431 3500 
L 5588 3500 
L 5588 0 
L 5009 0 
L 5009 3053 
L 3431 3053 
L 3431 0 
L 2853 0 
L 2853 3053 
L 1275 3053 
L 1275 0 
L 697 0 
L 697 3053 
L 147 3053 
L 147 3500 
L 697 3500 
L 697 3744 
Q 697 4328 969 4595 
Q 1241 4863 1831 4863 
L 2375 4863 
z
M 5009 4856 
L 5588 4856 
L 5588 4128 
L 5009 4128 
L 5009 4856 
z
" transform="scale(0.015625)"/>
      <path id="DejaVuSans-46" d="M 3122 3366 
L 3122 2828 
Q 2878 2963 2633 3030 
Q 2388 3097 2138 3097 
Q 1578 3097 1268 2742 
Q 959 2388 959 1747 
Q 959 1106 1268 751 
Q 1578 397 2138 397 
Q 2388 397 2633 464 
Q 2878 531 3122 666 
L 3122 134 
Q 2881 22 2623 -34 
Q 2366 -91 2075 -91 
Q 1284 -91 818 406 
Q 353 903 353 1747 
Q 353 2603 823 3093 
Q 1294 3584 2113 3584 
Q 2378 3584 2631 3529 
Q 2884 3475 3122 3366 
z
" transform="scale(0.015625)"/>
      <path id="DejaVuSans-4f" d="M 603 4863 
L 1178 4863 
L 1178 0 
L 603 0 
L 603 4863 
z
" transform="scale(0.015625)"/>
      <path id="DejaVuSans-55" d="M 2631 2963 
Q 2534 3019 2420 3045 
Q 2306 3072 2169 3072 
Q 1681 3072 1420 2755 
Q 1159 2438 1159 1844 
L 1159 0 
L 581 0 
L 581 3500 
L 1159 3500 
L 1159 2956 
Q 1341 3275 1631 3429 
Q 1922 3584 2338 3584 
Q 2397 3584 2469 3576 
Q 2541 3569 2628 3553 
L 2631 2963 
z
" transform="scale(0.015625)"/>
      <path id="DejaVuSans-4a" d="M 2906 1791 
Q 2906 2416 2648 2759 
Q 2391 3103 1925 3103 
Q 1463 3103 1205 2759 
Q 947 2416 947 1791 
Q 947 1169 1205 825 
Q 1463 481 1925 481 
Q 2391 481 2648 825 
Q 2906 1169 2906 1791 
z
M 3481 434 
Q 3481 -459 3084 -895 
Q 2688 -1331 1869 -1331 
Q 1566 -1331 1297 -1286 
Q 1028 -1241 775 -1147 
L 775 -588 
Q 1028 -725 1275 -790 
Q 1522 -856 1778 -856 
Q 2344 -856 2625 -561 
Q 2906 -266 2906 331 
L 2906 616 
Q 2728 306 2450 153 
Q 2172 0 1784 0 
Q 1141 0 747 490 
Q 353 981 353 1791 
Q 353 2603 747 3093 
Q 1141 3584 1784 3584 
Q 2172 3584 2450 3431 
Q 2728 3278 2906 2969 
L 2906 3500 
L 3481 3500 
L 3481 434 
z
" transform="scale(0.015625)"/>
     </defs>
     <use xlink:href="#DejaVuSans-26"/>
     <use xlink:href="#DejaVuSans-2c" transform="translate(69.828125 0)"/>
     <use xlink:href="#DejaVuSans-38" transform="translate(99.328125 0)"/>
     <use xlink:href="#DejaVuSans-25" transform="translate(172.515625 0)"/>
     <use xlink:href="#DejaVuSans-3" transform="translate(241.125 0)"/>
     <use xlink:href="#DejaVuSans-52" transform="translate(272.90625 0)"/>
     <use xlink:href="#DejaVuSans-13b1" transform="translate(334.09375 0)"/>
     <use xlink:href="#DejaVuSans-46" transform="translate(430.78125 0)"/>
     <use xlink:href="#DejaVuSans-4c" transform="translate(485.765625 0)"/>
     <use xlink:href="#DejaVuSans-44" transform="translate(513.546875 0)"/>
     <use xlink:href="#DejaVuSans-4f" transform="translate(574.828125 0)"/>
     <use xlink:href="#DejaVuSans-4f" transform="translate(602.609375 0)"/>
     <use xlink:href="#DejaVuSans-5c" transform="translate(630.390625 0)"/>
     <use xlink:href="#DejaVuSans-3" transform="translate(689.578125 0)"/>
     <use xlink:href="#DejaVuSans-55" transform="translate(721.359375 0)"/>
     <use xlink:href="#DejaVuSans-48" transform="translate(760.265625 0)"/>
     <use xlink:href="#DejaVuSans-46" transform="translate(821.796875 0)"/>
     <use xlink:href="#DejaVuSans-52" transform="translate(876.78125 0)"/>
     <use xlink:href="#DejaVuSans-4a" transform="translate(937.96875 0)"/>
     <use xlink:href="#DejaVuSans-51" transform="translate(1001.453125 0)"/>
     <use xlink:href="#DejaVuSans-4c" transform="translate(1064.828125 0)"/>
     <use xlink:href="#DejaVuSans-56" transform="translate(1092.609375 0)"/>
     <use xlink:href="#DejaVuSans-48" transform="translate(1144.703125 0)"/>
     <use xlink:href="#DejaVuSans-47" transform="translate(1206.234375 0)"/>
    </g>
   </g>
   <g id="text_15">
    <g id="patch_15">
     <path d="M 32.097855 174.567379 
L 122.818636 174.567379 
Q 126.118636 174.567379 126.118636 171.267379 
L 126.118636 144.861363 
Q 126.118636 141.561363 122.818636 141.561363 
L 32.097855 141.561363 
Q 28.797855 141.561363 28.797855 144.861363 
L 28.797855 171.267379 
Q 28.797855 174.567379 32.097855 174.567379 
z
" style="fill: #ffffff; stroke: #000000; stroke-width: 0.5; stroke-linejoin: miter"/>
    </g>
    <!-- ILACI foundation -->
    <g transform="translate(32.097855 154.320719) scale(0.11 -0.11)">
     <defs>
      <path id="DejaVuSans-2f" d="M 628 4666 
L 1259 4666 
L 1259 531 
L 3531 531 
L 3531 0 
L 628 0 
L 628 4666 
z
" transform="scale(0.015625)"/>
      <path id="DejaVuSans-24" d="M 2188 4044 
L 1331 1722 
L 3047 1722 
L 2188 4044 
z
M 1831 4666 
L 2547 4666 
L 4325 0 
L 3669 0 
L 3244 1197 
L 1141 1197 
L 716 0 
L 50 0 
L 1831 4666 
z
" transform="scale(0.015625)"/>
     </defs>
     <use xlink:href="#DejaVuSans-2c"/>
     <use xlink:href="#DejaVuSans-2f" transform="translate(29.5 0)"/>
     <use xlink:href="#DejaVuSans-24" transform="translate(87.515625 0)"/>
     <use xlink:href="#DejaVuSans-26" transform="translate(154.171875 0)"/>
     <use xlink:href="#DejaVuSans-2c" transform="translate(224 0)"/>
     <use xlink:href="#DejaVuSans-3" transform="translate(253.5 0)"/>
     <use xlink:href="#DejaVuSans-49" transform="translate(285.28125 0)"/>
     <use xlink:href="#DejaVuSans-52" transform="translate(320.484375 0)"/>
     <use xlink:href="#DejaVuSans-58" transform="translate(381.671875 0)"/>
     <use xlink:href="#DejaVuSans-51" transform="translate(445.046875 0)"/>
     <use xlink:href="#DejaVuSans-47" transform="translate(508.421875 0)"/>
     <use xlink:href="#DejaVuSans-44" transform="translate(571.90625 0)"/>
     <use xlink:href="#DejaVuSans-57" transform="translate(633.1875 0)"/>
     <use xlink:href="#DejaVuSans-4c" transform="translate(672.390625 0)"/>
     <use xlink:href="#DejaVuSans-52" transform="translate(700.171875 0)"/>
     <use xlink:href="#DejaVuSans-51" transform="translate(761.359375 0)"/>
    </g>
    <!-- stone laid -->
    <g transform="translate(68.973636 167.523726) scale(0.11 -0.11)">
     <use xlink:href="#DejaVuSans-56"/>
     <use xlink:href="#DejaVuSans-57" transform="translate(52.09375 0)"/>
     <use xlink:href="#DejaVuSans-52" transform="translate(91.296875 0)"/>
     <use xlink:href="#DejaVuSans-51" transform="translate(152.484375 0)"/>
     <use xlink:href="#DejaVuSans-48" transform="translate(215.859375 0)"/>
     <use xlink:href="#DejaVuSans-3" transform="translate(277.390625 0)"/>
     <use xlink:href="#DejaVuSans-4f" transform="translate(309.171875 0)"/>
     <use xlink:href="#DejaVuSans-44" transform="translate(336.953125 0)"/>
     <use xlink:href="#DejaVuSans-4c" transform="translate(398.234375 0)"/>
     <use xlink:href="#DejaVuSans-47" transform="translate(426.015625 0)"/>
    </g>
   </g>
   <g id="text_16">
    <g id="patch_16">
     <path d="M 134.205483 416.200653 
L 210.789545 416.200653 
Q 214.089545 416.200653 214.089545 412.900653 
L 214.089545 401.899793 
Q 214.089545 398.599793 210.789545 398.599793 
L 134.205483 398.599793 
Q 130.905483 398.599793 130.905483 401.899793 
L 130.905483 412.900653 
Q 130.905483 416.200653 134.205483 416.200653 
z
" style="fill: #ffffff; stroke: #000000; stroke-width: 0.5; stroke-linejoin: miter"/>
    </g>
    <!-- AIMB founded -->
    <g transform="translate(134.205483 410.258075) scale(0.11 -0.11)">
     <defs>
      <path id="DejaVuSans-30" d="M 628 4666 
L 1569 4666 
L 2759 1491 
L 3956 4666 
L 4897 4666 
L 4897 0 
L 4281 0 
L 4281 4097 
L 3078 897 
L 2444 897 
L 1241 4097 
L 1241 0 
L 628 0 
L 628 4666 
z
" transform="scale(0.015625)"/>
     </defs>
     <use xlink:href="#DejaVuSans-24"/>
     <use xlink:href="#DejaVuSans-2c" transform="translate(68.40625 0)"/>
     <use xlink:href="#DejaVuSans-30" transform="translate(97.90625 0)"/>
     <use xlink:href="#DejaVuSans-25" transform="translate(184.1875 0)"/>
     <use xlink:href="#DejaVuSans-3" transform="translate(252.796875 0)"/>
     <use xlink:href="#DejaVuSans-49" transform="translate(284.578125 0)"/>
     <use xlink:href="#DejaVuSans-52" transform="translate(319.78125 0)"/>
     <use xlink:href="#DejaVuSans-58" transform="translate(380.96875 0)"/>
     <use xlink:href="#DejaVuSans-51" transform="translate(444.34375 0)"/>
     <use xlink:href="#DejaVuSans-47" transform="translate(507.71875 0)"/>
     <use xlink:href="#DejaVuSans-48" transform="translate(571.203125 0)"/>
     <use xlink:href="#DejaVuSans-47" transform="translate(632.734375 0)"/>
    </g>
   </g>
   <g id="text_17">
    <g id="patch_17">
     <path d="M 94.603764 501.500694 
L 210.789545 501.500694 
Q 214.089545 501.500694 214.089545 498.200694 
L 214.089545 487.199834 
Q 214.089545 483.899834 210.789545 483.899834 
L 94.603764 483.899834 
Q 91.303764 483.899834 91.303764 487.199834 
L 91.303764 498.200694 
Q 91.303764 501.500694 94.603764 501.500694 
z
" style="fill: #ffffff; stroke: #000000; stroke-width: 0.5; stroke-linejoin: miter"/>
    </g>
    <!-- RAJEC Benin founded -->
    <g transform="translate(94.603764 495.558116) scale(0.11 -0.11)">
     <defs>
      <path id="DejaVuSans-35" d="M 2841 2188 
Q 3044 2119 3236 1894 
Q 3428 1669 3622 1275 
L 4263 0 
L 3584 0 
L 2988 1197 
Q 2756 1666 2539 1819 
Q 2322 1972 1947 1972 
L 1259 1972 
L 1259 0 
L 628 0 
L 628 4666 
L 2053 4666 
Q 2853 4666 3247 4331 
Q 3641 3997 3641 3322 
Q 3641 2881 3436 2590 
Q 3231 2300 2841 2188 
z
M 1259 4147 
L 1259 2491 
L 2053 2491 
Q 2509 2491 2742 2702 
Q 2975 2913 2975 3322 
Q 2975 3731 2742 3939 
Q 2509 4147 2053 4147 
L 1259 4147 
z
" transform="scale(0.015625)"/>
      <path id="DejaVuSans-2d" d="M 628 4666 
L 1259 4666 
L 1259 325 
Q 1259 -519 939 -900 
Q 619 -1281 -91 -1281 
L -331 -1281 
L -331 -750 
L -134 -750 
Q 284 -750 456 -515 
Q 628 -281 628 325 
L 628 4666 
z
" transform="scale(0.015625)"/>
     </defs>
     <use xlink:href="#DejaVuSans-35"/>
     <use xlink:href="#DejaVuSans-24" transform="translate(65.4375 0)"/>
     <use xlink:href="#DejaVuSans-2d" transform="translate(133.84375 0)"/>
     <use xlink:href="#DejaVuSans-28" transform="translate(163.34375 0)"/>
     <use xlink:href="#DejaVuSans-26" transform="translate(226.53125 0)"/>
     <use xlink:href="#DejaVuSans-3" transform="translate(296.359375 0)"/>
     <use xlink:href="#DejaVuSans-25" transform="translate(328.140625 0)"/>
     <use xlink:href="#DejaVuSans-48" transform="translate(396.75 0)"/>
     <use xlink:href="#DejaVuSans-51" transform="translate(458.28125 0)"/>
     <use xlink:href="#DejaVuSans-4c" transform="translate(521.65625 0)"/>
     <use xlink:href="#DejaVuSans-51" transform="translate(549.4375 0)"/>
     <use xlink:href="#DejaVuSans-3" transform="translate(612.8125 0)"/>
     <use xlink:href="#DejaVuSans-49" transform="translate(644.59375 0)"/>
     <use xlink:href="#DejaVuSans-52" transform="translate(679.796875 0)"/>
     <use xlink:href="#DejaVuSans-58" transform="translate(740.984375 0)"/>
     <use xlink:href="#DejaVuSans-51" transform="translate(804.359375 0)"/>
     <use xlink:href="#DejaVuSans-47" transform="translate(867.734375 0)"/>
     <use xlink:href="#DejaVuSans-48" transform="translate(931.21875 0)"/>
     <use xlink:href="#DejaVuSans-47" transform="translate(992.75 0)"/>
    </g>
   </g>
   <g id="text_18">
    <g id="patch_18">
     <path d="M 386.731364 108.53436 
L 467.239332 108.53436 
Q 470.539332 108.53436 470.539332 105.23436 
L 470.539332 78.828345 
Q 470.539332 75.528345 467.239332 75.528345 
L 386.731364 75.528345 
Q 383.431364 75.528345 383.431364 78.828345 
L 383.431364 105.23436 
Q 383.431364 108.53436 386.731364 108.53436 
z
" style="fill: #ffffff; stroke: #000000; stroke-width: 0.5; stroke-linejoin: miter"/>
    </g>
    <!-- UB Bible study -->
    <g transform="translate(386.731364 88.2877) scale(0.11 -0.11)">
     <defs>
      <path id="DejaVuSans-45" d="M 3116 1747 
Q 3116 2381 2855 2742 
Q 2594 3103 2138 3103 
Q 1681 3103 1420 2742 
Q 1159 2381 1159 1747 
Q 1159 1113 1420 752 
Q 1681 391 2138 391 
Q 2594 391 2855 752 
Q 3116 1113 3116 1747 
z
M 1159 2969 
Q 1341 3281 1617 3432 
Q 1894 3584 2278 3584 
Q 2916 3584 3314 3078 
Q 3713 2572 3713 1747 
Q 3713 922 3314 415 
Q 2916 -91 2278 -91 
Q 1894 -91 1617 61 
Q 1341 213 1159 525 
L 1159 0 
L 581 0 
L 581 4863 
L 1159 4863 
L 1159 2969 
z
" transform="scale(0.015625)"/>
     </defs>
     <use xlink:href="#DejaVuSans-38"/>
     <use xlink:href="#DejaVuSans-25" transform="translate(73.1875 0)"/>
     <use xlink:href="#DejaVuSans-3" transform="translate(141.796875 0)"/>
     <use xlink:href="#DejaVuSans-25" transform="translate(173.578125 0)"/>
     <use xlink:href="#DejaVuSans-4c" transform="translate(242.1875 0)"/>
     <use xlink:href="#DejaVuSans-45" transform="translate(269.96875 0)"/>
     <use xlink:href="#DejaVuSans-4f" transform="translate(333.453125 0)"/>
     <use xlink:href="#DejaVuSans-48" transform="translate(361.234375 0)"/>
     <use xlink:href="#DejaVuSans-3" transform="translate(422.765625 0)"/>
     <use xlink:href="#DejaVuSans-56" transform="translate(454.546875 0)"/>
     <use xlink:href="#DejaVuSans-57" transform="translate(506.640625 0)"/>
     <use xlink:href="#DejaVuSans-58" transform="translate(545.84375 0)"/>
     <use xlink:href="#DejaVuSans-47" transform="translate(609.21875 0)"/>
     <use xlink:href="#DejaVuSans-5c" transform="translate(672.703125 0)"/>
    </g>
    <!-- group formed -->
    <g transform="translate(386.731364 101.490708) scale(0.11 -0.11)">
     <defs>
      <path id="DejaVuSans-53" d="M 1159 525 
L 1159 -1331 
L 581 -1331 
L 581 3500 
L 1159 3500 
L 1159 2969 
Q 1341 3281 1617 3432 
Q 1894 3584 2278 3584 
Q 2916 3584 3314 3078 
Q 3713 2572 3713 1747 
Q 3713 922 3314 415 
Q 2916 -91 2278 -91 
Q 1894 -91 1617 61 
Q 1341 213 1159 525 
z
M 3116 1747 
Q 3116 2381 2855 2742 
Q 2594 3103 2138 3103 
Q 1681 3103 1420 2742 
Q 1159 2381 1159 1747 
Q 1159 1113 1420 752 
Q 1681 391 2138 391 
Q 2594 391 2855 752 
Q 3116 1113 3116 1747 
z
" transform="scale(0.015625)"/>
     </defs>
     <use xlink:href="#DejaVuSans-4a"/>
     <use xlink:href="#DejaVuSans-55" transform="translate(63.484375 0)"/>
     <use xlink:href="#DejaVuSans-52" transform="translate(102.390625 0)"/>
     <use xlink:href="#DejaVuSans-58" transform="translate(163.578125 0)"/>
     <use xlink:href="#DejaVuSans-53" transform="translate(226.953125 0)"/>
     <use xlink:href="#DejaVuSans-3" transform="translate(290.4375 0)"/>
     <use xlink:href="#DejaVuSans-49" transform="translate(322.21875 0)"/>
     <use xlink:href="#DejaVuSans-52" transform="translate(357.421875 0)"/>
     <use xlink:href="#DejaVuSans-55" transform="translate(418.609375 0)"/>
     <use xlink:href="#DejaVuSans-50" transform="translate(457.96875 0)"/>
     <use xlink:href="#DejaVuSans-48" transform="translate(555.375 0)"/>
     <use xlink:href="#DejaVuSans-47" transform="translate(616.90625 0)"/>
    </g>
   </g>
   <g id="text_19">
    <g id="patch_19">
     <path d="M 386.731364 159.023158 
L 504.302457 159.023158 
Q 507.602457 159.023158 507.602457 155.723158 
L 507.602457 144.722299 
Q 507.602457 141.422299 504.302457 141.422299 
L 386.731364 141.422299 
Q 383.431364 141.422299 383.431364 144.722299 
L 383.431364 155.723158 
Q 383.431364 159.023158 386.731364 159.023158 
z
" style="fill: #ffffff; stroke: #000000; stroke-width: 0.5; stroke-linejoin: miter"/>
    </g>
    <!-- Ban of religious sects -->
    <g transform="translate(386.731364 153.08058) scale(0.11 -0.11)">
     <use xlink:href="#DejaVuSans-25"/>
     <use xlink:href="#DejaVuSans-44" transform="translate(68.609375 0)"/>
     <use xlink:href="#DejaVuSans-51" transform="translate(129.890625 0)"/>
     <use xlink:href="#DejaVuSans-3" transform="translate(193.265625 0)"/>
     <use xlink:href="#DejaVuSans-52" transform="translate(225.046875 0)"/>
     <use xlink:href="#DejaVuSans-49" transform="translate(286.234375 0)"/>
     <use xlink:href="#DejaVuSans-3" transform="translate(321.4375 0)"/>
     <use xlink:href="#DejaVuSans-55" transform="translate(353.21875 0)"/>
     <use xlink:href="#DejaVuSans-48" transform="translate(392.125 0)"/>
     <use xlink:href="#DejaVuSans-4f" transform="translate(453.65625 0)"/>
     <use xlink:href="#DejaVuSans-4c" transform="translate(481.4375 0)"/>
     <use xlink:href="#DejaVuSans-4a" transform="translate(509.21875 0)"/>
     <use xlink:href="#DejaVuSans-4c" transform="translate(572.703125 0)"/>
     <use xlink:href="#DejaVuSans-52" transform="translate(600.484375 0)"/>
     <use xlink:href="#DejaVuSans-58" transform="translate(661.671875 0)"/>
     <use xlink:href="#DejaVuSans-56" transform="translate(725.046875 0)"/>
     <use xlink:href="#DejaVuSans-3" transform="translate(777.140625 0)"/>
     <use xlink:href="#DejaVuSans-56" transform="translate(808.921875 0)"/>
     <use xlink:href="#DejaVuSans-48" transform="translate(861.015625 0)"/>
     <use xlink:href="#DejaVuSans-46" transform="translate(922.546875 0)"/>
     <use xlink:href="#DejaVuSans-57" transform="translate(977.53125 0)"/>
     <use xlink:href="#DejaVuSans-56" transform="translate(1016.734375 0)"/>
    </g>
   </g>
   <g id="text_20">
    <g id="patch_20">
     <path d="M 386.731364 182.938394 
L 465.403707 182.938394 
Q 468.703707 182.938394 468.703707 179.638394 
L 468.703707 168.637535 
Q 468.703707 165.337535 465.403707 165.337535 
L 386.731364 165.337535 
Q 383.431364 165.337535 383.431364 168.637535 
L 383.431364 179.638394 
Q 383.431364 182.938394 386.731364 182.938394 
z
" style="fill: #ffffff; stroke: #000000; stroke-width: 0.5; stroke-linejoin: miter"/>
    </g>
    <!-- JEC-U founded -->
    <g transform="translate(386.731364 176.995816) scale(0.11 -0.11)">
     <defs>
      <path id="DejaVuSans-10" d="M 313 2009 
L 1997 2009 
L 1997 1497 
L 313 1497 
L 313 2009 
z
" transform="scale(0.015625)"/>
     </defs>
     <use xlink:href="#DejaVuSans-2d"/>
     <use xlink:href="#DejaVuSans-28" transform="translate(29.5 0)"/>
     <use xlink:href="#DejaVuSans-26" transform="translate(92.6875 0)"/>
     <use xlink:href="#DejaVuSans-10" transform="translate(162.515625 0)"/>
     <use xlink:href="#DejaVuSans-38" transform="translate(198.59375 0)"/>
     <use xlink:href="#DejaVuSans-3" transform="translate(271.78125 0)"/>
     <use xlink:href="#DejaVuSans-49" transform="translate(303.5625 0)"/>
     <use xlink:href="#DejaVuSans-52" transform="translate(338.765625 0)"/>
     <use xlink:href="#DejaVuSans-58" transform="translate(399.953125 0)"/>
     <use xlink:href="#DejaVuSans-51" transform="translate(463.328125 0)"/>
     <use xlink:href="#DejaVuSans-47" transform="translate(526.703125 0)"/>
     <use xlink:href="#DejaVuSans-48" transform="translate(590.1875 0)"/>
     <use xlink:href="#DejaVuSans-47" transform="translate(651.71875 0)"/>
    </g>
   </g>
   <g id="text_21">
    <g id="patch_21">
     <path d="M 386.731364 260.680653 
L 537.699489 260.680653 
Q 540.999489 260.680653 540.999489 257.380653 
L 540.999489 246.379793 
Q 540.999489 243.079793 537.699489 243.079793 
L 386.731364 243.079793 
Q 383.431364 243.079793 383.431364 246.379793 
L 383.431364 257.380653 
Q 383.431364 260.680653 386.731364 260.680653 
z
" style="fill: #ffffff; stroke: #000000; stroke-width: 0.5; stroke-linejoin: miter"/>
    </g>
    <!-- GBUST officially recognised -->
    <g transform="translate(386.731364 254.738075) scale(0.11 -0.11)">
     <defs>
      <path id="DejaVuSans-36" d="M 3425 4513 
L 3425 3897 
Q 3066 4069 2747 4153 
Q 2428 4238 2131 4238 
Q 1616 4238 1336 4038 
Q 1056 3838 1056 3469 
Q 1056 3159 1242 3001 
Q 1428 2844 1947 2747 
L 2328 2669 
Q 3034 2534 3370 2195 
Q 3706 1856 3706 1288 
Q 3706 609 3251 259 
Q 2797 -91 1919 -91 
Q 1588 -91 1214 -16 
Q 841 59 441 206 
L 441 856 
Q 825 641 1194 531 
Q 1563 422 1919 422 
Q 2459 422 2753 634 
Q 3047 847 3047 1241 
Q 3047 1584 2836 1778 
Q 2625 1972 2144 2069 
L 1759 2144 
Q 1053 2284 737 2584 
Q 422 2884 422 3419 
Q 422 4038 858 4394 
Q 1294 4750 2059 4750 
Q 2388 4750 2728 4690 
Q 3069 4631 3425 4513 
z
" transform="scale(0.015625)"/>
      <path id="DejaVuSans-37" d="M -19 4666 
L 3928 4666 
L 3928 4134 
L 2272 4134 
L 2272 0 
L 1638 0 
L 1638 4134 
L -19 4134 
L -19 4666 
z
" transform="scale(0.015625)"/>
     </defs>
     <use xlink:href="#DejaVuSans-2a"/>
     <use xlink:href="#DejaVuSans-25" transform="translate(77.484375 0)"/>
     <use xlink:href="#DejaVuSans-38" transform="translate(146.09375 0)"/>
     <use xlink:href="#DejaVuSans-36" transform="translate(219.28125 0)"/>
     <use xlink:href="#DejaVuSans-37" transform="translate(282.765625 0)"/>
     <use xlink:href="#DejaVuSans-3" transform="translate(343.84375 0)"/>
     <use xlink:href="#DejaVuSans-52" transform="translate(375.625 0)"/>
     <use xlink:href="#DejaVuSans-13b1" transform="translate(436.8125 0)"/>
     <use xlink:href="#DejaVuSans-46" transform="translate(533.5 0)"/>
     <use xlink:href="#DejaVuSans-4c" transform="translate(588.484375 0)"/>
     <use xlink:href="#DejaVuSans-44" transform="translate(616.265625 0)"/>
     <use xlink:href="#DejaVuSans-4f" transform="translate(677.546875 0)"/>
     <use xlink:href="#DejaVuSans-4f" transform="translate(705.328125 0)"/>
     <use xlink:href="#DejaVuSans-5c" transform="translate(733.109375 0)"/>
     <use xlink:href="#DejaVuSans-3" transform="translate(792.296875 0)"/>
     <use xlink:href="#DejaVuSans-55" transform="translate(824.078125 0)"/>
     <use xlink:href="#DejaVuSans-48" transform="translate(862.984375 0)"/>
     <use xlink:href="#DejaVuSans-46" transform="translate(924.515625 0)"/>
     <use xlink:href="#DejaVuSans-52" transform="translate(979.5 0)"/>
     <use xlink:href="#DejaVuSans-4a" transform="translate(1040.6875 0)"/>
     <use xlink:href="#DejaVuSans-51" transform="translate(1104.171875 0)"/>
     <use xlink:href="#DejaVuSans-4c" transform="translate(1167.546875 0)"/>
     <use xlink:href="#DejaVuSans-56" transform="translate(1195.328125 0)"/>
     <use xlink:href="#DejaVuSans-48" transform="translate(1247.421875 0)"/>
     <use xlink:href="#DejaVuSans-47" transform="translate(1308.953125 0)"/>
    </g>
   </g>
   <g id="text_22">
    <g id="patch_22">
     <path d="M 386.731364 281.225047 
L 550.591832 281.225047 
Q 553.891832 281.225047 553.891832 277.925047 
L 553.891832 266.924188 
Q 553.891832 263.624188 550.591832 263.624188 
L 386.731364 263.624188 
Q 383.431364 263.624188 383.431364 266.924188 
L 383.431364 277.925047 
Q 383.431364 281.225047 386.731364 281.225047 
z
" style="fill: #ffffff; stroke: #000000; stroke-width: 0.5; stroke-linejoin: miter"/>
    </g>
    <!-- 8th GBUAF Triennial Congress -->
    <g transform="translate(386.731364 275.282469) scale(0.11 -0.11)">
     <defs>
      <path id="DejaVuSans-4b" d="M 3513 2113 
L 3513 0 
L 2938 0 
L 2938 2094 
Q 2938 2591 2744 2837 
Q 2550 3084 2163 3084 
Q 1697 3084 1428 2787 
Q 1159 2491 1159 1978 
L 1159 0 
L 581 0 
L 581 4863 
L 1159 4863 
L 1159 2956 
Q 1366 3272 1645 3428 
Q 1925 3584 2291 3584 
Q 2894 3584 3203 3211 
Q 3513 2838 3513 2113 
z
" transform="scale(0.015625)"/>
      <path id="DejaVuSans-29" d="M 628 4666 
L 3309 4666 
L 3309 4134 
L 1259 4134 
L 1259 2759 
L 3109 2759 
L 3109 2228 
L 1259 2228 
L 1259 0 
L 628 0 
L 628 4666 
z
" transform="scale(0.015625)"/>
     </defs>
     <use xlink:href="#DejaVuSans-1b"/>
     <use xlink:href="#DejaVuSans-57" transform="translate(63.625 0)"/>
     <use xlink:href="#DejaVuSans-4b" transform="translate(102.828125 0)"/>
     <use xlink:href="#DejaVuSans-3" transform="translate(166.203125 0)"/>
     <use xlink:href="#DejaVuSans-2a" transform="translate(197.984375 0)"/>
     <use xlink:href="#DejaVuSans-25" transform="translate(275.46875 0)"/>
     <use xlink:href="#DejaVuSans-38" transform="translate(344.078125 0)"/>
     <use xlink:href="#DejaVuSans-24" transform="translate(417.265625 0)"/>
     <use xlink:href="#DejaVuSans-29" transform="translate(485.671875 0)"/>
     <use xlink:href="#DejaVuSans-3" transform="translate(543.1875 0)"/>
     <use xlink:href="#DejaVuSans-37" transform="translate(574.96875 0)"/>
     <use xlink:href="#DejaVuSans-55" transform="translate(621.34375 0)"/>
     <use xlink:href="#DejaVuSans-4c" transform="translate(662.453125 0)"/>
     <use xlink:href="#DejaVuSans-48" transform="translate(690.234375 0)"/>
     <use xlink:href="#DejaVuSans-51" transform="translate(751.765625 0)"/>
     <use xlink:href="#DejaVuSans-51" transform="translate(815.140625 0)"/>
     <use xlink:href="#DejaVuSans-4c" transform="translate(878.515625 0)"/>
     <use xlink:href="#DejaVuSans-44" transform="translate(906.296875 0)"/>
     <use xlink:href="#DejaVuSans-4f" transform="translate(967.578125 0)"/>
     <use xlink:href="#DejaVuSans-3" transform="translate(995.359375 0)"/>
     <use xlink:href="#DejaVuSans-26" transform="translate(1027.140625 0)"/>
     <use xlink:href="#DejaVuSans-52" transform="translate(1096.96875 0)"/>
     <use xlink:href="#DejaVuSans-51" transform="translate(1158.15625 0)"/>
     <use xlink:href="#DejaVuSans-4a" transform="translate(1221.53125 0)"/>
     <use xlink:href="#DejaVuSans-55" transform="translate(1285.015625 0)"/>
     <use xlink:href="#DejaVuSans-48" transform="translate(1323.921875 0)"/>
     <use xlink:href="#DejaVuSans-56" transform="translate(1385.453125 0)"/>
     <use xlink:href="#DejaVuSans-56" transform="translate(1437.546875 0)"/>
    </g>
   </g>
   <g id="text_23">
    <g id="patch_23">
     <path d="M 386.731364 377.311782 
L 522.033082 377.311782 
Q 525.333082 377.311782 525.333082 374.011782 
L 525.333082 363.010923 
Q 525.333082 359.710923 522.033082 359.710923 
L 386.731364 359.710923 
Q 383.431364 359.710923 383.431364 363.010923 
L 383.431364 374.011782 
Q 383.431364 377.311782 386.731364 377.311782 
z
" style="fill: #ffffff; stroke: #000000; stroke-width: 0.5; stroke-linejoin: miter"/>
    </g>
    <!-- CCU construction begins -->
    <g transform="translate(386.731364 371.369204) scale(0.11 -0.11)">
     <use xlink:href="#DejaVuSans-26"/>
     <use xlink:href="#DejaVuSans-26" transform="translate(69.828125 0)"/>
     <use xlink:href="#DejaVuSans-38" transform="translate(139.65625 0)"/>
     <use xlink:href="#DejaVuSans-3" transform="translate(212.84375 0)"/>
     <use xlink:href="#DejaVuSans-46" transform="translate(244.625 0)"/>
     <use xlink:href="#DejaVuSans-52" transform="translate(299.609375 0)"/>
     <use xlink:href="#DejaVuSans-51" transform="translate(360.796875 0)"/>
     <use xlink:href="#DejaVuSans-56" transform="translate(424.171875 0)"/>
     <use xlink:href="#DejaVuSans-57" transform="translate(476.265625 0)"/>
     <use xlink:href="#DejaVuSans-55" transform="translate(515.46875 0)"/>
     <use xlink:href="#DejaVuSans-58" transform="translate(556.578125 0)"/>
     <use xlink:href="#DejaVuSans-46" transform="translate(619.953125 0)"/>
     <use xlink:href="#DejaVuSans-57" transform="translate(674.9375 0)"/>
     <use xlink:href="#DejaVuSans-4c" transform="translate(714.140625 0)"/>
     <use xlink:href="#DejaVuSans-52" transform="translate(741.921875 0)"/>
     <use xlink:href="#DejaVuSans-51" transform="translate(803.109375 0)"/>
     <use xlink:href="#DejaVuSans-3" transform="translate(866.484375 0)"/>
     <use xlink:href="#DejaVuSans-45" transform="translate(898.265625 0)"/>
     <use xlink:href="#DejaVuSans-48" transform="translate(961.75 0)"/>
     <use xlink:href="#DejaVuSans-4a" transform="translate(1023.28125 0)"/>
     <use xlink:href="#DejaVuSans-4c" transform="translate(1086.765625 0)"/>
     <use xlink:href="#DejaVuSans-51" transform="translate(1114.546875 0)"/>
     <use xlink:href="#DejaVuSans-56" transform="translate(1177.921875 0)"/>
    </g>
   </g>
   <g id="text_24">
    <g id="patch_24">
     <path d="M 386.731364 403.249523 
L 496.898082 403.249523 
Q 500.198082 403.249523 500.198082 399.949523 
L 500.198082 388.948664 
Q 500.198082 385.648664 496.898082 385.648664 
L 386.731364 385.648664 
Q 383.431364 385.648664 383.431364 388.948664 
L 383.431364 399.949523 
Q 383.431364 403.249523 386.731364 403.249523 
z
" style="fill: #ffffff; stroke: #000000; stroke-width: 0.5; stroke-linejoin: miter"/>
    </g>
    <!-- RAJEC Togo founded -->
    <g transform="translate(386.731364 397.306945) scale(0.11 -0.11)">
     <use xlink:href="#DejaVuSans-35"/>
     <use xlink:href="#DejaVuSans-24" transform="translate(65.4375 0)"/>
     <use xlink:href="#DejaVuSans-2d" transform="translate(133.84375 0)"/>
     <use xlink:href="#DejaVuSans-28" transform="translate(163.34375 0)"/>
     <use xlink:href="#DejaVuSans-26" transform="translate(226.53125 0)"/>
     <use xlink:href="#DejaVuSans-3" transform="translate(296.359375 0)"/>
     <use xlink:href="#DejaVuSans-37" transform="translate(328.140625 0)"/>
     <use xlink:href="#DejaVuSans-52" transform="translate(372.234375 0)"/>
     <use xlink:href="#DejaVuSans-4a" transform="translate(433.421875 0)"/>
     <use xlink:href="#DejaVuSans-52" transform="translate(496.90625 0)"/>
     <use xlink:href="#DejaVuSans-3" transform="translate(558.09375 0)"/>
     <use xlink:href="#DejaVuSans-49" transform="translate(589.875 0)"/>
     <use xlink:href="#DejaVuSans-52" transform="translate(625.078125 0)"/>
     <use xlink:href="#DejaVuSans-58" transform="translate(686.265625 0)"/>
     <use xlink:href="#DejaVuSans-51" transform="translate(749.640625 0)"/>
     <use xlink:href="#DejaVuSans-47" transform="translate(813.015625 0)"/>
     <use xlink:href="#DejaVuSans-48" transform="translate(876.5 0)"/>
     <use xlink:href="#DejaVuSans-47" transform="translate(938.03125 0)"/>
    </g>
   </g>
   <g id="text_25">
    <g id="patch_25">
     <path d="M 386.731364 514.451823 
L 466.730582 514.451823 
Q 470.030582 514.451823 470.030582 511.151823 
L 470.030582 500.150964 
Q 470.030582 496.850964 466.730582 496.850964 
L 386.731364 496.850964 
Q 383.431364 496.850964 383.431364 500.150964 
L 383.431364 511.151823 
Q 383.431364 514.451823 386.731364 514.451823 
z
" style="fill: #ffffff; stroke: #000000; stroke-width: 0.5; stroke-linejoin: miter"/>
    </g>
    <!-- ACMT founded -->
    <g transform="translate(386.731364 508.509245) scale(0.11 -0.11)">
     <use xlink:href="#DejaVuSans-24"/>
     <use xlink:href="#DejaVuSans-26" transform="translate(66.65625 0)"/>
     <use xlink:href="#DejaVuSans-30" transform="translate(136.484375 0)"/>
     <use xlink:href="#DejaVuSans-37" transform="translate(222.765625 0)"/>
     <use xlink:href="#DejaVuSans-3" transform="translate(283.84375 0)"/>
     <use xlink:href="#DejaVuSans-49" transform="translate(315.625 0)"/>
     <use xlink:href="#DejaVuSans-52" transform="translate(350.828125 0)"/>
     <use xlink:href="#DejaVuSans-58" transform="translate(412.015625 0)"/>
     <use xlink:href="#DejaVuSans-51" transform="translate(475.390625 0)"/>
     <use xlink:href="#DejaVuSans-47" transform="translate(538.765625 0)"/>
     <use xlink:href="#DejaVuSans-48" transform="translate(602.25 0)"/>
     <use xlink:href="#DejaVuSans-47" transform="translate(663.78125 0)"/>
    </g>
   </g>
  </g>
 </g>
 <defs>
  <clipPath id="p50230a14fe">
   <rect x="78.833182" y="31.569094" width="322.56" height="518.4"/>
  </clipPath>
 </defs>
</svg>
